<svg width="223" height="99" viewBox="0 0 223 99" fill="none" xmlns="http://www.w3.org/2000/svg">
<g opacity="0.28">
<path d="M137.504 3.38958C137.492 5.24907 135.979 6.75361 134.139 6.73605C132.311 6.71848 130.782 5.16382 130.798 3.33843C130.814 1.50115 132.356 -0.0163119 134.191 0.000221577C136.053 0.016755 137.516 1.51355 137.504 3.38958Z" fill="white" fill-opacity="0.3"/>
<path d="M126.431 0.0199629C128.297 0.0478631 129.731 1.53174 129.71 3.41087C129.69 5.26261 128.172 6.75269 126.338 6.72221C124.514 6.69172 122.998 5.13345 123.027 3.31838C123.056 1.48627 124.598 -0.00742063 126.431 0.0199629Z" fill="white" fill-opacity="0.3"/>
<path d="M138.775 3.31415C138.798 1.4345 140.291 -0.00183876 142.175 0.0446615C143.977 0.0890951 145.431 1.55799 145.443 3.34515C145.455 5.16538 143.902 6.71487 142.075 6.70557C140.222 6.69627 138.753 5.18708 138.775 3.31415Z" fill="white" fill-opacity="0.3"/>
<path d="M118.467 6.66326C116.588 6.65964 115.141 5.17577 115.176 3.28941C115.21 1.46556 116.64 0.0721026 118.475 0.073136C120.338 0.0741693 121.852 1.6061 121.801 3.43666C121.752 5.22589 120.262 6.66688 118.467 6.66326Z" fill="white" fill-opacity="0.3"/>
<path d="M153.293 3.37394C153.289 5.18745 151.879 6.61501 150.062 6.64549C148.21 6.67649 146.676 5.18022 146.684 3.35069C146.693 1.56921 148.151 0.110135 149.947 0.0863681C151.835 0.0605346 153.297 1.49739 153.293 3.37394Z" fill="white" fill-opacity="0.3"/>
<path d="M154.542 3.3507C154.549 1.5408 155.985 0.119961 157.8 0.127194C159.612 0.134944 161.045 1.56974 161.04 3.37292C161.036 5.17816 159.599 6.59539 157.778 6.59177C155.96 6.58867 154.536 5.16214 154.542 3.3507Z" fill="white" fill-opacity="0.3"/>
<path d="M113.927 3.48868C113.858 5.30271 112.398 6.6476 110.56 6.58922C108.757 6.53238 107.368 5.04076 107.438 3.23448C107.507 1.43595 108.988 0.0734934 110.814 0.127744C112.612 0.181994 113.995 1.67569 113.927 3.48868Z" fill="white" fill-opacity="0.3"/>
<path d="M134.154 7.93793C135.939 7.93173 137.42 9.42232 137.389 11.1935C137.359 12.9238 135.929 14.3286 134.189 14.3374C132.367 14.3467 130.963 12.9228 130.988 11.0907C131.01 9.32932 132.402 7.94361 134.154 7.93793Z" fill="white" fill-opacity="0.3"/>
<path d="M126.374 7.93779C128.159 7.93159 129.64 9.42218 129.609 11.1933C129.578 12.9237 128.148 14.3285 126.409 14.3373C124.587 14.3466 123.183 12.9226 123.207 11.0905C123.23 9.32918 124.622 7.94347 126.374 7.93779Z" fill="white" fill-opacity="0.3"/>
<path d="M145.258 11.2218C145.223 12.9893 143.809 14.3554 142.04 14.3306C140.305 14.3063 138.865 12.8524 138.873 11.1314C138.881 9.35814 140.42 7.88512 142.2 7.94557C143.952 8.00499 145.293 9.44184 145.258 11.2218Z" fill="white" fill-opacity="0.3"/>
<path d="M102.713 6.5429C100.961 6.51345 99.5951 5.10294 99.6085 3.33593C99.6214 1.57925 101.023 0.17339 102.764 0.170806C104.533 0.168223 106.037 1.70842 105.972 3.45631C105.908 5.18354 104.442 6.57235 102.713 6.5429Z" fill="white" fill-opacity="0.3"/>
<path d="M146.853 11.1489C146.851 9.38601 148.255 7.96259 150 7.95897C151.715 7.95536 153.193 9.42321 153.198 11.1349C153.203 12.8503 151.741 14.3114 150.014 14.3156C148.259 14.3202 146.855 12.9133 146.853 11.1489Z" fill="white" fill-opacity="0.3"/>
<path d="M121.623 11.1369C121.626 12.9018 120.228 14.3134 118.473 14.3155C116.745 14.317 115.28 12.8641 115.277 11.1467C115.275 9.43655 116.748 7.96197 118.463 7.95887C120.208 7.95525 121.619 9.37506 121.623 11.1369Z" fill="white" fill-opacity="0.3"/>
<path d="M168.858 3.37599C168.853 5.1399 167.444 6.54421 165.69 6.53594C163.963 6.52767 162.503 5.0624 162.513 3.34809C162.523 1.63532 164.004 0.171082 165.718 0.179348C167.463 0.187099 168.863 1.61259 168.858 3.37599Z" fill="white" fill-opacity="0.3"/>
<path d="M113.809 11.0906C113.838 12.8261 112.399 14.2903 110.676 14.28C108.998 14.2697 107.605 12.8845 107.576 11.1955C107.546 9.45483 108.982 7.99162 110.708 8.00299C112.378 8.01384 113.782 9.41143 113.809 11.0906Z" fill="white" fill-opacity="0.3"/>
<path d="M157.741 8.00367C159.41 7.97474 160.835 9.34133 160.897 11.0303C160.961 12.7715 159.564 14.2512 157.828 14.2802C156.162 14.3081 154.725 12.9327 154.668 11.2561C154.609 9.51907 156.013 8.03364 157.741 8.00367Z" fill="white" fill-opacity="0.3"/>
<path d="M98.0654 3.40851C98.0432 5.10836 96.6585 6.48373 94.9778 6.47547C93.3151 6.4672 91.9 5.05359 91.8876 3.38733C91.8747 1.66372 93.3585 0.201542 95.0687 0.254243C96.766 0.30591 98.0882 1.69782 98.0654 3.40851Z" fill="white" fill-opacity="0.3"/>
<path d="M170.425 3.29662C170.457 1.58076 171.853 0.232254 173.554 0.275654C175.242 0.318538 176.618 1.75488 176.578 3.43147C176.539 5.10549 175.08 6.50514 173.42 6.46174C171.717 6.41731 170.394 5.01817 170.425 3.29662Z" fill="white" fill-opacity="0.3"/>
<path d="M105.807 11.1474C105.805 12.8658 104.431 14.2324 102.731 14.2071C101.052 14.1818 99.649 12.732 99.6955 11.072C99.741 9.44031 101.095 8.11867 102.738 8.10058C104.467 8.08198 105.809 9.41448 105.807 11.1474Z" fill="white" fill-opacity="0.3"/>
<path d="M137.203 19.0503C137.208 20.7785 135.861 22.125 134.141 22.1121C132.446 22.0992 131.052 20.6768 131.092 19.0017C131.13 17.3747 132.492 16.0252 134.12 16.0014C135.83 15.9766 137.198 17.3303 137.203 19.0503Z" fill="white" fill-opacity="0.3"/>
<path d="M142.039 16.0062C143.715 15.9778 145.166 17.409 145.154 19.0789C145.142 20.7069 143.778 22.0771 142.141 22.1055C140.478 22.1339 139.116 20.8407 139.063 19.1817C139.006 17.4544 140.337 16.0346 142.039 16.0062Z" fill="white" fill-opacity="0.3"/>
<path d="M129.414 19.0889C129.401 20.7562 128.084 22.0871 126.427 22.1063C124.733 22.1259 123.302 20.7097 123.322 19.0321C123.341 17.4072 124.716 16.0313 126.344 16.007C128.047 15.9817 129.427 17.3668 129.414 19.0889Z" fill="white" fill-opacity="0.3"/>
<path d="M162.681 11.0977C162.703 9.41796 164.004 8.1268 165.684 8.11698C167.391 8.10665 168.804 9.51303 168.772 11.1896C168.741 12.8161 167.364 14.1739 165.731 14.1879C164.014 14.2023 162.659 12.829 162.681 11.0977Z" fill="white" fill-opacity="0.3"/>
<path d="M115.463 19.0648C115.461 17.4104 116.792 16.0469 118.433 16.0237C120.099 15.9999 121.552 17.4662 121.507 19.1263C121.464 20.7584 120.068 22.1075 118.441 22.0894C116.792 22.0718 115.464 20.7223 115.463 19.0648Z" fill="white" fill-opacity="0.3"/>
<path d="M153.014 19.0741C153.008 20.7306 151.674 22.077 150.027 22.0894C148.4 22.1018 147.007 20.7471 146.97 19.117C146.932 17.4559 148.389 15.9943 150.054 16.0237C151.694 16.0526 153.02 17.4187 153.014 19.0741Z" fill="white" fill-opacity="0.3"/>
<path d="M87.0694 6.33242C85.3938 6.33139 84.0794 5.0237 84.0815 3.35951C84.0836 1.69841 85.4026 0.38917 87.073 0.389687C88.7393 0.390203 90.0728 1.71236 90.0728 3.36312C90.0723 5.01595 88.7393 6.33346 87.0694 6.33242Z" fill="white" fill-opacity="0.3"/>
<path d="M110.626 16.0596C112.251 16.0173 113.645 17.3849 113.66 19.0362C113.675 20.6342 112.409 21.9786 110.817 22.0577C109.194 22.1383 107.759 20.7996 107.708 19.1566C107.657 17.512 108.985 16.1025 110.626 16.0596Z" fill="white" fill-opacity="0.3"/>
<path d="M94.9497 8.18105C96.6252 8.16296 97.9665 9.47324 97.9727 11.1333C97.9784 12.7965 96.6469 14.1104 94.9662 14.099C93.332 14.0881 92.0605 12.8461 92.0186 11.2191C91.9747 9.54299 93.2715 8.19913 94.9497 8.18105Z" fill="white" fill-opacity="0.3"/>
<path d="M181.38 0.401216C183.053 0.391399 184.388 1.71046 184.385 3.37103C184.382 5.03471 183.045 6.33827 181.362 6.31915C179.731 6.30055 178.462 5.04763 178.43 3.42218C178.396 1.74766 179.701 0.411032 181.38 0.401216Z" fill="white" fill-opacity="0.3"/>
<path d="M154.836 19.1256C154.803 17.4713 156.125 16.0923 157.761 16.0757C159.387 16.0592 160.763 17.431 160.759 19.0667C160.756 20.6498 159.475 21.9797 157.889 22.0453C156.271 22.113 154.869 20.7723 154.836 19.1256Z" fill="white" fill-opacity="0.3"/>
<path d="M173.475 8.19885C175.102 8.1942 176.381 9.44092 176.417 11.0658C176.456 12.7616 175.175 14.078 173.488 14.0775C171.874 14.0775 170.564 12.8127 170.522 11.2172C170.48 9.56957 171.816 8.2035 173.475 8.19885Z" fill="white" fill-opacity="0.3"/>
<path d="M131.284 27.0084C131.271 25.3953 132.548 24.0819 134.142 24.0664C135.716 24.0515 137.075 25.3788 137.094 26.95C137.114 28.5212 135.786 29.8661 134.2 29.8831C132.591 29.9002 131.296 28.623 131.284 27.0084Z" fill="white" fill-opacity="0.3"/>
<path d="M102.879 16.1655C104.485 16.2229 105.774 17.5941 105.705 19.17C105.635 20.7541 104.242 22.0421 102.665 21.9806C101.052 21.9181 99.8288 20.5908 99.8774 18.9555C99.9255 17.3265 101.237 16.1066 102.879 16.1655Z" fill="white" fill-opacity="0.3"/>
<path d="M165.687 16.1787C167.321 16.1704 168.582 17.4167 168.589 19.0462C168.596 20.6696 167.331 21.9535 165.718 21.9608C164.131 21.968 162.791 20.6546 162.78 19.0777C162.769 17.5024 164.088 16.187 165.687 16.1787Z" fill="white" fill-opacity="0.3"/>
<path d="M144.961 26.9732C144.965 28.5914 143.662 29.8929 142.056 29.8743C140.466 29.8563 139.134 28.4866 139.177 26.9159C139.219 25.3912 140.522 24.099 142.043 24.0742C143.634 24.0489 144.958 25.3643 144.961 26.9732Z" fill="white" fill-opacity="0.3"/>
<path d="M123.514 26.9584C123.525 25.3515 124.858 24.0402 126.446 24.0754C127.969 24.1089 129.266 25.4084 129.298 26.932C129.331 28.5048 127.993 29.8657 126.403 29.875C124.797 29.8843 123.502 28.5776 123.514 26.9584Z" fill="white" fill-opacity="0.3"/>
<path d="M189.251 6.23834C187.72 6.27761 186.396 5.03605 186.33 3.49896C186.262 1.8947 187.525 0.526037 189.117 0.481604C190.683 0.437687 192.059 1.7862 192.058 3.36514C192.057 4.89345 190.781 6.19856 189.251 6.23834Z" fill="white" fill-opacity="0.3"/>
<path d="M181.414 14.0185C179.881 14.0247 178.587 12.7615 178.549 11.2218C178.51 9.62165 179.812 8.26642 181.394 8.26022C182.972 8.25402 184.312 9.6232 184.275 11.2016C184.238 12.7408 182.947 14.0123 181.414 14.0185Z" fill="white" fill-opacity="0.3"/>
<path d="M152.869 27.1787C152.743 28.7768 151.299 30.0069 149.739 29.8447C148.196 29.684 147.056 28.3324 147.155 26.7819C147.252 25.2526 148.623 24.0198 150.135 24.1014C151.727 24.1872 152.992 25.6106 152.869 27.1787Z" fill="white" fill-opacity="0.3"/>
<path d="M118.48 24.0976C120.063 24.1043 121.364 25.4601 121.324 27.0602C121.286 28.5999 119.991 29.8626 118.458 29.8559C116.873 29.8492 115.548 28.48 115.599 26.9C115.649 25.3624 116.956 24.0909 118.48 24.0976Z" fill="white" fill-opacity="0.3"/>
<path d="M79.1969 0.467162C80.7624 0.494029 82.0928 1.88232 82.0437 3.43801C81.9941 5.01902 80.6151 6.30967 79.0439 6.24612C77.5038 6.1836 76.2834 4.90329 76.2875 3.35431C76.2922 1.75935 77.621 0.439779 79.1969 0.467162Z" fill="white" fill-opacity="0.3"/>
<path d="M89.9385 11.141C89.9395 12.7432 88.6277 14.0493 87.0384 14.0287C85.5163 14.009 84.2267 12.737 84.1828 11.2118C84.1378 9.65505 85.4708 8.27037 87.0363 8.24712C88.6117 8.22387 89.9369 9.54551 89.9385 11.141Z" fill="white" fill-opacity="0.3"/>
<path d="M157.742 29.8185C156.208 29.7917 154.933 28.4752 154.957 26.9402C154.98 25.3979 156.292 24.1171 157.822 24.1419C159.372 24.1672 160.607 25.4537 160.587 27.0202C160.568 28.5816 159.282 29.8454 157.742 29.8185Z" fill="white" fill-opacity="0.3"/>
<path d="M110.68 29.8198C109.136 29.812 107.879 28.5296 107.885 26.9677C107.89 25.4064 109.161 24.1338 110.706 24.1436C112.242 24.1534 113.525 25.4534 113.518 26.9931C113.512 28.5281 112.207 29.8275 110.68 29.8198Z" fill="white" fill-opacity="0.3"/>
<path d="M94.9759 21.8729C93.4052 21.8677 92.1647 20.6427 92.1523 19.0839C92.1394 17.4776 93.4445 16.206 95.0673 16.2432C96.6318 16.2794 97.8357 17.5349 97.8114 19.1056C97.7866 20.6809 96.5605 21.878 94.9759 21.8729Z" fill="white" fill-opacity="0.3"/>
<path d="M173.511 16.253C175.07 16.2654 176.326 17.5343 176.313 19.0838C176.3 20.6416 175.038 21.8728 173.464 21.863C171.876 21.8527 170.67 20.6281 170.683 19.0373C170.695 17.4537 171.927 16.2406 173.511 16.253Z" fill="white" fill-opacity="0.3"/>
<path d="M87.0161 16.2938C88.4845 16.2618 89.7829 17.4915 89.8433 18.9702C89.9027 20.4313 88.6782 21.7488 87.198 21.817C85.6351 21.8889 84.3444 20.6561 84.3341 19.0828C84.3237 17.5664 85.5167 16.3264 87.0161 16.2938Z" fill="white" fill-opacity="0.3"/>
<path d="M81.8994 11.217C81.8669 12.722 80.6491 13.9124 79.1461 13.9093C77.6116 13.9057 76.3178 12.5841 76.3664 11.0702C76.4139 9.58068 77.6508 8.39441 79.1549 8.39596C80.7374 8.39699 81.9335 9.62666 81.8994 11.217Z" fill="white" fill-opacity="0.3"/>
<path d="M105.518 26.9941C105.513 28.5064 104.329 29.717 102.824 29.7485C101.295 29.7805 99.9725 28.4883 99.9803 26.9688C99.988 25.4348 101.291 24.1932 102.849 24.2341C104.373 24.2733 105.523 25.4637 105.518 26.9941Z" fill="white" fill-opacity="0.3"/>
<path d="M165.793 24.2516C167.297 24.2914 168.511 25.5474 168.478 27.0307C168.445 28.5208 167.195 29.7272 165.692 29.7195C164.114 29.7112 162.911 28.4469 162.971 26.8597C163.028 25.3392 164.249 24.2108 165.793 24.2516Z" fill="white" fill-opacity="0.3"/>
<path d="M71.423 0.630965C72.9539 0.655765 74.1179 1.84721 74.1096 3.38017C74.1014 4.90176 72.9089 6.09423 71.3868 6.10198C69.8316 6.11025 68.542 4.80204 68.6014 3.2758C68.6603 1.77436 69.9065 0.606165 71.423 0.630965Z" fill="white" fill-opacity="0.3"/>
<path d="M191.919 11.0816C191.949 12.6099 190.796 13.8303 189.276 13.8804C187.72 13.9315 186.401 12.6683 186.408 11.1333C186.414 9.64318 187.645 8.42384 189.155 8.41196C190.693 8.40059 191.89 9.55586 191.919 11.0816Z" fill="white" fill-opacity="0.3"/>
<path d="M142.023 37.4618C140.5 37.4303 139.337 36.2161 139.371 34.695C139.405 33.1806 140.619 32.0295 142.151 32.059C143.659 32.0879 144.861 33.332 144.821 34.8237C144.78 36.3292 143.546 37.4933 142.023 37.4618Z" fill="white" fill-opacity="0.3"/>
<path d="M136.897 34.7782C136.889 36.3034 135.683 37.4881 134.149 37.4788C132.631 37.4701 131.398 36.2373 131.411 34.741C131.424 33.2401 132.664 32.0347 134.186 32.044C135.727 32.0533 136.906 33.2421 136.897 34.7782Z" fill="white" fill-opacity="0.3"/>
<path d="M126.443 32.0569C127.963 32.0817 129.132 33.2912 129.106 34.8117C129.081 36.3235 127.867 37.484 126.337 37.4602C124.825 37.4364 123.62 36.2 123.655 34.7063C123.689 33.2018 124.92 32.0321 126.443 32.0569Z" fill="white" fill-opacity="0.3"/>
<path d="M181.386 21.799C179.905 21.7887 178.659 20.5244 178.671 19.0431C178.682 17.5664 179.956 16.3037 181.423 16.3161C182.906 16.329 184.131 17.583 184.122 19.0793C184.113 20.5802 182.876 21.8093 181.386 21.799Z" fill="white" fill-opacity="0.3"/>
<path d="M197.15 0.66114C198.659 0.682324 199.866 1.91717 199.837 3.40982C199.807 4.91282 198.574 6.08824 197.054 6.06499C195.532 6.04122 194.36 4.83377 194.386 3.31424C194.411 1.79781 195.618 0.639957 197.15 0.66114Z" fill="white" fill-opacity="0.3"/>
<path d="M118.436 37.4468C116.909 37.4318 115.725 36.213 115.761 34.694C115.797 33.1786 117.03 32.0264 118.566 32.0719C120.027 32.1153 121.178 33.2964 121.181 34.7555C121.185 36.2704 119.969 37.4618 118.436 37.4468Z" fill="white" fill-opacity="0.3"/>
<path d="M149.999 37.4326C148.511 37.4305 147.356 36.3016 147.325 34.8188C147.293 33.2842 148.483 32.0742 150.018 32.0809C151.548 32.0876 152.745 33.3173 152.703 34.8379C152.663 36.3031 151.483 37.4347 149.999 37.4326Z" fill="white" fill-opacity="0.3"/>
<path d="M95.0242 29.6535C93.531 29.6695 92.3633 28.5607 92.3122 27.0789C92.259 25.5429 93.4323 24.3142 94.9643 24.3023C96.4972 24.2905 97.7093 25.4995 97.6897 27.0195C97.6701 28.4843 96.5029 29.638 95.0242 29.6535Z" fill="white" fill-opacity="0.3"/>
<path d="M173.459 29.6415C171.989 29.6291 170.822 28.4836 170.796 27.0271C170.768 25.5231 171.984 24.3033 173.502 24.3115C175.027 24.3198 176.189 25.5319 176.144 27.069C176.101 28.5431 174.942 29.6539 173.459 29.6415Z" fill="white" fill-opacity="0.3"/>
<path d="M110.733 37.4103C109.261 37.432 108.059 36.2984 108.011 34.8424C107.962 33.3451 109.195 32.0912 110.706 32.1005C112.179 32.1098 113.328 33.2645 113.336 34.7448C113.344 36.2344 112.217 37.3886 110.733 37.4103Z" fill="white" fill-opacity="0.3"/>
<path d="M157.785 37.4011C156.31 37.3991 155.169 36.265 155.156 34.7888C155.142 33.3158 156.27 32.1394 157.725 32.1094C159.223 32.0784 160.477 33.3143 160.454 34.7981C160.431 36.2381 159.237 37.4032 157.785 37.4011Z" fill="white" fill-opacity="0.3"/>
<path d="M74.0331 11.1129C74.0517 12.5461 72.8561 13.7582 71.4068 13.7753C69.939 13.7928 68.7718 12.6448 68.7584 11.1707C68.745 9.69614 69.8909 8.51503 71.3485 8.5016C72.7838 8.48765 74.0145 9.68478 74.0331 11.1129Z" fill="white" fill-opacity="0.3"/>
<path d="M199.709 11.1273C199.717 12.6049 198.546 13.7804 197.08 13.7664C195.631 13.753 194.42 12.5156 194.457 11.087C194.493 9.71211 195.675 8.53566 197.05 8.50672C198.504 8.47676 199.701 9.65683 199.709 11.1273Z" fill="white" fill-opacity="0.3"/>
<path d="M76.5392 19.0136C76.5619 17.5344 77.7259 16.4101 79.2067 16.4385C80.6575 16.4664 81.8443 17.6853 81.8112 19.1128C81.7787 20.5409 80.5366 21.7308 79.1065 21.7044C77.6474 21.6776 76.5164 20.4923 76.5392 19.0136Z" fill="white" fill-opacity="0.3"/>
<path d="M191.828 19.0457C191.838 20.4784 190.617 21.6889 189.168 21.6802C187.751 21.6714 186.619 20.5647 186.579 19.148C186.538 17.6537 187.651 16.483 189.136 16.4602C190.607 16.4375 191.818 17.6005 191.828 19.0457Z" fill="white" fill-opacity="0.3"/>
<path d="M102.761 32.1355C104.176 32.1298 105.415 33.3734 105.4 34.7839C105.384 36.2094 104.143 37.4055 102.712 37.374C101.315 37.343 100.197 36.2099 100.177 34.8041C100.155 33.3398 101.316 32.1411 102.761 32.1355Z" fill="white" fill-opacity="0.3"/>
<path d="M66.0492 3.32481C66.0683 4.79061 64.9084 5.97688 63.4565 5.9774C62.0269 5.97791 60.8034 4.7472 60.8251 3.3305C60.8458 1.97114 62.0207 0.779696 63.3821 0.738363C64.8211 0.693929 66.0306 1.86677 66.0492 3.32481Z" fill="white" fill-opacity="0.3"/>
<path d="M89.6679 27.008C89.655 28.4681 88.4589 29.6322 87.0101 29.595C85.6332 29.5598 84.4707 28.3927 84.4454 27.0204C84.4195 25.612 85.6513 24.3596 87.0664 24.3554C88.51 24.3513 89.6813 25.5448 89.6679 27.008Z" fill="white" fill-opacity="0.3"/>
<path d="M168.29 34.7767C168.282 36.1841 167.157 37.3343 165.758 37.3642C164.328 37.3947 163.084 36.1707 163.095 34.7437C163.106 33.3729 164.282 32.1794 165.653 32.1464C167.092 32.1118 168.298 33.3151 168.29 34.7767Z" fill="white" fill-opacity="0.3"/>
<path d="M207.609 3.37079C207.605 4.75857 206.432 5.94226 205.047 5.95672C203.6 5.97222 202.407 4.74513 202.449 3.28502C202.489 1.88795 203.684 0.73474 205.064 0.761607C206.445 0.78899 207.614 1.98715 207.609 3.37079Z" fill="white" fill-opacity="0.3"/>
<path d="M181.449 29.5749C180.061 29.6013 178.872 28.46 178.831 27.0608C178.79 25.6007 179.986 24.3648 181.427 24.3798C182.805 24.3943 183.987 25.5868 183.993 26.9688C184 28.353 182.834 29.5486 181.449 29.5749Z" fill="white" fill-opacity="0.3"/>
<path d="M134.201 45.219C132.767 45.2345 131.622 44.1293 131.605 42.7111C131.587 41.2954 132.71 40.1505 134.134 40.1345C135.577 40.1184 136.707 41.2117 136.727 42.6439C136.745 44.0782 135.642 45.204 134.201 45.219Z" fill="white" fill-opacity="0.3"/>
<path d="M126.384 45.2063C124.964 45.2053 123.833 44.0831 123.834 42.6772C123.835 41.2755 124.973 40.1461 126.385 40.145C127.814 40.1445 128.919 41.2492 128.918 42.6793C128.918 44.1162 127.824 45.2074 126.384 45.2063Z" fill="white" fill-opacity="0.3"/>
<path d="M142.248 40.1471C143.644 40.223 144.725 41.4393 144.638 42.8343C144.552 44.235 143.364 45.2745 141.935 45.2022C140.516 45.1298 139.48 43.9601 139.562 42.5217C139.642 41.1039 140.812 40.069 142.248 40.1471Z" fill="white" fill-opacity="0.3"/>
<path d="M115.959 42.5525C116.02 41.1306 117.201 40.0725 118.633 40.1572C119.976 40.2368 121.043 41.3926 121.012 42.7339C120.98 44.1372 119.806 45.2351 118.382 45.1937C116.955 45.1534 115.896 43.9992 115.959 42.5525Z" fill="white" fill-opacity="0.3"/>
<path d="M94.9611 32.2164C96.3623 32.1963 97.5088 33.3469 97.5047 34.7693C97.5005 36.1322 96.4326 37.2519 95.082 37.3092C93.7139 37.3676 92.4832 36.2051 92.448 34.8215C92.4119 33.4332 93.5666 32.2366 94.9611 32.2164Z" fill="white" fill-opacity="0.3"/>
<path d="M73.868 18.9987C73.8965 20.3978 72.876 21.5045 71.5012 21.5644C70.0752 21.627 68.8786 20.528 68.8413 19.1216C68.8041 17.7287 69.9713 16.544 71.3782 16.546C72.7546 16.5486 73.8396 17.6171 73.868 18.9987Z" fill="white" fill-opacity="0.3"/>
<path d="M152.5 42.6939C152.492 44.0863 151.436 45.1626 150.055 45.1848C148.633 45.2075 147.462 44.0626 147.473 42.6614C147.484 41.2607 148.678 40.1209 150.088 40.1643C151.459 40.2067 152.507 41.3061 152.5 42.6939Z" fill="white" fill-opacity="0.3"/>
<path d="M176.02 34.7573C176.022 36.1384 174.798 37.334 173.424 37.2932C172.066 37.2523 170.992 36.1369 170.989 34.7651C170.987 33.3799 172.041 32.284 173.416 32.2427C174.814 32.2014 176.017 33.3629 176.02 34.7573Z" fill="white" fill-opacity="0.3"/>
<path d="M197.088 16.5558C198.482 16.5481 199.655 17.7318 199.623 19.1118C199.592 20.45 198.47 21.5474 197.124 21.5572C195.695 21.5675 194.598 20.45 194.623 19.0095C194.647 17.6419 195.731 16.5631 197.088 16.5558Z" fill="white" fill-opacity="0.3"/>
<path d="M160.255 42.6436C160.272 44.0216 159.215 45.1314 157.852 45.1675C156.455 45.2042 155.253 44.0267 155.276 42.6441C155.299 41.3152 156.45 40.1837 157.782 40.1811C159.135 40.1786 160.237 41.2765 160.255 42.6436Z" fill="white" fill-opacity="0.3"/>
<path d="M113.199 42.6885C113.192 44.0215 112.059 45.1525 110.717 45.1664C109.296 45.1809 108.181 44.0334 108.221 42.5986C108.258 41.2356 109.385 40.1542 110.737 40.1816C112.067 40.209 113.206 41.3689 113.199 42.6885Z" fill="white" fill-opacity="0.3"/>
<path d="M81.634 27.0177C81.6169 28.3828 80.5371 29.4735 79.1839 29.4921C77.808 29.5112 76.6104 28.3166 76.6316 26.9464C76.6533 25.5587 77.8509 24.4385 79.2547 24.4938C80.6342 24.5481 81.6515 25.6274 81.634 27.0177Z" fill="white" fill-opacity="0.3"/>
<path d="M63.4897 13.6526C62.1386 13.6738 61.0231 12.6059 60.9755 11.2465C60.9254 9.79725 61.9898 8.66988 63.424 8.65283C64.7756 8.63733 65.9103 9.70167 65.9728 11.0429C66.0358 12.4106 64.8749 13.6309 63.4897 13.6526Z" fill="white" fill-opacity="0.3"/>
<path d="M205.007 8.69324C206.402 8.68755 207.473 9.74259 207.48 11.1299C207.486 12.514 206.417 13.5939 205.033 13.6006C203.673 13.6073 202.534 12.4964 202.527 11.1557C202.52 9.81183 203.641 8.6984 205.007 8.69324Z" fill="white" fill-opacity="0.3"/>
<path d="M191.641 26.9981C191.633 28.3807 190.551 29.4461 189.164 29.4368C187.807 29.428 186.676 28.297 186.688 26.9619C186.701 25.6181 187.834 24.5212 189.2 24.53C190.593 24.5393 191.649 25.6072 191.641 26.9981Z" fill="white" fill-opacity="0.3"/>
<path d="M58.1438 3.42345C58.1046 4.76886 56.9746 5.82907 55.6121 5.7991C54.2393 5.76913 53.1962 4.67534 53.2287 3.29997C53.2608 1.92873 54.3504 0.899003 55.7361 0.930003C57.096 0.95997 58.1831 2.08579 58.1438 3.42345Z" fill="white" fill-opacity="0.3"/>
<path d="M87.131 32.3422C88.4986 32.3696 89.5717 33.5006 89.5139 34.8542C89.4581 36.1635 88.3984 37.1746 87.0783 37.1767C85.6905 37.1787 84.6195 36.1082 84.635 34.7333C84.6494 33.3616 85.7427 32.3143 87.131 32.3422Z" fill="white" fill-opacity="0.3"/>
<path d="M105.207 42.6871C105.202 44.0413 104.07 45.1588 102.73 45.1335C101.39 45.1077 100.281 43.939 100.327 42.6013C100.371 41.3132 101.468 40.2329 102.746 40.2184C104.083 40.2034 105.212 41.3349 105.207 42.6871Z" fill="white" fill-opacity="0.3"/>
<path d="M165.742 45.1199C164.457 45.1421 163.337 44.0813 163.28 42.7886C163.221 41.4391 164.318 40.2626 165.662 40.2332C166.942 40.2053 168.065 41.2717 168.123 42.5701C168.182 43.9248 167.089 45.0966 165.742 45.1199Z" fill="white" fill-opacity="0.3"/>
<path d="M212.764 5.7627C211.433 5.74565 210.397 4.71386 210.381 3.39119C210.365 2.01426 211.454 0.936486 212.842 0.955603C214.161 0.974203 215.209 2.01788 215.227 3.33125C215.245 4.70249 214.152 5.78027 212.764 5.7627Z" fill="white" fill-opacity="0.3"/>
<path d="M183.829 34.6981C183.864 36.0156 182.855 37.0975 181.537 37.158C180.137 37.222 179.021 36.1985 178.987 34.82C178.954 33.4973 179.958 32.416 181.275 32.3565C182.663 32.2935 183.793 33.3305 183.829 34.6981Z" fill="white" fill-opacity="0.3"/>
<path d="M65.8072 19.0426C65.817 20.3642 64.7723 21.4404 63.4703 21.4508C62.19 21.4606 61.0761 20.3658 61.0626 19.0834C61.0487 17.7927 62.1285 16.6995 63.43 16.6855C64.7486 16.6721 65.7974 17.7116 65.8072 19.0426Z" fill="white" fill-opacity="0.3"/>
<path d="M134.176 48.0841C135.479 48.0883 136.563 49.1717 136.56 50.4644C136.556 51.7463 135.45 52.8489 134.169 52.8494C132.868 52.8499 131.814 51.7783 131.815 50.4577C131.817 49.1257 132.857 48.0795 134.176 48.0841Z" fill="white" fill-opacity="0.3"/>
<path d="M58.0145 11.1563C58.0078 12.496 56.9558 13.5267 55.6239 13.4978C54.3745 13.4704 53.3298 12.4376 53.2973 11.1971C53.2637 9.91523 54.357 8.7925 55.6523 8.77907C56.9755 8.76512 58.0207 9.81706 58.0145 11.1563Z" fill="white" fill-opacity="0.3"/>
<path d="M197.15 29.335C195.842 29.3582 194.731 28.2887 194.721 26.9965C194.712 25.7111 195.821 24.6095 197.116 24.6173C198.385 24.625 199.398 25.6181 199.439 26.8937C199.481 28.2448 198.481 29.3112 197.15 29.335Z" fill="white" fill-opacity="0.3"/>
<path d="M71.3542 29.3451C70.0186 29.3347 69.0069 28.3009 69.0183 26.9575C69.0297 25.623 70.0734 24.5912 71.3981 24.6057C72.6929 24.6196 73.7774 25.717 73.7655 27.0015C73.7536 28.2936 72.6619 29.3549 71.3542 29.3451Z" fill="white" fill-opacity="0.3"/>
<path d="M144.424 50.4904C144.409 51.8147 143.325 52.8671 142.018 52.8242C140.776 52.7834 139.733 51.7335 139.708 50.4992C139.683 49.2034 140.76 48.1189 142.079 48.1138C143.418 48.1091 144.439 49.1445 144.424 50.4904Z" fill="white" fill-opacity="0.3"/>
<path d="M79.0901 32.4054C80.3621 32.3682 81.4988 33.4547 81.52 34.7283C81.5412 35.9993 80.4396 37.1055 79.1521 37.1055C77.8935 37.1055 76.8746 36.1207 76.8281 34.8595C76.7801 33.5364 77.7871 32.4436 79.0901 32.4054Z" fill="white" fill-opacity="0.3"/>
<path d="M205.077 21.4285C203.771 21.4636 202.693 20.406 202.684 19.0808C202.675 17.786 203.621 16.78 204.904 16.7211C206.225 16.6602 207.345 17.6723 207.4 18.9769C207.453 20.252 206.372 21.3939 205.077 21.4285Z" fill="white" fill-opacity="0.3"/>
<path d="M128.767 50.3923C128.809 51.6685 127.718 52.8036 126.426 52.8269C125.175 52.8496 124.117 51.8555 124.054 50.5979C123.986 49.2396 124.951 48.1696 126.29 48.1174C127.61 48.0663 128.725 49.0898 128.767 50.3923Z" fill="white" fill-opacity="0.3"/>
<path d="M97.3693 42.6869C97.3641 43.975 96.2466 45.0657 94.9539 45.0445C93.641 45.0233 92.618 43.9388 92.6531 42.6058C92.6872 41.3198 93.6777 40.3475 94.9652 40.3356C96.2879 40.3237 97.3745 41.387 97.3693 42.6869Z" fill="white" fill-opacity="0.3"/>
<path d="M189.135 37.0938C187.826 37.0659 186.811 35.9654 186.871 34.6406C186.929 33.3903 187.997 32.3833 189.234 32.4143C190.459 32.4448 191.518 33.5179 191.532 34.7398C191.545 36.016 190.42 37.1212 189.135 37.0938Z" fill="white" fill-opacity="0.3"/>
<path d="M212.805 13.4777C211.551 13.4787 210.521 12.4712 210.489 11.2121C210.455 9.89559 211.507 8.79766 212.803 8.79818C214.081 8.7987 215.19 9.94002 215.147 11.21C215.104 12.4464 214.04 13.4766 212.805 13.4777Z" fill="white" fill-opacity="0.3"/>
<path d="M118.502 52.7975C117.195 52.8156 116.084 51.7151 116.106 50.4255C116.128 49.1746 117.165 48.1531 118.433 48.1345C119.724 48.1154 120.747 49.0764 120.796 50.3557C120.848 51.6954 119.83 52.7789 118.502 52.7975Z" fill="white" fill-opacity="0.3"/>
<path d="M150.043 48.1345C151.311 48.1531 152.348 49.1746 152.37 50.4254C152.392 51.7156 151.281 52.8161 149.974 52.798C148.646 52.7794 147.628 51.6959 147.68 50.3562C147.729 49.0764 148.751 48.1154 150.043 48.1345Z" fill="white" fill-opacity="0.3"/>
<path d="M175.81 42.66C175.819 43.9951 174.756 45.0507 173.431 45.0212C172.179 44.9933 171.132 43.9424 171.119 42.7003C171.105 41.3983 172.199 40.335 173.53 40.3572C174.821 40.3784 175.801 41.3683 175.81 42.66Z" fill="white" fill-opacity="0.3"/>
<path d="M108.369 50.3433C108.442 49.0341 109.574 48.07 110.908 48.1795C112.171 48.2829 113.082 49.3617 112.986 50.642C112.891 51.9109 111.84 52.8141 110.54 52.7412C109.278 52.6704 108.298 51.5885 108.369 50.3433Z" fill="white" fill-opacity="0.3"/>
<path d="M50.0519 3.3242C50.0741 4.57145 49.0367 5.65025 47.793 5.6735C46.5541 5.69675 45.483 4.65205 45.4634 3.40067C45.4437 2.1493 46.474 1.07307 47.7161 1.04827C48.9509 1.02347 50.0302 2.07541 50.0519 3.3242Z" fill="white" fill-opacity="0.3"/>
<path d="M157.823 48.1843C159.097 48.2008 160.103 49.2316 160.08 50.4974C160.057 51.7715 159.034 52.7485 157.744 52.7284C156.454 52.7082 155.472 51.7007 155.494 50.4189C155.516 49.1437 156.534 48.1672 157.823 48.1843Z" fill="white" fill-opacity="0.3"/>
<path d="M87.0488 44.9343C85.7576 44.9225 84.7775 43.9067 84.811 42.6155C84.8431 41.3848 85.8041 40.4352 87.0353 40.4171C88.3187 40.3985 89.3479 41.3998 89.3526 42.6713C89.3567 43.947 88.3399 44.9462 87.0488 44.9343Z" fill="white" fill-opacity="0.3"/>
<path d="M181.383 40.4301C182.662 40.4192 183.652 41.4102 183.643 42.6941C183.635 43.9285 182.711 44.8817 181.486 44.9199C180.207 44.9597 179.165 43.9889 179.136 42.7303C179.106 41.4779 180.119 40.4409 181.383 40.4301Z" fill="white" fill-opacity="0.3"/>
<path d="M222.99 3.31714C223.017 4.54836 221.966 5.63079 220.736 5.64009C219.542 5.64939 218.541 4.68786 218.485 3.47834C218.426 2.19855 219.384 1.13834 220.643 1.08926C221.871 1.04172 222.964 2.07868 222.99 3.31714Z" fill="white" fill-opacity="0.3"/>
<path d="M165.718 48.2199C166.97 48.2261 168.01 49.2993 167.963 50.5356C167.917 51.7374 166.916 52.6896 165.701 52.6886C164.412 52.6871 163.447 51.6811 163.487 50.3801C163.523 49.1489 164.489 48.2137 165.718 48.2199Z" fill="white" fill-opacity="0.3"/>
<path d="M104.989 50.4916C104.973 51.7316 104.034 52.6745 102.801 52.689C101.53 52.7035 100.491 51.6753 100.513 50.4239C100.535 49.1777 101.614 48.1692 102.87 48.2219C104.091 48.273 105.005 49.2516 104.989 50.4916Z" fill="white" fill-opacity="0.3"/>
<path d="M63.465 29.2381C62.2632 29.2448 61.2722 28.2761 61.2361 27.0583C61.1978 25.7682 62.1805 24.7364 63.4505 24.7338C64.6419 24.7317 65.6655 25.7155 65.7104 26.9049C65.7564 28.134 64.7003 29.2314 63.465 29.2381Z" fill="white" fill-opacity="0.3"/>
<path d="M71.4319 36.9967C70.2482 37.0313 69.1927 36.0502 69.1322 34.8587C69.0723 33.6735 70.0322 32.6221 71.2376 32.5523C72.5283 32.4779 73.5647 33.4446 73.5781 34.7347C73.5905 35.9644 72.645 36.9611 71.4319 36.9967Z" fill="white" fill-opacity="0.3"/>
<path d="M207.225 26.941C207.244 28.1733 206.309 29.1715 205.094 29.2154C203.858 29.2604 202.759 28.1898 202.776 26.955C202.792 25.763 203.803 24.7731 205.01 24.7679C206.246 24.7628 207.206 25.7041 207.225 26.941Z" fill="white" fill-opacity="0.3"/>
<path d="M55.7267 21.2792C54.4903 21.3056 53.5107 20.3776 53.472 19.1438C53.4312 17.8475 54.4206 16.8203 55.6973 16.8333C56.8887 16.8451 57.9081 17.8609 57.9174 19.0456C57.9267 20.2376 56.9301 21.2539 55.7267 21.2792Z" fill="white" fill-opacity="0.3"/>
<path d="M199.333 34.8027C199.305 35.9942 198.262 36.9898 197.065 36.9681C195.839 36.9464 194.893 35.957 194.913 34.7196C194.933 33.4796 195.9 32.5506 197.148 32.5728C198.367 32.5945 199.36 33.6087 199.333 34.8027Z" fill="white" fill-opacity="0.3"/>
<path d="M214.991 19.0174C215.012 20.243 214.085 21.2303 212.876 21.2706C211.637 21.312 210.554 20.2606 210.572 19.0345C210.589 17.8658 211.618 16.8479 212.79 16.8417C213.993 16.8355 214.969 17.8007 214.991 19.0174Z" fill="white" fill-opacity="0.3"/>
<path d="M79.1867 44.8653C78.0015 44.8844 76.9676 43.8645 76.9691 42.6766C76.9702 41.496 78.019 40.4612 79.1908 40.4854C80.3332 40.5087 81.2859 41.4604 81.3185 42.6126C81.3531 43.8283 80.39 44.8456 79.1867 44.8653Z" fill="white" fill-opacity="0.3"/>
<path d="M49.9331 11.1638C49.9233 12.3863 48.9587 13.3292 47.7321 13.3168C46.5236 13.3044 45.529 12.3067 45.543 11.1215C45.5569 9.9264 46.5556 8.9654 47.7745 8.97418C49.0072 8.98193 49.9434 9.93157 49.9331 11.1638Z" fill="white" fill-opacity="0.3"/>
<path d="M97.1561 50.5071C97.1307 51.7213 96.1088 52.6926 94.9091 52.6425C93.7708 52.5944 92.8191 51.6153 92.8067 50.4787C92.7938 49.3001 93.8308 48.2559 95.0057 48.2652C96.2013 48.2751 97.1809 49.296 97.1561 50.5071Z" fill="white" fill-opacity="0.3"/>
<path d="M173.424 52.6457C172.222 52.6106 171.271 51.5804 171.32 50.3646C171.366 49.2156 172.335 48.2716 173.475 48.2654C174.65 48.2587 175.685 49.305 175.669 50.483C175.654 51.6723 174.608 52.6804 173.424 52.6457Z" fill="white" fill-opacity="0.3"/>
<path d="M191.335 42.618C191.368 43.8265 190.374 44.8542 189.177 44.8495C188.042 44.8454 187.062 43.8833 187.028 42.7389C186.993 41.5444 188.009 40.495 189.194 40.5017C190.333 40.509 191.304 41.4689 191.335 42.618Z" fill="white" fill-opacity="0.3"/>
<path d="M136.333 58.41C136.317 59.6319 135.336 60.5614 134.099 60.5268C132.933 60.4942 132.003 59.5653 131.982 58.4126C131.96 57.2067 132.938 56.2276 134.166 56.226C135.399 56.225 136.349 57.1829 136.333 58.41Z" fill="white" fill-opacity="0.3"/>
<path d="M144.247 58.3707C144.251 59.5363 143.337 60.473 142.162 60.5076C140.916 60.5443 139.935 59.6091 139.933 58.3826C139.931 57.1591 140.911 56.2131 142.149 56.243C143.322 56.272 144.243 57.2061 144.247 58.3707Z" fill="white" fill-opacity="0.3"/>
<path d="M128.542 58.316C128.575 59.4868 127.69 60.4441 126.52 60.5051C125.27 60.5702 124.27 59.6655 124.235 58.4364C124.201 57.2713 125.095 56.3041 126.26 56.2441C127.502 56.1811 128.507 57.0935 128.542 58.316Z" fill="white" fill-opacity="0.3"/>
<path d="M152.149 58.3562C152.16 59.5197 151.238 60.4658 150.065 60.4937C148.868 60.5221 147.931 59.6505 147.886 58.4668C147.838 57.2257 148.785 56.2477 150.024 56.2565C151.197 56.2652 152.137 57.1937 152.149 58.3562Z" fill="white" fill-opacity="0.3"/>
<path d="M118.486 60.4924C117.3 60.5001 116.358 59.6011 116.328 58.4324C116.297 57.2121 117.278 56.2355 118.513 56.2578C119.691 56.2784 120.6 57.2095 120.594 58.3906C120.588 59.5748 119.675 60.4846 118.486 60.4924Z" fill="white" fill-opacity="0.3"/>
<path d="M39.944 1.2649C41.0946 1.24888 42.0691 2.18302 42.0928 3.32435C42.1166 4.46515 41.1747 5.43081 40.0179 5.45148C38.8373 5.47266 37.915 4.57934 37.898 3.39823C37.8809 2.21454 38.7763 1.28143 39.944 1.2649Z" fill="white" fill-opacity="0.3"/>
<path d="M110.721 60.4656C109.559 60.4817 108.594 59.5604 108.573 58.4145C108.552 57.2783 109.5 56.3018 110.647 56.2796C111.814 56.2563 112.749 57.1646 112.768 58.3401C112.786 59.5263 111.898 60.4496 110.721 60.4656Z" fill="white" fill-opacity="0.3"/>
<path d="M159.903 58.4221C159.877 59.5686 158.91 60.4851 157.747 60.4655C156.569 60.4459 155.686 59.5215 155.709 58.3322C155.732 57.1567 156.669 56.2526 157.837 56.2794C158.983 56.3053 159.929 57.2859 159.903 58.4221Z" fill="white" fill-opacity="0.3"/>
<path d="M61.3511 34.7498C61.3578 33.6163 62.3534 32.6522 63.4942 32.6744C64.6593 32.6966 65.5521 33.653 65.5139 34.8377C65.4777 35.962 64.5952 36.8279 63.4751 36.8372C62.3198 36.847 61.3444 35.8881 61.3511 34.7498Z" fill="white" fill-opacity="0.3"/>
<path d="M55.6524 29.0582C54.4966 29.0453 53.5398 28.0646 53.5739 26.9269C53.608 25.7861 54.615 24.8484 55.7573 24.8949C56.8651 24.9398 57.7294 25.8424 57.7372 26.9626C57.7455 28.1457 56.8248 29.0711 55.6524 29.0582Z" fill="white" fill-opacity="0.3"/>
<path d="M205.014 32.6838C206.15 32.6802 207.143 33.6944 207.106 34.8187C207.069 35.9088 206.129 36.8197 205.034 36.8264C203.866 36.8337 202.943 35.8809 202.974 34.6998C203.003 33.5833 203.909 32.6874 205.014 32.6838Z" fill="white" fill-opacity="0.3"/>
<path d="M212.835 29.0467C211.723 29.0648 210.803 28.1942 210.756 27.0787C210.707 25.8991 211.615 24.92 212.774 24.904C213.909 24.8885 214.912 25.8914 214.888 27.0177C214.864 28.1038 213.929 29.0286 212.835 29.0467Z" fill="white" fill-opacity="0.3"/>
<path d="M102.81 60.4325C101.705 60.4548 100.773 59.5625 100.738 58.4485C100.703 57.3325 101.565 56.3803 102.667 56.3173C103.792 56.2532 104.836 57.2416 104.838 58.3746C104.84 59.4555 103.898 60.4108 102.81 60.4325Z" fill="white" fill-opacity="0.3"/>
<path d="M89.1307 50.5186C89.1017 51.6956 88.1366 52.6034 86.9767 52.545C85.8885 52.4902 84.9787 51.5504 84.9704 50.4732C84.9616 49.3386 85.9361 48.3822 87.0903 48.392C88.2776 48.4018 89.1601 49.3215 89.1307 50.5186Z" fill="white" fill-opacity="0.3"/>
<path d="M183.503 50.392C183.545 51.5131 182.575 52.5274 181.441 52.5506C180.336 52.5733 179.412 51.7121 179.347 50.5991C179.277 49.3989 180.12 48.4488 181.303 48.3945C182.459 48.3418 183.462 49.2522 183.503 50.392Z" fill="white" fill-opacity="0.3"/>
<path d="M47.7244 21.1179C46.5449 21.0993 45.6578 20.1486 45.7094 18.9598C45.7585 17.8324 46.6518 16.9995 47.7926 17.0166C48.8983 17.0331 49.82 17.9378 49.8407 19.0269C49.8624 20.16 48.8735 21.1365 47.7244 21.1179Z" fill="white" fill-opacity="0.3"/>
<path d="M73.4352 42.7327C73.4017 43.8286 72.467 44.7147 71.3551 44.7049C70.1678 44.694 69.2745 43.7408 69.3406 42.5545C69.4032 41.4333 70.3208 40.6134 71.4641 40.6568C72.5714 40.6991 73.4683 41.6436 73.4352 42.7327Z" fill="white" fill-opacity="0.3"/>
<path d="M165.7 56.3309C166.794 56.3283 167.724 57.264 167.727 58.3718C167.731 59.4852 166.816 60.4136 165.711 60.4178C164.618 60.4219 163.67 59.4785 163.667 58.3831C163.664 57.2945 164.616 56.3335 165.7 56.3309Z" fill="white" fill-opacity="0.3"/>
<path d="M197.076 40.6735C198.215 40.6611 199.108 41.5234 199.123 42.6513C199.138 43.7839 198.269 44.6684 197.13 44.6818C195.998 44.6948 195.086 43.8195 195.069 42.7056C195.053 41.5916 195.947 40.6859 197.076 40.6735Z" fill="white" fill-opacity="0.3"/>
<path d="M37.9675 11.1557C37.9602 10.0531 38.9052 9.10298 39.9954 9.11487C41.0892 9.12727 42.0068 10.0924 41.9768 11.1991C41.9484 12.2526 41.0654 13.1408 40.0212 13.1681C38.9305 13.1966 37.9747 12.2598 37.9675 11.1557Z" fill="white" fill-opacity="0.3"/>
<path d="M96.932 58.5024C96.8736 59.5569 95.97 60.3954 94.9314 60.3588C93.8377 60.32 92.9397 59.3352 93.0136 58.2554C93.0849 57.2122 94.003 56.3732 95.0415 56.4021C96.1518 56.4331 96.995 57.3693 96.932 58.5024Z" fill="white" fill-opacity="0.3"/>
<path d="M79.1568 52.4263C78.0217 52.4278 77.1216 51.5118 77.1598 50.3947C77.196 49.333 78.0728 48.4898 79.1449 48.4846C80.2903 48.4794 81.1552 49.3707 81.1222 50.5213C81.0907 51.6177 80.2578 52.4247 79.1568 52.4263Z" fill="white" fill-opacity="0.3"/>
<path d="M175.467 58.3958C175.457 59.4808 174.48 60.4118 173.404 60.3617C172.361 60.3126 171.528 59.4224 171.536 58.3632C171.543 57.2948 172.382 56.4304 173.438 56.4025C174.529 56.3735 175.477 57.3046 175.467 58.3958Z" fill="white" fill-opacity="0.3"/>
<path d="M136.096 66.2036C136.073 67.2731 135.211 68.122 134.155 68.1147C133.12 68.1075 132.217 67.2136 132.202 66.1829C132.186 65.0943 133.141 64.1751 134.244 64.217C135.319 64.2583 136.118 65.116 136.096 66.2036Z" fill="white" fill-opacity="0.3"/>
<path d="M189.149 48.4969C190.225 48.4783 191.08 49.2822 191.128 50.3585C191.18 51.5055 190.346 52.3998 189.211 52.4138C188.097 52.4272 187.18 51.5174 187.203 50.421C187.225 49.3794 188.1 48.515 189.149 48.4969Z" fill="white" fill-opacity="0.3"/>
<path d="M142.06 64.2174C143.113 64.2019 144.014 65.0497 144.053 66.0929C144.095 67.1727 143.141 68.1379 142.055 68.1167C141.003 68.096 140.159 67.2228 140.159 66.1564C140.159 65.0714 140.981 64.2329 142.06 64.2174Z" fill="white" fill-opacity="0.3"/>
<path d="M128.315 66.2051C128.292 67.2746 127.43 68.123 126.373 68.1147C125.339 68.1064 124.436 67.2126 124.422 66.1818C124.407 65.0932 125.362 64.1746 126.466 64.2175C127.54 64.2588 128.338 65.117 128.315 66.2051Z" fill="white" fill-opacity="0.3"/>
<path d="M55.7394 36.6838C54.6683 36.7216 53.7957 35.899 53.7652 34.8243C53.7342 33.7295 54.5304 32.8796 55.6149 32.8496C56.6772 32.8202 57.585 33.6556 57.6242 34.6998C57.663 35.7254 56.7877 36.6472 55.7394 36.6838Z" fill="white" fill-opacity="0.3"/>
<path d="M47.7722 28.9072C46.7306 28.916 45.8166 28.0309 45.8037 27.0012C45.7908 25.9652 46.6738 25.0823 47.7329 25.0719C48.8262 25.0611 49.6576 25.8733 49.6674 26.9619C49.6772 28.0397 48.8407 28.8984 47.7722 28.9072Z" fill="white" fill-opacity="0.3"/>
<path d="M118.467 64.2492C119.532 64.2482 120.42 65.1131 120.422 66.1552C120.425 67.1828 119.52 68.0798 118.476 68.0839C117.404 68.0886 116.56 67.2433 116.557 66.164C116.555 65.0717 117.375 64.2502 118.467 64.2492Z" fill="white" fill-opacity="0.3"/>
<path d="M65.3789 42.7273C65.3484 43.7736 64.4168 44.6411 63.3726 44.5956C62.314 44.5496 61.4977 43.6341 61.5586 42.5605C61.6149 41.5628 62.4819 40.7438 63.4708 40.7537C64.5078 40.764 65.4094 41.6961 65.3789 42.7273Z" fill="white" fill-opacity="0.3"/>
<path d="M206.904 42.7127C206.887 43.7212 206.058 44.5608 205.056 44.5815C204.012 44.6032 203.105 43.6938 203.125 42.645C203.144 41.6494 203.995 40.7932 204.986 40.7721C206.026 40.7493 206.922 41.655 206.904 42.7127Z" fill="white" fill-opacity="0.3"/>
<path d="M33.9812 3.29548C34.0241 4.33347 33.153 5.23454 32.0902 5.25159C31.0537 5.26813 30.2307 4.51844 30.1645 3.49801C30.0932 2.40526 30.8713 1.52847 31.9563 1.47835C33.0315 1.42875 33.9378 2.24147 33.9812 3.29548Z" fill="white" fill-opacity="0.3"/>
<path d="M212.863 32.8728C213.949 32.9038 214.745 33.7662 214.694 34.8579C214.647 35.8835 213.84 36.6487 212.805 36.6507C211.743 36.6528 210.854 35.7703 210.873 34.7313C210.891 33.6876 211.796 32.8423 212.863 32.8728Z" fill="white" fill-opacity="0.3"/>
<path d="M149.842 68.0414C148.784 67.9572 147.971 66.9884 148.094 65.9597C148.222 64.898 149.155 64.1684 150.238 64.2847C151.257 64.3942 151.963 65.2457 151.899 66.2868C151.832 67.3599 150.931 68.1282 149.842 68.0414Z" fill="white" fill-opacity="0.3"/>
<path d="M71.3795 52.3439C70.3824 52.3476 69.5345 51.5085 69.5128 50.4974C69.4916 49.4883 70.3007 48.6193 71.3031 48.5743C72.3405 48.5278 73.2602 49.4356 73.2426 50.4896C73.2261 51.4904 72.3721 52.3403 71.3795 52.3439Z" fill="white" fill-opacity="0.3"/>
<path d="M39.9753 20.9458C38.9776 20.9458 38.1328 20.1052 38.1142 19.0941C38.0956 18.0856 38.9084 17.2175 39.9102 17.1762C40.9487 17.1333 41.8647 18.0432 41.8446 19.0977C41.825 20.0975 40.9668 20.9458 39.9753 20.9458Z" fill="white" fill-opacity="0.3"/>
<path d="M110.666 68.0244C109.627 68.012 108.83 67.2308 108.807 66.2026C108.783 65.1176 109.617 64.2806 110.712 64.2915C111.729 64.3013 112.561 65.1078 112.588 66.1112C112.617 67.1647 111.741 68.0368 110.666 68.0244Z" fill="white" fill-opacity="0.3"/>
<path d="M88.9727 58.3901C88.9655 59.4441 88.0644 60.2863 86.9898 60.2439C85.9564 60.2031 85.1804 59.3935 85.1876 58.3638C85.1954 57.2798 86.0535 56.4723 87.1541 56.5131C88.1636 56.5503 88.98 57.3924 88.9727 58.3901Z" fill="white" fill-opacity="0.3"/>
<path d="M181.426 60.223C180.389 60.2349 179.571 59.4558 179.543 58.4307C179.515 57.403 180.292 56.5712 181.318 56.5304C182.411 56.487 183.282 57.3157 183.275 58.3919C183.267 59.4155 182.464 60.2111 181.426 60.223Z" fill="white" fill-opacity="0.3"/>
<path d="M155.923 66.1054C155.952 65.0819 156.773 64.2976 157.804 64.3074C158.89 64.3177 159.719 65.2012 159.65 66.2764C159.585 67.3015 158.751 68.0393 157.702 68C156.672 67.9613 155.894 67.1325 155.923 66.1054Z" fill="white" fill-opacity="0.3"/>
<path d="M198.93 50.4128C198.953 51.4405 198.156 52.2945 197.146 52.3214C196.159 52.3478 195.276 51.5035 195.249 50.5069C195.223 49.5128 196.058 48.6262 197.052 48.5957C198.05 48.5652 198.907 49.3934 198.93 50.4128Z" fill="white" fill-opacity="0.3"/>
<path d="M102.827 64.335C103.833 64.364 104.659 65.2485 104.609 66.2421C104.558 67.2527 103.682 68.0266 102.656 67.9672C101.675 67.9104 100.957 67.1333 100.966 66.1403C100.975 65.1002 101.795 64.3051 102.827 64.335Z" fill="white" fill-opacity="0.3"/>
<path d="M167.489 66.1749C167.481 67.1669 166.734 67.9326 165.752 67.9564C164.74 67.9812 163.868 67.1339 163.88 66.1393C163.892 65.1462 164.791 64.3041 165.788 64.3511C166.765 64.3976 167.497 65.1824 167.489 66.1749Z" fill="white" fill-opacity="0.3"/>
<path d="M32.0992 9.34727C33.0659 9.37207 33.8305 10.1714 33.8259 11.152C33.8212 12.1352 33.054 12.9154 32.0785 12.9278C31.0751 12.9407 30.2019 12.0479 30.2541 11.0621C30.3042 10.1207 31.1624 9.32298 32.0992 9.34727Z" fill="white" fill-opacity="0.3"/>
<path d="M79.2084 60.1649C78.235 60.1948 77.4305 59.4436 77.3877 58.464C77.3422 57.427 78.1554 56.5688 79.1717 56.5802C80.1048 56.5911 80.9485 57.4296 80.9604 58.3581C80.9723 59.2901 80.1518 60.1359 79.2084 60.1649Z" fill="white" fill-opacity="0.3"/>
<path d="M47.7149 36.5312C46.7482 36.5069 45.981 35.6952 46.0027 34.7192C46.0239 33.7546 46.8495 32.9538 47.7966 32.9786C48.7297 33.0029 49.5558 33.8704 49.532 34.8004C49.5078 35.7464 48.6589 36.555 47.7149 36.5312Z" fill="white" fill-opacity="0.3"/>
<path d="M189.122 60.1479C188.153 60.1112 187.399 59.2933 187.431 58.3158C187.464 57.3517 188.298 56.5601 189.245 56.5968C190.18 56.633 190.994 57.5092 190.958 58.4377C190.921 59.3868 190.065 60.184 189.122 60.1479Z" fill="white" fill-opacity="0.3"/>
<path d="M93.2537 66.0997C93.2852 65.1402 94.1423 64.3441 95.0822 64.4009C95.976 64.4551 96.7314 65.2508 96.7381 66.1467C96.7453 67.0953 95.9093 67.9277 94.9659 67.9122C94.0095 67.8962 93.2216 67.0617 93.2537 66.0997Z" fill="white" fill-opacity="0.3"/>
<path d="M57.4248 42.6719C57.4284 43.6562 56.6674 44.4183 55.678 44.4198C54.6989 44.4214 53.9027 43.6448 53.8985 42.6838C53.8944 41.7197 54.6818 40.9421 55.6661 40.9385C56.6602 40.9354 57.4212 41.6851 57.4248 42.6719Z" fill="white" fill-opacity="0.3"/>
<path d="M175.221 66.2192C175.189 67.1818 174.338 67.9671 173.39 67.9097C172.492 67.855 171.742 67.0629 171.739 66.1649C171.735 65.2122 172.571 64.3804 173.513 64.399C174.464 64.4176 175.254 65.2592 175.221 66.2192Z" fill="white" fill-opacity="0.3"/>
<path d="M41.6766 27.0243C41.6549 27.9409 40.899 28.7014 39.9964 28.7153C39.055 28.7298 38.2268 27.8856 38.2516 26.937C38.2754 26.04 39.053 25.2645 39.9468 25.2469C40.9006 25.2283 41.6999 26.0498 41.6766 27.0243Z" fill="white" fill-opacity="0.3"/>
<path d="M212.639 44.3697C211.722 44.2927 211.031 43.5022 211.08 42.5882C211.133 41.6179 211.968 40.9018 212.955 40.9819C213.874 41.0563 214.549 41.8339 214.503 42.7664C214.454 43.7533 213.639 44.4539 212.639 44.3697Z" fill="white" fill-opacity="0.3"/>
<path d="M63.5204 52.1523C62.5181 52.1859 61.7493 51.4455 61.7534 50.4499C61.757 49.5147 62.4674 48.7826 63.3974 48.7552C64.3827 48.7263 65.18 49.4925 65.1758 50.4649C65.1717 51.3892 64.4535 52.1213 63.5204 52.1523Z" fill="white" fill-opacity="0.3"/>
<path d="M205.012 52.1368C204.082 52.1311 203.333 51.4026 203.316 50.4876C203.298 49.526 204.117 48.7335 205.089 48.7701C206.017 48.8053 206.711 49.5519 206.693 50.4963C206.674 51.4413 205.956 52.1424 205.012 52.1368Z" fill="white" fill-opacity="0.3"/>
<path d="M128.06 74.1434C128.027 75.0842 127.294 75.7745 126.349 75.7538C125.421 75.7337 124.684 74.9912 124.683 74.0762C124.682 73.1142 125.513 72.3381 126.485 72.3903C127.41 72.4399 128.093 73.2004 128.06 74.1434Z" fill="white" fill-opacity="0.3"/>
<path d="M135.841 74.0534C135.853 75.0004 135.158 75.731 134.221 75.7563C133.235 75.7827 132.435 74.9958 132.464 74.028C132.492 73.1192 133.257 72.3861 134.177 72.3892C135.11 72.3923 135.829 73.1115 135.841 74.0534Z" fill="white" fill-opacity="0.3"/>
<path d="M142.043 75.7558C141.105 75.7341 140.408 75.0082 140.416 74.0601C140.425 73.1172 141.14 72.3959 142.074 72.3887C143.047 72.3814 143.845 73.2029 143.793 74.1588C143.744 75.0733 142.973 75.7775 142.043 75.7558Z" fill="white" fill-opacity="0.3"/>
<path d="M30.4255 18.941C30.486 18.0239 31.3132 17.3135 32.2127 17.4049C33.0507 17.4902 33.7539 18.2827 33.7255 19.1089C33.6945 20.0043 32.8746 20.755 31.9761 20.7121C31.0585 20.6682 30.3641 19.8746 30.4255 18.941Z" fill="white" fill-opacity="0.3"/>
<path d="M24.0931 1.70031C25.0376 1.67603 25.7686 2.37508 25.7893 3.32162C25.8095 4.26145 25.098 5.0225 24.1773 5.04575C23.2881 5.06848 22.4754 4.2971 22.4496 3.40584C22.4232 2.50787 23.1791 1.72408 24.0931 1.70031Z" fill="white" fill-opacity="0.3"/>
<path d="M118.405 75.7414C117.473 75.7068 116.786 74.954 116.822 74.0049C116.857 73.0712 117.618 72.3634 118.545 72.4042C119.445 72.4435 120.199 73.2578 120.158 74.1449C120.116 75.0501 119.319 75.7755 118.405 75.7414Z" fill="white" fill-opacity="0.3"/>
<path d="M151.654 74.1248C151.63 75.0667 150.89 75.7683 149.951 75.7389C149.035 75.7105 148.287 74.9262 148.318 74.0256C148.348 73.1271 149.149 72.3769 150.05 72.4027C150.976 72.4296 151.678 73.1829 151.654 74.1248Z" fill="white" fill-opacity="0.3"/>
<path d="M159.4 74.0468C159.416 74.9773 158.663 75.7342 157.745 75.7099C156.895 75.6877 156.164 74.9535 156.147 74.1057C156.129 73.2237 156.946 72.4089 157.825 72.4332C158.683 72.456 159.385 73.1757 159.4 74.0468Z" fill="white" fill-opacity="0.3"/>
<path d="M109.076 74.118C109.055 73.1911 109.809 72.4171 110.718 72.4352C111.554 72.4517 112.304 73.1967 112.329 74.0343C112.356 74.9302 111.564 75.7279 110.664 75.7119C109.799 75.6964 109.097 74.9922 109.076 74.118Z" fill="white" fill-opacity="0.3"/>
<path d="M73.0046 58.4054C72.9911 59.3453 72.2466 60.0552 71.3114 60.019C70.4563 59.9864 69.732 59.2667 69.7046 58.423C69.6762 57.5302 70.4419 56.7567 71.3605 56.7511C72.3096 56.7449 73.0185 57.4584 73.0046 58.4054Z" fill="white" fill-opacity="0.3"/>
<path d="M87.0585 67.8026C86.1228 67.7954 85.4144 67.054 85.4403 66.1095C85.4645 65.2203 86.1326 64.5528 87.0228 64.5285C87.9394 64.5037 88.734 65.2482 88.7454 66.1415C88.7562 67.024 87.959 67.8098 87.0585 67.8026Z" fill="white" fill-opacity="0.3"/>
<path d="M197.164 59.9804C196.217 60.0119 195.479 59.3025 195.486 58.3673C195.491 57.4885 196.164 56.8003 197.046 56.7729C197.972 56.7439 198.751 57.4843 198.746 58.3864C198.741 59.2369 198.031 59.9519 197.164 59.9804Z" fill="white" fill-opacity="0.3"/>
<path d="M183.019 66.1867C183.005 67.0655 182.325 67.7449 181.441 67.7651C180.524 67.7852 179.743 67.0242 179.761 66.1283C179.78 65.2169 180.565 64.5075 181.499 64.5571C182.383 64.6031 183.033 65.3006 183.019 66.1867Z" fill="white" fill-opacity="0.3"/>
<path d="M101.212 74.0638C101.217 73.1984 101.942 72.4715 102.788 72.4828C103.633 72.4937 104.359 73.2408 104.351 74.0897C104.344 74.9406 103.606 75.6743 102.763 75.6697C101.915 75.6655 101.206 74.9313 101.212 74.0638Z" fill="white" fill-opacity="0.3"/>
<path d="M47.7139 41.0884C48.5582 41.0631 49.3104 41.7797 49.3352 42.6333C49.36 43.4832 48.6532 44.2417 47.8059 44.2737C46.9627 44.3052 46.2202 43.5917 46.1949 42.7257C46.1696 41.8562 46.8583 41.1137 47.7139 41.0884Z" fill="white" fill-opacity="0.3"/>
<path d="M39.9688 36.2966C39.0775 36.2925 38.4203 35.6094 38.4451 34.7125C38.4684 33.8786 39.0972 33.2415 39.9238 33.2152C40.7867 33.1878 41.5276 33.8843 41.5421 34.7362C41.556 35.5893 40.8389 36.3007 39.9688 36.2966Z" fill="white" fill-opacity="0.3"/>
<path d="M24.1452 12.6798C23.2524 12.6839 22.5884 12.0065 22.6055 11.1096C22.6215 10.2747 23.2446 9.63192 24.0708 9.59782C24.932 9.56269 25.6797 10.2524 25.7029 11.1039C25.7257 11.9559 25.0142 12.6756 24.1452 12.6798Z" fill="white" fill-opacity="0.3"/>
<path d="M57.2021 50.4609C57.201 51.3366 56.4829 52.0537 55.633 52.0284C54.7892 52.0036 54.0705 51.2307 54.1098 50.3911C54.1465 49.6021 54.843 48.9201 55.635 48.8984C56.501 48.8742 57.2036 49.5748 57.2021 50.4609Z" fill="white" fill-opacity="0.3"/>
<path d="M167.234 74.1011C167.221 74.9763 166.492 75.6841 165.643 75.6454C164.801 75.6071 164.09 74.8208 164.142 73.9864C164.192 73.1959 164.896 72.5273 165.69 72.5175C166.558 72.5066 167.247 73.2134 167.234 74.1011Z" fill="white" fill-opacity="0.3"/>
<path d="M187.678 66.2004C187.656 65.3148 188.345 64.608 189.213 64.6261C190.008 64.6426 190.702 65.3241 190.729 66.1126C190.757 66.9589 190.027 67.6889 189.164 67.6786C188.336 67.6688 187.699 67.0348 187.678 66.2004Z" fill="white" fill-opacity="0.3"/>
<path d="M211.297 50.4271C211.314 49.5725 211.954 48.9437 212.805 48.9468C213.631 48.9494 214.325 49.6185 214.344 50.4286C214.363 51.2837 213.596 52.0288 212.734 51.9895C211.904 51.9513 211.281 51.2739 211.297 50.4271Z" fill="white" fill-opacity="0.3"/>
<path d="M77.6451 66.13C77.6591 65.3008 78.2987 64.6477 79.1156 64.6281C79.967 64.6074 80.7136 65.3411 80.6981 66.1832C80.6821 67.0311 79.9216 67.726 79.0618 67.6774C78.2388 67.6304 77.6307 66.9665 77.6451 66.13Z" fill="white" fill-opacity="0.3"/>
<path d="M33.5459 26.9459C33.5635 27.7674 32.9326 28.4473 32.1204 28.4835C31.2736 28.5212 30.5099 27.7803 30.5337 26.9433C30.5554 26.1662 31.2762 25.4651 32.0548 25.4635C32.853 25.4625 33.5288 26.1342 33.5459 26.9459Z" fill="white" fill-opacity="0.3"/>
<path d="M64.9423 58.3362C64.9629 59.1582 64.3372 59.8407 63.5245 59.881C62.6782 59.9229 61.911 59.1856 61.9296 58.3481C61.9466 57.5715 62.6648 56.8663 63.4439 56.8606C64.2411 56.8549 64.9211 57.5245 64.9423 58.3362Z" fill="white" fill-opacity="0.3"/>
<path d="M206.514 58.3927C206.505 59.1966 205.776 59.8941 204.974 59.8647C204.157 59.8347 203.51 59.1171 203.556 58.293C203.598 57.5304 204.252 56.8938 205.004 56.883C205.787 56.8716 206.521 57.6058 206.514 58.3927Z" fill="white" fill-opacity="0.3"/>
<path d="M94.9268 75.5279C94.0789 75.4954 93.4688 74.8206 93.5246 73.9774C93.5793 73.1445 94.2727 72.5602 95.1247 72.6289C95.8925 72.6904 96.4949 73.3481 96.4773 74.1055C96.4592 74.9208 95.7628 75.5599 94.9268 75.5279Z" fill="white" fill-opacity="0.3"/>
<path d="M173.479 75.531C172.647 75.5274 171.975 74.8459 171.999 74.0337C172.025 73.2184 172.725 72.5865 173.561 72.6252C174.353 72.6614 174.938 73.2602 174.953 74.0486C174.969 74.8908 174.328 75.5346 173.479 75.531Z" fill="white" fill-opacity="0.3"/>
<path d="M134.172 80.5619C134.932 80.5645 135.561 81.1975 135.574 81.9725C135.586 82.7433 134.977 83.4042 134.222 83.4367C133.432 83.4708 132.71 82.7506 132.736 81.9539C132.76 81.2026 133.423 80.5594 134.172 80.5619Z" fill="white" fill-opacity="0.3"/>
<path d="M25.5371 19.1073C25.5138 19.9071 24.9207 20.4749 24.1204 20.4646C23.3423 20.4548 22.7192 19.8446 22.7073 19.082C22.6949 18.2739 23.3965 17.6064 24.2149 17.6482C24.9972 17.688 25.5598 18.3096 25.5371 19.1073Z" fill="white" fill-opacity="0.3"/>
<path d="M71.3629 67.5621C70.622 67.5564 69.9566 66.8904 69.9581 66.1552C69.9597 65.4106 70.6127 64.77 71.3717 64.7689C72.1503 64.7679 72.7522 65.3776 72.7491 66.164C72.746 66.941 72.124 67.5677 71.3629 67.5621Z" fill="white" fill-opacity="0.3"/>
<path d="M49.1066 50.4572C49.1076 51.1986 48.5502 51.7953 47.8232 51.831C47.0689 51.8682 46.3683 51.2079 46.3683 50.4587C46.3683 49.7173 47.0807 49.0399 47.8211 49.0777C48.5331 49.1138 49.1056 49.7281 49.1066 50.4572Z" fill="white" fill-opacity="0.3"/>
<path d="M16.3615 1.97315C17.1401 1.97522 17.739 2.58748 17.7328 3.37385C17.7266 4.15092 17.1029 4.77506 16.3409 4.76576C15.5979 4.75697 14.9365 4.08944 14.9417 3.3537C14.9469 2.60763 15.601 1.9716 16.3615 1.97315Z" fill="white" fill-opacity="0.3"/>
<path d="M87.0729 72.6965C87.8221 72.6975 88.5005 73.4049 88.4597 74.1421C88.4209 74.8396 87.7818 75.4431 87.0781 75.4467C86.2943 75.4509 85.6851 74.805 85.7218 74.0088C85.7554 73.2783 86.3558 72.6955 87.0729 72.6965Z" fill="white" fill-opacity="0.3"/>
<path d="M39.9153 41.3012C40.6309 41.2655 41.2623 41.8251 41.3258 42.551C41.395 43.3425 40.8107 44.0194 40.0305 44.0509C39.3309 44.0793 38.6675 43.5037 38.5931 42.8047C38.5167 42.0788 39.1672 41.3384 39.9153 41.3012Z" fill="white" fill-opacity="0.3"/>
<path d="M182.754 74.0426C182.771 74.7845 182.228 75.3921 181.502 75.4453C180.748 75.5006 180.036 74.8594 180.016 74.1082C179.996 73.3683 180.692 72.676 181.436 72.6956C182.154 72.7147 182.737 73.311 182.754 74.0426Z" fill="white" fill-opacity="0.3"/>
<path d="M126.396 80.6063C127.174 80.6099 127.771 81.2232 127.764 82.0101C127.756 82.7871 127.131 83.4102 126.369 83.3994C125.626 83.389 124.966 82.72 124.973 81.9842C124.98 81.2376 125.636 80.6026 126.396 80.6063Z" fill="white" fill-opacity="0.3"/>
<path d="M142.036 83.4036C141.278 83.3731 140.686 82.718 140.714 81.9404C140.743 81.1556 141.369 80.5753 142.151 80.6105C142.913 80.6446 143.533 81.31 143.498 82.0551C143.463 82.7841 142.76 83.4325 142.036 83.4036Z" fill="white" fill-opacity="0.3"/>
<path d="M197.104 64.8128C197.894 64.8138 198.53 65.4643 198.488 66.2253C198.449 66.9301 197.826 67.5155 197.111 67.5201C196.326 67.5248 195.718 66.8867 195.753 66.0946C195.785 65.3491 196.352 64.8117 197.104 64.8128Z" fill="white" fill-opacity="0.3"/>
<path d="M118.44 83.3593C117.71 83.3428 117.137 82.7667 117.12 82.0315C117.102 81.2234 117.7 80.6302 118.51 80.6519C119.241 80.6716 119.842 81.2544 119.862 81.9632C119.883 82.7093 119.203 83.3769 118.44 83.3593Z" fill="white" fill-opacity="0.3"/>
<path d="M150.032 80.6492C150.778 80.6621 151.34 81.217 151.358 81.96C151.378 82.752 150.757 83.3767 149.97 83.356C149.254 83.3374 148.642 82.7391 148.619 82.0349C148.594 81.2744 149.246 80.6352 150.032 80.6492Z" fill="white" fill-opacity="0.3"/>
<path d="M112.039 82.0503C112.006 82.768 111.404 83.3219 110.668 83.3126C109.871 83.3022 109.293 82.6621 109.364 81.87C109.432 81.1291 110.022 80.6347 110.78 80.6817C111.509 80.7277 112.071 81.3394 112.039 82.0503Z" fill="white" fill-opacity="0.3"/>
<path d="M55.7073 59.6632C54.9643 59.6807 54.3835 59.1398 54.3639 58.4128C54.3448 57.6895 54.9038 57.1046 55.6349 57.0845C56.367 57.0638 56.9586 57.6166 56.9793 58.3405C57 59.0716 56.4476 59.6456 55.7073 59.6632Z" fill="white" fill-opacity="0.3"/>
<path d="M33.365 34.7493C33.3712 35.4752 32.8023 36.042 32.0629 36.0461C31.3267 36.0503 30.7491 35.4902 30.7449 34.7684C30.7408 34.0466 31.3122 33.4741 32.0444 33.4674C32.7739 33.4607 33.3588 34.0285 33.365 34.7493Z" fill="white" fill-opacity="0.3"/>
<path d="M159.1 81.9997C159.098 82.7215 158.522 83.2837 157.786 83.2821C157.047 83.28 156.474 82.7138 156.478 81.9889C156.482 81.2692 157.067 80.6988 157.797 80.7029C158.529 80.7075 159.102 81.2774 159.1 81.9997Z" fill="white" fill-opacity="0.3"/>
<path d="M214.092 58.341C214.113 59.0091 213.592 59.5811 212.913 59.6358C212.155 59.6973 211.561 59.1667 211.542 58.4118C211.524 57.7159 212.019 57.1605 212.703 57.1098C213.432 57.0556 214.069 57.6203 214.092 58.341Z" fill="white" fill-opacity="0.3"/>
<path d="M15.0973 11.1043C15.1164 10.411 15.6429 9.88499 16.3316 9.87156C17.0617 9.85761 17.6688 10.4595 17.6486 11.1777C17.6285 11.9016 17.0002 12.4544 16.2588 12.4012C15.5701 12.3516 15.0782 11.8029 15.0973 11.1043Z" fill="white" fill-opacity="0.3"/>
<path d="M80.4202 74.1165C80.3965 74.7572 79.7976 75.3327 79.1539 75.3338C78.4274 75.3348 77.8699 74.7158 77.9268 73.9718C77.9795 73.2841 78.5349 72.8021 79.2314 72.8408C79.8886 72.877 80.444 73.4727 80.4202 74.1165Z" fill="white" fill-opacity="0.3"/>
<path d="M25.4091 26.9784C25.4107 27.6274 24.8423 28.2029 24.1784 28.2251C23.4902 28.2479 22.9457 27.7421 22.9121 27.0482C22.8759 26.3037 23.452 25.7022 24.1784 25.726C24.8284 25.7472 25.4076 26.3362 25.4091 26.9784Z" fill="white" fill-opacity="0.3"/>
<path d="M102.728 80.7438C103.385 80.7216 103.985 81.2589 104.034 81.9125C104.086 82.6162 103.478 83.2461 102.754 83.2383C102.066 83.2311 101.545 82.703 101.54 82.0071C101.534 81.3189 102.054 80.7666 102.728 80.7438Z" fill="white" fill-opacity="0.3"/>
<path d="M166.932 82.0633C166.898 82.7572 166.353 83.2635 165.665 83.2403C165.002 83.2181 164.433 82.6425 164.434 81.9941C164.436 81.293 165.098 80.6895 165.803 80.7468C166.477 80.8011 166.965 81.371 166.932 82.0633Z" fill="white" fill-opacity="0.3"/>
<path d="M63.4349 67.3833C62.788 67.3714 62.2021 66.7757 62.2129 66.1397C62.2238 65.5083 62.836 64.9162 63.4695 64.9245C64.1293 64.9333 64.6697 65.4995 64.6614 66.1738C64.6542 66.8496 64.1009 67.3952 63.4349 67.3833Z" fill="white" fill-opacity="0.3"/>
<path d="M204.99 64.9523C205.579 64.9352 206.153 65.4576 206.206 66.0595C206.263 66.71 205.701 67.3424 205.049 67.361C204.444 67.3781 203.893 66.8743 203.842 66.2564C203.788 65.5831 204.325 64.9719 204.99 64.9523Z" fill="white" fill-opacity="0.3"/>
<path d="M190.418 74.1179C190.392 74.7818 189.792 75.3124 189.112 75.2731C188.413 75.2323 187.921 74.663 187.982 73.9644C188.038 73.3263 188.542 72.8758 189.197 72.8794C189.885 72.8835 190.445 73.4519 190.418 74.1179Z" fill="white" fill-opacity="0.3"/>
<path d="M94.9487 80.8304C95.5475 80.8056 96.09 81.3104 96.1251 81.9247C96.1602 82.5385 95.687 83.1037 95.0897 83.1611C94.4552 83.222 93.829 82.6454 93.827 81.998C93.8259 81.4023 94.3514 80.8552 94.9487 80.8304Z" fill="white" fill-opacity="0.3"/>
<path d="M174.645 81.9787C174.654 82.5764 174.141 83.1267 173.541 83.1618C172.896 83.199 172.319 82.6121 172.346 81.9456C172.372 81.3302 172.904 80.8177 173.505 80.8301C174.101 80.842 174.636 81.3819 174.645 81.9787Z" fill="white" fill-opacity="0.3"/>
<path d="M16.3281 17.9439C16.9709 17.9273 17.4576 18.4161 17.4519 19.0723C17.4467 19.6732 17.0287 20.1273 16.4413 20.1712C15.8192 20.2177 15.2581 19.731 15.225 19.1167C15.192 18.5117 15.7112 17.9599 16.3281 17.9439Z" fill="white" fill-opacity="0.3"/>
<path d="M39.925 49.3421C40.5662 49.3131 41.0647 49.7947 41.0699 50.4488C41.0745 51.0527 40.6679 51.5121 40.08 51.5658C39.4579 51.6231 38.889 51.1494 38.8425 50.535C38.7971 49.9336 39.3081 49.37 39.925 49.3421Z" fill="white" fill-opacity="0.3"/>
<path d="M32.098 43.7659C31.5281 43.7881 31.043 43.3567 30.9908 42.7811C30.935 42.1637 31.4227 41.5985 32.0272 41.5799C32.5589 41.5633 33.1019 42.0402 33.1598 42.574C33.2233 43.1599 32.7046 43.7421 32.098 43.7659Z" fill="white" fill-opacity="0.3"/>
<path d="M72.4408 74.0437C72.4573 74.6275 72.0367 75.1111 71.4679 75.1628C70.8685 75.217 70.2904 74.7066 70.2708 74.1062C70.2516 73.5218 70.8189 72.9582 71.4059 72.9773C71.9577 72.9954 72.4248 73.4769 72.4408 74.0437Z" fill="white" fill-opacity="0.3"/>
<path d="M9.54674 3.32214C9.56999 3.85844 9.07554 4.39268 8.51805 4.4335C7.91871 4.47793 7.43253 4.07079 7.37621 3.47766C7.31318 2.81167 7.76991 2.30275 8.43331 2.30068C9.01457 2.29861 9.52297 2.76568 9.54674 3.32214Z" fill="white" fill-opacity="0.3"/>
<path d="M133.062 89.7522C133.076 89.1968 133.578 88.7209 134.156 88.7147C134.822 88.7075 135.285 89.2071 135.231 89.8736C135.183 90.4704 134.707 90.8832 134.106 90.8475C133.545 90.8145 133.049 90.2937 133.062 89.7522Z" fill="white" fill-opacity="0.3"/>
<path d="M47.8252 59.4563C47.2667 59.4894 46.7221 59.0357 46.6601 58.486C46.5919 57.8794 47.1142 57.3199 47.7513 57.3173C48.362 57.3147 48.8048 57.7389 48.8249 58.3455C48.8441 58.9427 48.4142 59.4212 47.8252 59.4563Z" fill="white" fill-opacity="0.3"/>
<path d="M197.08 75.1386C196.52 75.1262 196.047 74.624 196.059 74.0541C196.071 73.4889 196.572 72.997 197.123 73.0104C197.667 73.0233 198.169 73.5519 198.157 74.098C198.144 74.6483 197.625 75.1505 197.08 75.1386Z" fill="white" fill-opacity="0.3"/>
<path d="M127.423 89.9058C127.352 90.4803 126.849 90.8627 126.257 90.794C125.684 90.7278 125.273 90.207 125.349 89.6433C125.427 89.0657 125.931 88.6829 126.519 88.7536C127.102 88.8239 127.496 89.3261 127.423 89.9058Z" fill="white" fill-opacity="0.3"/>
<path d="M88.1267 82.0328C88.104 82.5949 87.609 83.0423 87.0324 83.0212C86.4403 83 86.0068 82.5391 86.029 81.9547C86.0513 81.3699 86.5126 80.9509 87.1125 80.97C87.6943 80.9881 88.1495 81.4655 88.1267 82.0328Z" fill="white" fill-opacity="0.3"/>
<path d="M143.141 89.8132C143.119 90.3743 142.623 90.8223 142.047 90.8011C141.454 90.7794 141.022 90.3196 141.044 89.7342C141.067 89.1509 141.529 88.7303 142.128 88.7494C142.709 88.7685 143.164 89.2459 143.141 89.8132Z" fill="white" fill-opacity="0.3"/>
<path d="M181.468 82.9836C180.911 83.0177 180.488 82.6684 180.424 82.1207C180.353 81.5209 180.76 81.0285 181.35 80.9996C181.928 80.9712 182.428 81.4382 182.424 82.0029C182.42 82.5207 182 82.951 181.468 82.9836Z" fill="white" fill-opacity="0.3"/>
<path d="M24.1362 35.7506C23.5834 35.7517 23.1804 35.3704 23.1499 34.8186C23.1168 34.2161 23.5565 33.7517 24.1512 33.7604C24.6798 33.7682 25.1184 34.1784 25.153 34.6977C25.1918 35.2639 24.7221 35.7496 24.1362 35.7506Z" fill="white" fill-opacity="0.3"/>
<path d="M56.6693 66.1705C56.6631 66.7182 56.2704 67.1222 55.7232 67.1455C55.1368 67.1703 54.645 66.7079 54.6548 66.1411C54.6651 65.5743 55.1746 65.1207 55.7532 65.1635C56.289 65.2033 56.6755 65.6285 56.6693 66.1705Z" fill="white" fill-opacity="0.3"/>
<path d="M119.461 89.8231C119.436 90.3749 119.036 90.7603 118.484 90.765C117.897 90.7701 117.423 90.2902 117.454 89.7239C117.486 89.1499 118.001 88.721 118.584 88.783C119.119 88.8399 119.485 89.2744 119.461 89.8231Z" fill="white" fill-opacity="0.3"/>
<path d="M151.02 89.8448C150.979 90.4147 150.458 90.8296 149.872 90.7583C149.335 90.6926 148.981 90.255 149.019 89.7032C149.056 89.1571 149.47 88.7711 150.014 88.7768C150.597 88.782 151.061 89.2749 151.02 89.8448Z" fill="white" fill-opacity="0.3"/>
<path d="M111.642 89.7402C111.661 90.2992 111.268 90.7245 110.718 90.74C110.201 90.7544 109.721 90.3137 109.702 89.8074C109.683 89.3052 110.139 88.8216 110.651 88.8009C111.185 88.7787 111.623 89.1936 111.642 89.7402Z" fill="white" fill-opacity="0.3"/>
<path d="M213.787 66.2126C213.753 66.7298 213.276 67.1473 212.749 67.1204C212.2 67.0925 211.819 66.659 211.852 66.0989C211.884 65.5487 212.326 65.1493 212.863 65.1855C213.378 65.2196 213.819 65.7109 213.787 66.2126Z" fill="white" fill-opacity="0.3"/>
<path d="M157.721 90.737C157.171 90.7014 156.798 90.2648 156.838 89.7037C156.876 89.1539 157.323 88.7608 157.861 88.8042C158.376 88.846 158.809 89.34 158.77 89.8427C158.731 90.3537 158.241 90.7711 157.721 90.737Z" fill="white" fill-opacity="0.3"/>
<path d="M9.36273 11.1515C9.35808 11.6764 8.90495 12.1223 8.39138 12.0774C7.86283 12.0309 7.56729 11.6997 7.49909 11.1975C7.43399 10.719 7.92328 10.2075 8.41101 10.1915C8.90857 10.175 9.36686 10.6374 9.36273 11.1515Z" fill="white" fill-opacity="0.3"/>
<path d="M17.5569 26.8989C17.0651 27.3349 16.8 27.7167 16.442 27.8506C15.9847 28.0216 15.4432 27.4837 15.4665 26.9743C15.4908 26.437 15.8364 26.0536 16.3252 26.1099C16.6869 26.1518 17.0098 26.531 17.5569 26.8989Z" fill="white" fill-opacity="0.3"/>
<path d="M103.97 89.769C103.459 90.172 103.17 90.5409 102.802 90.6545C102.343 90.7966 101.834 90.2164 101.885 89.7147C101.941 89.1769 102.314 88.8173 102.791 88.9004C103.152 88.963 103.453 89.3691 103.97 89.769Z" fill="white" fill-opacity="0.3"/>
<path d="M80.3521 82.0691C79.8086 82.4395 79.4893 82.8177 79.1271 82.8647C78.6332 82.9293 78.2937 82.5428 78.2632 82.0091C78.2338 81.4992 78.7716 80.9546 79.2294 81.122C79.5885 81.2537 79.8567 81.635 80.3521 82.0691Z" fill="white" fill-opacity="0.3"/>
<path d="M64.3397 74.1738C64.2658 74.6672 63.9573 74.9519 63.4081 74.9395C62.9085 74.9281 62.5246 74.5148 62.5804 74.0239C62.6409 73.4897 62.9503 73.188 63.5094 73.2092C64.0085 73.2272 64.3691 73.6339 64.3397 74.1738Z" fill="white" fill-opacity="0.3"/>
<path d="M190.007 82.0509C189.978 82.5241 189.508 82.9876 189.102 82.815C188.785 82.6802 188.458 82.3283 188.351 82.0018C188.216 81.5926 188.734 81.1456 189.197 81.1518C189.672 81.158 190.036 81.5616 190.007 82.0509Z" fill="white" fill-opacity="0.3"/>
<path d="M166.915 89.7946C166.336 90.181 166.023 90.5189 165.653 90.6031C165.214 90.7023 164.839 90.1821 164.884 89.6943C164.929 89.2045 165.258 88.8811 165.685 88.9653C166.047 89.0366 166.352 89.3972 166.915 89.7946Z" fill="white" fill-opacity="0.3"/>
<path d="M205.841 74.1423C205.805 74.6368 205.368 75.0537 204.926 74.876C204.616 74.7515 204.293 74.3893 204.197 74.0674C204.073 73.6494 204.586 73.2232 205.049 73.2366C205.527 73.25 205.878 73.6499 205.841 74.1423Z" fill="white" fill-opacity="0.3"/>
<path d="M33.1584 50.4021C32.7011 50.785 32.451 51.1399 32.1276 51.2298C31.6776 51.3549 31.3583 51.0361 31.2792 50.5659C31.1997 50.0901 31.6027 49.5703 32.046 49.6736C32.3818 49.7521 32.6634 50.0642 33.1584 50.4021Z" fill="white" fill-opacity="0.3"/>
<path d="M25.2312 42.6646C24.7036 43.0325 24.4262 43.3709 24.1126 43.4097C23.6517 43.4665 23.3241 43.0733 23.4275 42.628C23.491 42.3536 23.8661 41.9599 24.0971 41.963C24.3983 41.9671 24.6948 42.3102 25.2312 42.6646Z" fill="white" fill-opacity="0.3"/>
<path d="M40.7777 58.5947C40.5793 58.7373 40.3065 59.0716 39.9826 59.1326C39.5165 59.2204 39.1879 58.8789 39.176 58.3958C39.1641 57.9112 39.4612 57.6203 39.9531 57.612C40.4398 57.6038 40.7266 57.8574 40.7777 58.5947Z" fill="white" fill-opacity="0.3"/>
<path d="M173.692 90.5223C172.984 90.4572 172.649 90.1758 172.774 89.7064C172.845 89.4415 173.216 89.125 173.494 89.0764C173.987 88.9902 174.284 89.38 174.194 89.8422C174.139 90.1252 173.821 90.3571 173.692 90.5223Z" fill="white" fill-opacity="0.3"/>
<path d="M96.1361 89.8056C95.5275 90.1461 95.2066 90.466 94.9049 90.4489C94.6719 90.4355 94.2849 89.9937 94.2931 89.7535C94.3014 89.5111 94.7127 89.0947 94.9472 89.0947C95.249 89.0947 95.5512 89.4331 96.1361 89.8056Z" fill="white" fill-opacity="0.3"/>
<path d="M48.9003 66.1706C48.2989 66.5194 47.9822 66.8449 47.681 66.8314C47.4454 66.8211 47.0496 66.3871 47.0537 66.1468C47.0578 65.9045 47.4634 65.4819 47.6995 65.4772C48.0008 65.4715 48.3087 65.8058 48.9003 66.1706Z" fill="white" fill-opacity="0.3"/>
<path d="M8.49868 18.058C8.79112 18.5535 9.11352 18.8557 9.07012 19.0913C9.0231 19.3471 8.63715 19.5403 8.39845 19.761C8.17525 19.5166 7.79498 19.2841 7.77535 19.0242C7.75778 18.787 8.13133 18.5209 8.49868 18.058Z" fill="white" fill-opacity="0.3"/>
<path d="M196.972 81.0792C197.332 81.4605 197.622 81.6351 197.697 81.8769C197.821 82.2763 197.578 82.6302 197.16 82.6101C196.923 82.5987 196.532 82.3083 196.512 82.113C196.485 81.8459 196.745 81.5498 196.972 81.0792Z" fill="white" fill-opacity="0.3"/>
<path d="M71.4226 81.0697C71.6907 81.5166 71.979 81.7899 71.9754 82.0601C71.9728 82.258 71.5879 82.4507 71.3735 82.646C71.1647 82.4063 70.8408 82.1893 70.787 81.9191C70.7514 81.7377 71.0986 81.4809 71.4226 81.0697Z" fill="white" fill-opacity="0.3"/>
<path d="M16.3237 35.6808C16.0344 35.239 15.7094 34.9487 15.7626 34.7766C15.8448 34.5121 16.1873 34.3287 16.4193 34.1111C16.6182 34.3256 16.9897 34.5534 16.9737 34.7508C16.953 35.0189 16.6358 35.2633 16.3237 35.6808Z" fill="white" fill-opacity="0.3"/>
<path d="M1.49731 3.35568C1.16251 3.63881 0.903656 4.00255 0.739355 3.96432C0.461386 3.89921 0.243352 3.5794 0 3.36704C0.239735 3.14901 0.451575 2.82402 0.729027 2.75324C0.891261 2.71139 1.15683 3.07461 1.49731 3.35568Z" fill="white" fill-opacity="0.3"/>
<path d="M87.929 89.7464C87.5076 90.035 87.2804 90.2984 87.032 90.3206C86.8766 90.3346 86.5575 89.9896 86.5513 89.798C86.5451 89.6013 86.8353 89.2259 86.9866 89.2305C87.2402 89.2388 87.4859 89.4861 87.929 89.7464Z" fill="white" fill-opacity="0.3"/>
<path d="M181.307 88.9863C181.609 89.3131 181.936 89.5223 181.91 89.671C181.867 89.9204 181.6 90.1311 181.427 90.3578C181.228 90.1972 180.875 90.0443 180.867 89.8744C180.855 89.6333 181.096 89.3792 181.307 88.9863Z" fill="white" fill-opacity="0.3"/>
<path d="M55.6688 73.297C55.9249 73.6507 56.1873 73.864 56.2126 74.1026C56.2291 74.257 55.8408 74.6226 55.7349 74.5874C55.4999 74.5095 55.2376 74.2683 55.1643 74.037C55.1204 73.8991 55.4122 73.6543 55.6688 73.297Z" fill="white" fill-opacity="0.3"/>
<path d="M213.499 74.1318C213.212 74.3414 212.967 74.6368 212.833 74.5924C212.595 74.5134 212.425 74.2299 212.227 74.0321C212.453 73.8607 212.662 73.6009 212.912 73.5529C213.044 73.5276 213.247 73.8705 213.499 74.1318Z" fill="white" fill-opacity="0.3"/>
<path d="M127.085 97.7733C126.79 97.9721 126.536 98.2582 126.402 98.2101C126.167 98.1244 126.005 97.8352 125.813 97.6308C126.045 97.4676 126.264 97.2151 126.515 97.1768C126.65 97.1567 126.84 97.5048 127.085 97.7733Z" fill="white" fill-opacity="0.3"/>
<path d="M134.864 97.7734C134.57 97.9722 134.315 98.2588 134.182 98.2103C133.946 98.1245 133.785 97.8354 133.592 97.6309C133.824 97.4677 134.043 97.2147 134.294 97.177C134.43 97.1568 134.62 97.5049 134.864 97.7734Z" fill="white" fill-opacity="0.3"/>
<path d="M142.103 96.9166C142.349 97.276 142.607 97.496 142.625 97.7351C142.638 97.8895 142.239 98.2443 142.132 98.2061C141.899 98.1234 141.644 97.8735 141.576 97.6401C141.537 97.5022 141.837 97.2652 142.103 96.9166Z" fill="white" fill-opacity="0.3"/>
<path d="M118.427 98.3755C118.229 98.0579 117.987 97.8405 118.014 97.6639C118.041 97.4822 118.332 97.3401 118.507 97.1811C118.666 97.3629 118.945 97.5426 118.948 97.7274C118.952 97.9066 118.671 98.0905 118.427 98.3755Z" fill="white" fill-opacity="0.3"/>
<path d="M150.048 97.0068C150.245 97.3244 150.487 97.5418 150.461 97.7204C150.435 97.9001 150.142 98.0416 149.966 98.2002C149.808 98.0199 149.528 97.8408 149.526 97.6585C149.524 97.4777 149.802 97.2944 150.048 97.0068Z" fill="white" fill-opacity="0.3"/>
<path d="M1.23123 11.2509C0.908998 11.3795 0.724132 11.5174 0.554755 11.4998C0.433403 11.4874 0.218062 11.1947 0.244398 11.1528C0.348709 10.9865 0.523769 10.779 0.689014 10.764C0.817595 10.7521 0.969932 11.0031 1.23123 11.2509Z" fill="white" fill-opacity="0.3"/>
<path d="M64.0219 82.0517C63.7245 82.2061 63.5525 82.361 63.3801 82.361C63.2628 82.361 63.0258 82.0888 63.0506 82.0346C63.1317 81.8596 63.2948 81.6329 63.4529 81.6101C63.5851 81.5921 63.7539 81.8317 64.0219 82.0517Z" fill="white" fill-opacity="0.3"/>
<path d="M32.1025 58.951C31.8799 58.6779 31.6372 58.5049 31.6568 58.3706C31.6796 58.2193 31.9223 58.0597 32.1025 57.9942C32.1691 57.9699 32.4283 58.2069 32.4237 58.3179C32.417 58.492 32.261 58.6598 32.1025 58.951Z" fill="white" fill-opacity="0.3"/>
<path d="M158.395 97.7571C158.076 97.9219 157.864 98.1212 157.722 98.0793C157.578 98.0365 157.448 97.7638 157.424 97.5774C157.413 97.4927 157.702 97.2676 157.806 97.2944C157.986 97.3404 158.128 97.5335 158.395 97.7571Z" fill="white" fill-opacity="0.3"/>
<path d="M8.60953 26.5341C8.67924 26.7148 8.81247 26.9013 8.79646 27.0742C8.78613 27.1878 8.50676 27.3949 8.44428 27.3639C8.27387 27.2803 8.0606 27.1042 8.04046 26.9426C8.01722 26.7551 8.18195 26.5439 8.26509 26.3435C8.37973 26.4071 8.49437 26.4706 8.60953 26.5341Z" fill="white" fill-opacity="0.3"/>
<path d="M79.7524 89.7079C79.4782 89.9289 79.3388 90.1117 79.1637 90.1561C79.0646 90.1814 78.7888 89.9635 78.8002 89.8856C78.826 89.7058 78.9525 89.4384 79.0883 89.4038C79.235 89.3666 79.439 89.553 79.7524 89.7079Z" fill="white" fill-opacity="0.3"/>
<path d="M110.637 98.2927C110.462 97.9849 110.253 97.7799 110.288 97.6353C110.324 97.4907 110.594 97.358 110.782 97.3193C110.854 97.3043 111.084 97.5837 111.062 97.6937C111.028 97.8703 110.844 98.0175 110.637 98.2927Z" fill="white" fill-opacity="0.3"/>
<path d="M39.911 65.6468C40.1108 65.8993 40.306 66.0413 40.2911 66.1544C40.274 66.2794 40.0768 66.4049 39.9311 66.4725C39.8893 66.4921 39.6791 66.3109 39.6797 66.2226C39.6802 66.0759 39.7891 65.9298 39.911 65.6468Z" fill="white" fill-opacity="0.3"/>
<path d="M24.0806 50.7901C23.985 50.678 23.8213 50.5401 23.842 50.5009C23.9117 50.3702 24.0475 50.2752 24.158 50.1668C24.2499 50.2969 24.3419 50.4276 24.4338 50.5582C24.3269 50.6284 24.22 50.6987 24.0806 50.7901Z" fill="white" fill-opacity="0.3"/>
</g>
</svg>
