<svg width="223" height="99" viewBox="0 0 223 99" fill="none" xmlns="http://www.w3.org/2000/svg">
<g opacity="0.28">
<path d="M85.4867 94.9859C85.4986 93.1264 87.0114 91.6219 88.8513 91.6395C90.6797 91.657 92.2086 93.2117 92.1926 95.0371C92.1765 96.8744 90.6343 98.3918 88.7996 98.3753C86.938 98.3588 85.4748 96.862 85.4867 94.9859Z" fill="white" fill-opacity="0.3"/>
<path d="M96.5591 98.3556C94.6939 98.3277 93.2591 96.8438 93.2803 94.9647C93.301 93.1129 94.819 91.6228 96.6521 91.6533C98.4765 91.6838 99.9924 93.2421 99.964 95.0571C99.935 96.8892 98.3928 98.3829 96.5591 98.3556Z" fill="white" fill-opacity="0.3"/>
<path d="M84.2151 95.0614C84.1929 96.941 82.6997 98.3773 80.8154 98.3308C79.0133 98.2864 77.5593 96.8175 77.5475 95.0304C77.5356 93.2101 79.0882 91.6606 80.9156 91.6699C82.7684 91.6792 84.2373 93.1884 84.2151 95.0614Z" fill="white" fill-opacity="0.3"/>
<path d="M104.524 91.7122C106.402 91.7159 107.85 93.1997 107.815 95.0861C107.78 96.9099 106.351 98.3034 104.516 98.3024C102.653 98.3013 101.139 96.7694 101.19 94.9388C101.239 93.1496 102.728 91.7086 104.524 91.7122Z" fill="white" fill-opacity="0.3"/>
<path d="M69.6979 95.0016C69.702 93.1881 71.1115 91.7605 72.9281 91.73C74.7809 91.699 76.3144 93.1953 76.3061 95.0248C76.2979 96.8063 74.8398 98.2654 73.0433 98.2891C71.1554 98.315 69.6938 96.8781 69.6979 95.0016Z" fill="white" fill-opacity="0.3"/>
<path d="M68.4483 95.0248C68.4416 96.8347 67.0058 98.2555 65.1907 98.2483C63.3788 98.2405 61.946 96.8058 61.9502 95.0026C61.9548 93.1973 63.3911 91.7801 65.2124 91.7837C67.0311 91.7868 68.4545 93.2133 68.4483 95.0248Z" fill="white" fill-opacity="0.3"/>
<path d="M109.063 94.8868C109.132 93.0728 110.592 91.7279 112.431 91.7863C114.234 91.8431 115.623 93.3347 115.553 95.141C115.484 96.9396 114.002 98.302 112.176 98.2478C110.379 98.1935 108.995 96.6998 109.063 94.8868Z" fill="white" fill-opacity="0.3"/>
<path d="M88.8368 90.4376C87.0512 90.4438 85.5704 88.9532 85.6014 87.182C85.6319 85.4517 87.062 84.0469 88.8011 84.0381C90.6234 84.0288 92.0272 85.4527 92.0029 87.2849C91.9802 89.0462 90.5883 90.4319 88.8368 90.4376Z" fill="white" fill-opacity="0.3"/>
<path d="M96.617 90.4377C94.832 90.4439 93.3506 88.9533 93.3816 87.1822C93.4121 85.4519 94.8423 84.047 96.5814 84.0383C98.4037 84.029 99.8075 85.4529 99.7832 87.285C99.7605 89.0463 98.3686 90.432 96.617 90.4377Z" fill="white" fill-opacity="0.3"/>
<path d="M77.7326 87.1537C77.7678 85.3862 79.1819 84.0201 80.9505 84.0449C82.6859 84.0692 84.1254 85.5231 84.1176 87.2441C84.1094 89.0174 82.5707 90.4904 80.7903 90.4299C79.0388 90.3705 77.6975 88.9337 77.7326 87.1537Z" fill="white" fill-opacity="0.3"/>
<path d="M120.278 91.8326C122.03 91.8621 123.396 93.2726 123.382 95.0396C123.369 96.7963 121.967 98.2021 120.227 98.2047C118.458 98.2073 116.954 96.6671 117.018 94.9192C117.082 93.192 118.549 91.8032 120.278 91.8326Z" fill="white" fill-opacity="0.3"/>
<path d="M76.1379 87.2266C76.14 88.9895 74.7357 90.4129 72.9909 90.4166C71.2761 90.4202 69.7979 88.9523 69.7927 87.2406C69.7875 85.5252 71.2497 84.0641 72.9769 84.06C74.7316 84.0553 76.1359 85.4622 76.1379 87.2266Z" fill="white" fill-opacity="0.3"/>
<path d="M101.368 87.2386C101.364 85.4737 102.763 84.0621 104.518 84.0601C106.245 84.0585 107.711 85.5114 107.713 87.2288C107.716 88.939 106.242 90.4135 104.527 90.4166C102.783 90.4203 101.372 89.0005 101.368 87.2386Z" fill="white" fill-opacity="0.3"/>
<path d="M54.1328 94.9995C54.138 93.2356 55.5464 91.8313 57.3005 91.8396C59.0272 91.8478 60.4879 93.3131 60.4775 95.0274C60.4677 96.7402 58.9869 98.2044 57.2721 98.1962C55.5273 98.1884 54.1276 96.7629 54.1328 94.9995Z" fill="white" fill-opacity="0.3"/>
<path d="M109.181 87.2849C109.152 85.5494 110.592 84.0852 112.315 84.0955C113.993 84.1058 115.385 85.491 115.414 87.18C115.444 88.9207 114.009 90.3839 112.282 90.3725C110.612 90.3617 109.209 88.9641 109.181 87.2849Z" fill="white" fill-opacity="0.3"/>
<path d="M65.2496 90.3718C63.5808 90.4008 62.1553 89.0342 62.0933 87.3452C62.0292 85.604 63.4263 84.1243 65.1623 84.0953C66.8286 84.0674 68.2659 85.4428 68.3223 87.1194C68.3812 88.8564 66.9779 90.3419 65.2496 90.3718Z" fill="white" fill-opacity="0.3"/>
<path d="M124.925 94.967C124.947 93.2672 126.332 91.8918 128.013 91.9C129.675 91.9083 131.091 93.3219 131.103 94.9882C131.116 96.7118 129.632 98.174 127.922 98.1213C126.225 98.0696 124.902 96.6777 124.925 94.967Z" fill="white" fill-opacity="0.3"/>
<path d="M52.5653 95.0789C52.5338 96.7947 51.1373 98.1432 49.4364 98.0998C47.7489 98.057 46.373 96.6206 46.4123 94.944C46.4516 93.27 47.9107 91.8704 49.5707 91.9138C51.2731 91.9582 52.5969 93.3573 52.5653 95.0789Z" fill="white" fill-opacity="0.3"/>
<path d="M117.183 87.2281C117.185 85.5097 118.559 84.1431 120.26 84.1684C121.938 84.1937 123.342 85.6435 123.295 87.3036C123.25 88.9352 121.896 90.2568 120.253 90.2749C118.524 90.2935 117.181 88.961 117.183 87.2281Z" fill="white" fill-opacity="0.3"/>
<path d="M85.7877 79.3252C85.7831 77.597 87.1295 76.2505 88.85 76.2634C90.5442 76.2763 91.9382 77.6987 91.8989 79.3738C91.8607 81.0008 90.4982 82.3503 88.8702 82.3741C87.161 82.3989 85.7929 81.0452 85.7877 79.3252Z" fill="white" fill-opacity="0.3"/>
<path d="M80.9518 82.3693C79.2752 82.3977 77.8244 80.9665 77.8368 79.2967C77.8487 77.6686 79.2127 76.2984 80.8495 76.27C82.5122 76.2416 83.8741 77.5348 83.9278 79.1939C83.9842 80.9211 82.6532 82.3409 80.9518 82.3693Z" fill="white" fill-opacity="0.3"/>
<path d="M93.5768 79.2866C93.5892 77.6193 94.9067 76.2884 96.5637 76.2692C98.2578 76.2496 99.6885 77.6658 99.6688 79.3434C99.6492 80.9683 98.2743 82.3442 96.6463 82.3685C94.9434 82.3938 93.5639 81.0087 93.5768 79.2866Z" fill="white" fill-opacity="0.3"/>
<path d="M60.3096 87.2779C60.2879 88.9575 58.9869 90.2487 57.3061 90.2585C55.5996 90.2689 54.1865 88.8625 54.2185 87.1859C54.2495 85.5594 55.6264 84.2016 57.2596 84.1876C58.9765 84.1732 60.3318 85.5465 60.3096 87.2779Z" fill="white" fill-opacity="0.3"/>
<path d="M107.528 79.3107C107.53 80.9651 106.198 82.3286 104.558 82.3519C102.892 82.3756 101.439 80.9093 101.484 79.2493C101.527 77.6171 102.923 76.2681 104.549 76.2862C106.198 76.3037 107.526 77.6533 107.528 79.3107Z" fill="white" fill-opacity="0.3"/>
<path d="M69.9764 79.3014C69.9826 77.645 71.3162 76.2985 72.9638 76.2861C74.5903 76.2737 75.9832 77.6284 76.0204 79.2585C76.0587 80.9196 74.6011 82.3813 72.9369 82.3518C71.2965 82.3229 69.9707 80.9568 69.9764 79.3014Z" fill="white" fill-opacity="0.3"/>
<path d="M135.921 92.0431C137.597 92.0441 138.911 93.3518 138.909 95.016C138.907 96.6771 137.588 97.9863 135.918 97.9858C134.251 97.9853 132.918 96.6631 132.918 95.0124C132.918 93.3595 134.251 92.042 135.921 92.0431Z" fill="white" fill-opacity="0.3"/>
<path d="M112.365 82.3158C110.74 82.3582 109.345 80.9906 109.33 79.3393C109.316 77.7412 110.582 76.3969 112.174 76.3178C113.797 76.2372 115.231 77.5759 115.282 79.2189C115.334 80.8635 114.006 82.273 112.365 82.3158Z" fill="white" fill-opacity="0.3"/>
<path d="M128.041 90.1945C126.365 90.2125 125.024 88.9023 125.018 87.2422C125.012 85.579 126.344 84.2652 128.024 84.2765C129.659 84.2874 130.93 85.5294 130.972 87.1564C131.016 88.8325 129.719 90.1764 128.041 90.1945Z" fill="white" fill-opacity="0.3"/>
<path d="M41.611 97.9743C39.9375 97.9841 38.6024 96.665 38.6055 95.0045C38.6086 93.3408 39.9457 92.0372 41.6291 92.0563C43.2597 92.0749 44.5281 93.3279 44.5601 94.9533C44.5942 96.6278 43.2891 97.9645 41.611 97.9743Z" fill="white" fill-opacity="0.3"/>
<path d="M68.1547 79.2499C68.1878 80.9043 66.8656 82.2832 65.2299 82.2998C63.6034 82.3163 62.228 80.9446 62.2316 79.3088C62.2347 77.7257 63.5161 76.3958 65.1017 76.3302C66.7199 76.2625 68.1217 77.6032 68.1547 79.2499Z" fill="white" fill-opacity="0.3"/>
<path d="M49.5151 90.1767C47.8886 90.1813 46.6093 88.9346 46.5731 87.3097C46.5349 85.6139 47.8152 84.2975 49.5022 84.298C51.1162 84.298 52.427 85.5628 52.4684 87.1583C52.5102 88.8059 51.1741 90.172 49.5151 90.1767Z" fill="white" fill-opacity="0.3"/>
<path d="M91.7068 71.3671C91.7192 72.9802 90.443 74.2935 88.8486 74.309C87.2748 74.324 85.916 72.9967 85.8963 71.4255C85.8767 69.8543 87.2046 68.5094 88.7907 68.4924C90.3991 68.4753 91.6944 69.7525 91.7068 71.3671Z" fill="white" fill-opacity="0.3"/>
<path d="M120.111 82.21C118.506 82.1526 117.216 80.7814 117.286 79.2055C117.355 77.6214 118.748 76.3334 120.325 76.3948C121.938 76.4574 123.162 77.7847 123.113 79.4199C123.065 81.049 121.753 82.2689 120.111 82.21Z" fill="white" fill-opacity="0.3"/>
<path d="M57.3032 82.1968C55.6695 82.2051 54.4083 80.9589 54.4016 79.3293C54.3949 77.7059 55.6592 76.422 57.2722 76.4148C58.86 76.4075 60.1992 77.7209 60.2105 79.2978C60.2214 80.8731 58.9023 82.1886 57.3032 82.1968Z" fill="white" fill-opacity="0.3"/>
<path d="M78.0294 71.4023C78.0257 69.7841 79.3288 68.4826 80.9346 68.5012C82.5244 68.5193 83.8569 69.8889 83.8135 71.4596C83.7711 72.9843 82.4681 74.2765 80.9475 74.3013C79.3567 74.3266 78.033 73.0112 78.0294 71.4023Z" fill="white" fill-opacity="0.3"/>
<path d="M99.477 71.4171C99.4656 73.0239 98.1321 74.3353 96.5443 74.3001C95.0217 74.2665 93.7249 72.9671 93.6923 71.4435C93.6593 69.8707 94.9979 68.5098 96.5872 68.5005C98.1935 68.4912 99.4883 69.7979 99.477 71.4171Z" fill="white" fill-opacity="0.3"/>
<path d="M33.7395 92.1371C35.2704 92.0979 36.5941 93.3394 36.6603 94.8765C36.729 96.4808 35.4652 97.8495 33.8733 97.8939C32.3073 97.9378 30.9314 96.5893 30.9325 95.0103C30.9335 93.482 32.2091 92.1769 33.7395 92.1371Z" fill="white" fill-opacity="0.3"/>
<path d="M41.5762 84.357C43.1097 84.3508 44.4034 85.6141 44.4412 87.1538C44.4804 88.7539 43.1784 90.1091 41.5964 90.1153C40.019 90.1215 38.6782 88.7523 38.7159 87.1739C38.7521 85.6347 40.0438 84.3632 41.5762 84.357Z" fill="white" fill-opacity="0.3"/>
<path d="M70.122 71.1968C70.2476 69.5987 71.6916 68.3686 73.252 68.5308C74.7948 68.6915 75.935 70.0431 75.8358 71.5936C75.7382 73.1229 74.3675 74.3557 72.8552 74.2741C71.2633 74.1883 69.999 72.7649 70.122 71.1968Z" fill="white" fill-opacity="0.3"/>
<path d="M104.51 74.2779C102.928 74.2712 101.627 72.9154 101.667 71.3153C101.705 69.7756 102.999 68.5129 104.532 68.5196C106.118 68.5263 107.443 69.8955 107.391 71.4755C107.341 73.0131 106.034 74.2846 104.51 74.2779Z" fill="white" fill-opacity="0.3"/>
<path d="M143.794 97.9084C142.228 97.8815 140.898 96.4932 140.947 94.9375C140.996 93.3565 142.375 92.0659 143.947 92.1294C145.487 92.1919 146.707 93.4722 146.703 95.0212C146.698 96.6162 145.37 97.9357 143.794 97.9084Z" fill="white" fill-opacity="0.3"/>
<path d="M133.052 87.2345C133.051 85.6323 134.363 84.3262 135.952 84.3469C137.474 84.3665 138.764 85.6385 138.808 87.1637C138.853 88.7205 137.52 90.1051 135.954 90.1284C134.379 90.1516 133.054 88.83 133.052 87.2345Z" fill="white" fill-opacity="0.3"/>
<path d="M65.2485 68.557C66.7831 68.5838 68.0572 69.9003 68.0339 71.4353C68.0107 72.9776 66.6988 74.2584 65.169 74.2336C63.619 74.2083 62.3831 72.9218 62.4033 71.3553C62.4229 69.7939 63.7089 68.5301 65.2485 68.557Z" fill="white" fill-opacity="0.3"/>
<path d="M112.311 68.5557C113.855 68.5635 115.112 69.8459 115.106 71.4078C115.1 72.9691 113.829 74.2417 112.285 74.2319C110.749 74.2221 109.466 72.9221 109.472 71.3824C109.478 69.8474 110.784 68.548 112.311 68.5557Z" fill="white" fill-opacity="0.3"/>
<path d="M128.015 76.5027C129.585 76.5078 130.826 77.7328 130.838 79.2916C130.851 80.898 129.546 82.1695 127.923 82.1323C126.359 82.0961 125.155 80.8406 125.179 79.2699C125.204 77.6946 126.43 76.4975 128.015 76.5027Z" fill="white" fill-opacity="0.3"/>
<path d="M49.4797 82.1225C47.9204 82.1101 46.6644 80.8412 46.6773 79.2917C46.6902 77.7339 47.9524 76.5027 49.5262 76.5125C51.1144 76.5228 52.3203 77.7473 52.3079 79.3382C52.2961 80.9218 51.0633 82.1349 49.4797 82.1225Z" fill="white" fill-opacity="0.3"/>
<path d="M135.974 82.0817C134.506 82.1137 133.208 80.8841 133.147 79.4053C133.088 77.9442 134.312 76.6267 135.793 76.5585C137.356 76.4867 138.646 77.7194 138.656 79.2927C138.667 80.8091 137.474 82.0491 135.974 82.0817Z" fill="white" fill-opacity="0.3"/>
<path d="M141.091 87.1586C141.124 85.6535 142.341 84.4631 143.844 84.4662C145.379 84.4698 146.673 85.7915 146.624 87.3053C146.577 88.7949 145.34 89.9811 143.836 89.9796C142.253 89.9785 141.057 88.7489 141.091 87.1586Z" fill="white" fill-opacity="0.3"/>
<path d="M117.473 71.3814C117.478 69.8691 118.662 68.6585 120.167 68.627C121.696 68.595 123.018 69.8872 123.01 71.4067C123.003 72.9407 121.7 74.1823 120.141 74.1414C118.618 74.1022 117.467 72.9118 117.473 71.3814Z" fill="white" fill-opacity="0.3"/>
<path d="M57.1977 74.124C55.6932 74.0842 54.4795 72.8281 54.5126 71.3448C54.5457 69.8547 55.796 68.6483 57.299 68.656C58.8764 68.6643 60.0792 69.9286 60.0198 71.5158C59.9624 73.0364 58.7415 74.1648 57.1977 74.124Z" fill="white" fill-opacity="0.3"/>
<path d="M151.568 97.7445C150.037 97.7197 148.873 96.5283 148.881 94.9953C148.889 93.4738 150.082 92.2813 151.604 92.2735C153.159 92.2653 154.449 93.5735 154.389 95.0997C154.33 96.6012 153.084 97.7693 151.568 97.7445Z" fill="white" fill-opacity="0.3"/>
<path d="M31.0712 87.2939C31.0417 85.7656 32.1944 84.5453 33.715 84.4951C35.2701 84.444 36.5897 85.7072 36.583 87.2423C36.5763 88.7323 35.3456 89.9517 33.8359 89.9636C32.2972 89.9749 31.1006 88.8197 31.0712 87.2939Z" fill="white" fill-opacity="0.3"/>
<path d="M80.9676 60.9137C82.4902 60.9453 83.6537 62.1594 83.6196 63.6805C83.5855 65.1949 82.3719 66.346 80.8394 66.3166C79.3318 66.2876 78.13 65.0435 78.1698 63.5519C78.2101 62.0463 79.4444 60.8822 80.9676 60.9137Z" fill="white" fill-opacity="0.3"/>
<path d="M86.0937 63.5973C86.1019 62.0721 87.3073 60.8874 88.8413 60.8967C90.3598 60.9055 91.5926 62.1382 91.5797 63.6345C91.5668 65.1354 90.3262 66.3408 88.8041 66.3315C87.2634 66.3222 86.0849 65.1334 86.0937 63.5973Z" fill="white" fill-opacity="0.3"/>
<path d="M96.5477 66.3187C95.0277 66.2939 93.859 65.0844 93.8843 63.5638C93.9096 62.052 95.1233 60.8916 96.6536 60.9153C98.1659 60.9391 99.3703 62.1755 99.3357 63.6692C99.3016 65.1737 98.0703 66.3435 96.5477 66.3187Z" fill="white" fill-opacity="0.3"/>
<path d="M41.6042 76.5765C43.0855 76.5868 44.3312 77.8511 44.3198 79.3324C44.309 80.809 43.0344 82.0718 41.5681 82.0594C40.0847 82.0465 38.8597 80.7925 38.869 79.2962C38.8778 77.7953 40.1141 76.5662 41.6042 76.5765Z" fill="white" fill-opacity="0.3"/>
<path d="M25.841 97.7144C24.3313 97.6932 23.1244 96.4583 23.1539 94.9657C23.1838 93.4627 24.4161 92.2873 25.9361 92.3105C27.4588 92.3343 28.6305 93.5417 28.6047 95.0613C28.5794 96.5777 27.373 97.7356 25.841 97.7144Z" fill="white" fill-opacity="0.3"/>
<path d="M104.554 60.9287C106.081 60.9437 107.265 62.1625 107.229 63.6815C107.193 65.1969 105.961 66.3491 104.424 66.3036C102.963 66.2602 101.812 65.0791 101.809 63.62C101.806 62.1051 103.022 60.9137 104.554 60.9287Z" fill="white" fill-opacity="0.3"/>
<path d="M72.9912 60.9429C74.4798 60.945 75.635 62.0739 75.666 63.5568C75.6981 65.0913 74.5071 66.3013 72.9721 66.2946C71.4428 66.2879 70.2456 65.0582 70.2875 63.5376C70.3278 62.0724 71.5073 60.9409 72.9912 60.9429Z" fill="white" fill-opacity="0.3"/>
<path d="M127.966 68.722C129.46 68.706 130.627 69.8148 130.678 71.2966C130.732 72.8326 129.558 74.0613 128.026 74.0732C126.493 74.085 125.281 72.876 125.301 71.356C125.32 69.8912 126.488 68.7375 127.966 68.722Z" fill="white" fill-opacity="0.3"/>
<path d="M49.5313 68.734C51.0013 68.7464 52.1689 69.8919 52.1948 71.3484C52.2222 72.8524 51.0064 74.0723 49.489 74.064C47.9638 74.0557 46.8018 72.8436 46.8462 71.3065C46.8896 69.8325 48.049 68.7216 49.5313 68.734Z" fill="white" fill-opacity="0.3"/>
<path d="M112.257 60.9652C113.73 60.9435 114.932 62.0771 114.979 63.5331C115.028 65.0304 113.796 66.2843 112.285 66.275C110.811 66.2657 109.663 65.111 109.655 63.6307C109.647 62.1412 110.774 60.9869 112.257 60.9652Z" fill="white" fill-opacity="0.3"/>
<path d="M65.2055 60.9744C66.6801 60.9765 67.8214 62.1105 67.8349 63.5867C67.8483 65.0597 66.7204 66.2362 65.2655 66.2661C63.7677 66.2971 62.5132 65.0612 62.5364 63.5774C62.5597 62.1374 63.7537 60.9723 65.2055 60.9744Z" fill="white" fill-opacity="0.3"/>
<path d="M148.958 87.2627C148.939 85.8294 150.134 84.6173 151.584 84.6003C153.052 84.5827 154.219 85.7307 154.232 87.2048C154.246 88.6794 153.1 89.8605 151.642 89.8739C150.207 89.8879 148.976 88.6907 148.958 87.2627Z" fill="white" fill-opacity="0.3"/>
<path d="M23.2816 87.2482C23.2733 85.7706 24.4441 84.5951 25.9109 84.6091C27.3592 84.6225 28.5703 85.86 28.5336 87.2885C28.4979 88.6634 27.3158 89.8399 25.9404 89.8688C24.487 89.8988 23.2894 88.7187 23.2816 87.2482Z" fill="white" fill-opacity="0.3"/>
<path d="M146.451 79.3619C146.429 80.8411 145.265 81.9654 143.784 81.937C142.333 81.9091 141.146 80.6902 141.179 79.2627C141.212 77.8346 142.454 76.6447 143.884 76.6711C145.343 76.6979 146.474 77.8832 146.451 79.3619Z" fill="white" fill-opacity="0.3"/>
<path d="M31.1625 79.3298C31.1521 77.8971 32.3741 76.6866 33.8223 76.6953C35.24 76.7041 36.372 77.8108 36.4113 79.2275C36.4526 80.7218 35.3392 81.8925 33.8548 81.9153C32.3839 81.938 31.1728 80.775 31.1625 79.3298Z" fill="white" fill-opacity="0.3"/>
<path d="M120.23 66.24C118.814 66.2457 117.576 65.0021 117.591 63.5916C117.606 62.1661 118.847 60.97 120.278 61.0015C121.676 61.0325 122.794 62.1656 122.814 63.5714C122.835 65.0357 121.674 66.2343 120.23 66.24Z" fill="white" fill-opacity="0.3"/>
<path d="M156.941 95.0507C156.922 93.5849 158.082 92.3986 159.534 92.3981C160.964 92.3976 162.187 93.6283 162.165 95.045C162.145 96.4044 160.97 97.5958 159.608 97.6371C158.17 97.6816 156.96 96.5087 156.941 95.0507Z" fill="white" fill-opacity="0.3"/>
<path d="M133.323 71.3675C133.336 69.9074 134.532 68.7433 135.98 68.7805C137.357 68.8157 138.52 69.9828 138.545 71.3551C138.571 72.7636 137.339 74.016 135.924 74.0201C134.481 74.0242 133.309 72.8307 133.323 71.3675Z" fill="white" fill-opacity="0.3"/>
<path d="M54.7005 63.5988C54.7083 62.1914 55.8336 61.0413 57.2322 61.0113C58.6629 60.9808 59.907 62.2048 59.8957 63.6319C59.8848 65.0026 58.7089 66.1961 57.3371 66.2292C55.8987 66.2638 54.6928 65.0605 54.7005 63.5988Z" fill="white" fill-opacity="0.3"/>
<path d="M15.3812 95.0047C15.3858 93.6169 16.5587 92.4332 17.9434 92.4188C19.3906 92.4033 20.5835 93.6304 20.5417 95.0905C20.5019 96.4875 19.3068 97.6408 17.9268 97.6139C16.5458 97.5865 15.3765 96.3883 15.3812 95.0047Z" fill="white" fill-opacity="0.3"/>
<path d="M41.5411 68.8006C42.9299 68.7742 44.1188 69.9155 44.1591 71.3147C44.201 72.7748 43.0049 74.0107 41.5639 73.9957C40.1859 73.9812 39.0038 72.7887 38.9971 71.4067C38.9904 70.0225 40.157 68.8269 41.5411 68.8006Z" fill="white" fill-opacity="0.3"/>
<path d="M88.7895 53.1565C90.2238 53.141 91.3682 54.2462 91.3858 55.6644C91.4039 57.0801 90.2801 58.2251 88.8567 58.2411C87.4131 58.2571 86.2831 57.1638 86.264 55.7316C86.2454 54.2973 87.349 53.1715 88.7895 53.1565Z" fill="white" fill-opacity="0.3"/>
<path d="M96.6069 53.1692C98.0267 53.1702 99.1577 54.2924 99.1567 55.6983C99.1557 57.1 98.0174 58.2295 96.6054 58.2305C95.1763 58.231 94.0716 57.1264 94.0721 55.6962C94.0727 54.2594 95.167 53.1682 96.6069 53.1692Z" fill="white" fill-opacity="0.3"/>
<path d="M80.7423 58.2284C79.3467 58.1525 78.2653 56.9363 78.3521 55.5412C78.4389 54.1406 79.6262 53.101 81.0554 53.1733C82.4746 53.2457 83.5106 54.4154 83.4289 55.8538C83.3488 57.2716 82.1781 58.3065 80.7423 58.2284Z" fill="white" fill-opacity="0.3"/>
<path d="M107.032 55.823C106.97 57.2449 105.789 58.303 104.358 58.2183C103.015 58.1387 101.947 56.9829 101.978 55.6416C102.01 54.2384 103.185 53.1404 104.609 53.1818C106.036 53.2221 107.094 54.3763 107.032 55.823Z" fill="white" fill-opacity="0.3"/>
<path d="M128.029 66.1591C126.628 66.1793 125.482 65.0286 125.486 63.6062C125.49 62.2433 126.558 61.1236 127.909 61.0663C129.277 61.0079 130.507 62.1704 130.543 63.5541C130.579 64.9423 129.424 66.139 128.029 66.1591Z" fill="white" fill-opacity="0.3"/>
<path d="M149.123 79.3769C149.094 77.9777 150.115 76.871 151.489 76.8111C152.915 76.7486 154.112 77.8475 154.149 79.2539C154.186 80.6468 153.019 81.8316 151.612 81.8295C150.236 81.8269 149.151 80.7584 149.123 79.3769Z" fill="white" fill-opacity="0.3"/>
<path d="M70.4903 55.6816C70.4981 54.2892 71.5541 53.2129 72.9352 53.1907C74.3571 53.168 75.5289 54.3129 75.5175 55.7141C75.5062 57.1148 74.3126 58.2546 72.9027 58.2112C71.5314 58.1688 70.4831 57.0694 70.4903 55.6816Z" fill="white" fill-opacity="0.3"/>
<path d="M46.9709 63.6182C46.9683 62.2371 48.1923 61.0415 49.5667 61.0824C50.9245 61.1232 51.9986 62.2387 52.0012 63.6104C52.0033 64.9956 50.9493 66.0915 49.5749 66.1328C48.1763 66.1741 46.974 65.0127 46.9709 63.6182Z" fill="white" fill-opacity="0.3"/>
<path d="M25.9022 81.8197C24.5087 81.8274 23.3354 80.6438 23.3674 79.2637C23.3984 77.9256 24.5201 76.8281 25.8666 76.8183C27.2951 76.808 28.3926 77.9256 28.3678 79.366C28.3435 80.7337 27.2595 81.8125 25.9022 81.8197Z" fill="white" fill-opacity="0.3"/>
<path d="M62.736 55.7319C62.719 54.354 63.7756 53.2442 65.1386 53.208C66.5356 53.1713 67.7374 54.3488 67.7142 55.7314C67.6914 57.0603 66.5403 58.1918 65.2083 58.1944C63.8557 58.1969 62.7531 57.099 62.736 55.7319Z" fill="white" fill-opacity="0.3"/>
<path d="M109.792 55.687C109.798 54.354 110.932 53.223 112.273 53.2091C113.694 53.1946 114.81 54.3421 114.77 55.7769C114.732 57.1399 113.606 58.2213 112.253 58.1939C110.924 58.1665 109.785 57.0066 109.792 55.687Z" fill="white" fill-opacity="0.3"/>
<path d="M141.357 71.3578C141.374 69.9928 142.453 68.9021 143.807 68.8835C145.183 68.8644 146.38 70.0589 146.359 71.4291C146.337 72.8169 145.14 73.937 143.736 73.8817C142.356 73.8275 141.339 72.7482 141.357 71.3578Z" fill="white" fill-opacity="0.3"/>
<path d="M159.501 84.7229C160.852 84.7017 161.967 85.7697 162.015 87.129C162.065 88.5783 161.001 89.7057 159.567 89.7227C158.215 89.7382 157.08 88.6739 157.018 87.3326C156.955 85.965 158.116 84.7446 159.501 84.7229Z" fill="white" fill-opacity="0.3"/>
<path d="M17.9833 89.6823C16.5883 89.6879 15.5178 88.6329 15.5111 87.2456C15.5043 85.8615 16.5733 84.7816 17.958 84.7749C19.3179 84.7682 20.4561 85.8791 20.4634 87.2198C20.4706 88.5637 19.3494 89.6771 17.9833 89.6823Z" fill="white" fill-opacity="0.3"/>
<path d="M31.3494 71.3774C31.3577 69.9948 32.4396 68.9294 33.8263 68.9387C35.1831 68.9475 36.3141 70.0785 36.3022 71.4136C36.2898 72.7574 35.1568 73.8543 33.7907 73.8455C32.3978 73.8362 31.3411 72.7683 31.3494 71.3774Z" fill="white" fill-opacity="0.3"/>
<path d="M164.847 94.9521C164.886 93.6067 166.016 92.5465 167.378 92.5764C168.751 92.6064 169.794 93.7002 169.762 95.0756C169.73 96.4468 168.64 97.4765 167.254 97.4455C165.895 97.4155 164.807 96.2897 164.847 94.9521Z" fill="white" fill-opacity="0.3"/>
<path d="M135.86 66.0333C134.492 66.0059 133.419 64.8749 133.477 63.5213C133.532 62.212 134.592 61.2009 135.912 61.1988C137.3 61.1968 138.371 62.2673 138.356 63.6422C138.341 65.0139 137.248 66.0612 135.86 66.0333Z" fill="white" fill-opacity="0.3"/>
<path d="M117.783 55.6885C117.788 54.3343 118.92 53.2167 120.261 53.242C121.601 53.2679 122.71 54.4366 122.664 55.7742C122.619 57.0623 121.523 58.1426 120.244 58.1571C118.907 58.1721 117.778 57.0406 117.783 55.6885Z" fill="white" fill-opacity="0.3"/>
<path d="M57.2483 53.2557C58.5338 53.2334 59.6535 54.2942 59.7103 55.5869C59.7692 56.9364 58.6728 58.1129 57.3284 58.1423C56.0486 58.1702 54.9259 57.1038 54.8681 55.8054C54.8086 54.4507 55.9019 53.2789 57.2483 53.2557Z" fill="white" fill-opacity="0.3"/>
<path d="M10.227 92.6128C11.5574 92.6298 12.5939 93.6616 12.6094 94.9843C12.6259 96.3612 11.5368 97.439 10.149 97.4199C8.8294 97.4013 7.78161 96.3576 7.76405 95.0442C7.74596 93.673 8.83819 92.5952 10.227 92.6128Z" fill="white" fill-opacity="0.3"/>
<path d="M39.1615 63.6774C39.1268 62.3599 40.1354 61.278 41.4539 61.2176C42.8531 61.1535 43.9691 62.177 44.0037 63.5555C44.0368 64.8782 43.0324 65.9596 41.7154 66.019C40.3276 66.082 39.1971 65.045 39.1615 63.6774Z" fill="white" fill-opacity="0.3"/>
<path d="M157.183 79.3329C157.174 78.0113 158.218 76.9351 159.52 76.9247C160.801 76.9149 161.915 78.0097 161.928 79.2921C161.942 80.5827 160.862 81.676 159.561 81.69C158.242 81.7034 157.193 80.6639 157.183 79.3329Z" fill="white" fill-opacity="0.3"/>
<path d="M88.8148 50.2914C87.5118 50.2872 86.4273 49.2038 86.4309 47.9111C86.4345 46.6292 87.5402 45.5266 88.822 45.5261C90.123 45.5256 91.177 46.5972 91.1755 47.9178C91.1739 49.2498 90.1333 50.296 88.8148 50.2914Z" fill="white" fill-opacity="0.3"/>
<path d="M164.976 87.2193C164.983 85.8795 166.035 84.8488 167.367 84.8777C168.616 84.9051 169.661 85.9379 169.693 87.1784C169.727 88.4603 168.634 89.583 167.338 89.5965C166.015 89.6104 164.97 88.5585 164.976 87.2193Z" fill="white" fill-opacity="0.3"/>
<path d="M25.8402 69.0405C27.1484 69.0173 28.2598 70.0868 28.2691 71.379C28.2784 72.6645 27.1696 73.766 25.8744 73.7583C24.6054 73.7505 23.5922 72.7575 23.5519 71.4818C23.5096 70.1307 24.5093 69.0643 25.8402 69.0405Z" fill="white" fill-opacity="0.3"/>
<path d="M151.636 69.0305C152.972 69.0408 153.984 70.0746 153.972 71.418C153.961 72.7525 152.917 73.7843 151.592 73.7699C150.298 73.7559 149.213 72.6585 149.225 71.3741C149.237 70.0819 150.329 69.0206 151.636 69.0305Z" fill="white" fill-opacity="0.3"/>
<path d="M78.5665 47.8851C78.5815 46.5608 79.666 45.5084 80.9722 45.5513C82.2148 45.5921 83.2579 46.6419 83.2822 47.8763C83.308 49.1721 82.2303 50.2566 80.9117 50.2617C79.573 50.2664 78.5516 49.231 78.5665 47.8851Z" fill="white" fill-opacity="0.3"/>
<path d="M143.9 65.9701C142.628 66.0073 141.492 64.9208 141.471 63.6472C141.449 62.3762 142.551 61.27 143.838 61.27C145.097 61.27 146.116 62.2548 146.162 63.516C146.21 64.8392 145.204 65.9319 143.9 65.9701Z" fill="white" fill-opacity="0.3"/>
<path d="M17.9133 76.947C19.2194 76.9119 20.2977 77.9695 20.3065 79.2947C20.3153 80.5895 19.3693 81.5955 18.0869 81.6544C16.7653 81.7153 15.6456 80.7032 15.5909 79.3986C15.5376 78.1234 16.619 76.9816 17.9133 76.947Z" fill="white" fill-opacity="0.3"/>
<path d="M94.2234 47.9832C94.1815 46.707 95.2728 45.5719 96.5644 45.5487C97.8158 45.5259 98.8739 46.52 98.9365 47.7776C99.0041 49.1359 98.04 50.2059 96.7008 50.2581C95.3802 50.3093 94.2658 49.2857 94.2234 47.9832Z" fill="white" fill-opacity="0.3"/>
<path d="M125.621 55.6886C125.626 54.4005 126.744 53.3099 128.037 53.331C129.35 53.3522 130.373 54.4367 130.337 55.7697C130.303 57.0557 129.313 58.0281 128.025 58.04C126.703 58.0519 125.616 56.9885 125.621 55.6886Z" fill="white" fill-opacity="0.3"/>
<path d="M33.8557 61.2817C35.1645 61.3096 36.1797 62.4101 36.1193 63.7349C36.0619 64.9852 34.9934 65.9922 33.7565 65.9612C32.532 65.9307 31.4723 64.8576 31.4589 63.6357C31.4455 62.3595 32.5708 61.2543 33.8557 61.2817Z" fill="white" fill-opacity="0.3"/>
<path d="M10.186 84.8978C11.4394 84.8968 12.4692 85.9043 12.5017 87.1634C12.5358 88.4799 11.4833 89.5778 10.1875 89.5773C8.9093 89.5768 7.80052 88.4355 7.84392 87.1655C7.88628 85.9291 8.95012 84.8989 10.186 84.8978Z" fill="white" fill-opacity="0.3"/>
<path d="M104.489 45.578C105.795 45.5599 106.907 46.6604 106.885 47.95C106.863 49.2009 105.825 50.2224 104.558 50.241C103.266 50.2601 102.244 49.2991 102.194 48.0198C102.143 46.6801 103.161 45.5966 104.489 45.578Z" fill="white" fill-opacity="0.3"/>
<path d="M72.9476 50.241C71.6797 50.2224 70.6422 49.2009 70.6205 47.95C70.5983 46.6599 71.7096 45.5594 73.0163 45.5775C74.3441 45.5961 75.3625 46.6796 75.3108 48.0193C75.2617 49.2991 74.2393 50.2601 72.9476 50.241Z" fill="white" fill-opacity="0.3"/>
<path d="M47.1807 55.7155C47.1714 54.3804 48.2347 53.3249 49.5599 53.3543C50.8118 53.3822 51.8581 54.4331 51.8715 55.6752C51.8855 56.9772 50.7917 58.0405 49.4602 58.0183C48.1696 57.9971 47.19 57.0072 47.1807 55.7155Z" fill="white" fill-opacity="0.3"/>
<path d="M114.622 48.0322C114.548 49.3414 113.417 50.3055 112.083 50.196C110.82 50.0927 109.909 49.0138 110.005 47.7335C110.099 46.4646 111.151 45.5615 112.45 45.6343C113.712 45.7051 114.692 46.787 114.622 48.0322Z" fill="white" fill-opacity="0.3"/>
<path d="M172.939 95.0513C172.916 93.8041 173.954 92.7253 175.198 92.702C176.436 92.6788 177.508 93.7235 177.527 94.9748C177.547 96.2262 176.517 97.3024 175.274 97.3272C174.04 97.352 172.96 96.3001 172.939 95.0513Z" fill="white" fill-opacity="0.3"/>
<path d="M65.1679 50.1912C63.8933 50.1747 62.8873 49.1439 62.9106 47.8781C62.9338 46.604 63.9568 45.627 65.2464 45.6471C66.5366 45.6673 67.5182 46.6748 67.4965 47.9566C67.4743 49.2318 66.457 50.2083 65.1679 50.1912Z" fill="white" fill-opacity="0.3"/>
<path d="M135.942 53.4412C137.233 53.4531 138.213 54.4688 138.18 55.76C138.147 56.9907 137.186 57.9403 135.955 57.9584C134.672 57.977 133.643 56.9757 133.638 55.7042C133.634 54.4285 134.651 53.4293 135.942 53.4412Z" fill="white" fill-opacity="0.3"/>
<path d="M41.608 57.9454C40.3282 57.9563 39.3388 56.9653 39.3476 55.6814C39.3558 54.4471 40.2791 53.4938 41.5041 53.4556C42.7834 53.4158 43.8256 54.3866 43.855 55.6452C43.8845 56.8976 42.8713 57.9346 41.608 57.9454Z" fill="white" fill-opacity="0.3"/>
<path d="M0.000140667 95.0584C-0.0262094 93.8271 1.02417 92.7447 2.25436 92.7354C3.44838 92.7261 4.44969 93.6876 4.50549 94.8972C4.56439 96.1769 3.60648 97.2372 2.34736 97.2862C1.11923 97.3338 0.0264907 96.2968 0.000140667 95.0584Z" fill="white" fill-opacity="0.3"/>
<path d="M57.2729 50.1556C56.021 50.1494 54.981 49.0763 55.028 47.8399C55.074 46.6381 56.0748 45.6859 57.29 45.6869C58.5786 45.6885 59.5432 46.6944 59.5039 47.9954C59.4672 49.2266 58.5016 50.1618 57.2729 50.1556Z" fill="white" fill-opacity="0.3"/>
<path d="M118.002 47.8839C118.018 46.6439 118.957 45.701 120.19 45.6865C121.461 45.672 122.5 46.7002 122.477 47.9516C122.456 49.1978 121.376 50.2063 120.121 50.1536C118.899 50.1025 117.986 49.1239 118.002 47.8839Z" fill="white" fill-opacity="0.3"/>
<path d="M159.526 69.1374C160.727 69.1307 161.718 70.0994 161.754 71.3172C161.793 72.6073 160.81 73.6391 159.54 73.6417C158.349 73.6438 157.325 72.66 157.28 71.4707C157.234 70.2415 158.29 69.1441 159.526 69.1374Z" fill="white" fill-opacity="0.3"/>
<path d="M151.559 61.3788C152.742 61.3441 153.798 62.3253 153.858 63.5167C153.918 64.702 152.958 65.7534 151.753 65.8232C150.462 65.8976 149.426 64.9309 149.412 63.6407C149.4 62.4111 150.346 61.4144 151.559 61.3788Z" fill="white" fill-opacity="0.3"/>
<path d="M15.7655 71.4345C15.7464 70.2022 16.6816 69.204 17.8968 69.1601C19.1326 69.1152 20.2311 70.1857 20.2146 71.4205C20.1991 72.6125 19.1879 73.6024 17.981 73.6076C16.7446 73.6128 15.7846 72.6714 15.7655 71.4345Z" fill="white" fill-opacity="0.3"/>
<path d="M167.264 77.0963C168.5 77.0699 169.48 77.9979 169.519 79.2317C169.559 80.528 168.57 81.5552 167.293 81.5422C166.102 81.5304 165.082 80.5146 165.073 79.3299C165.064 78.1379 166.061 77.1216 167.264 77.0963Z" fill="white" fill-opacity="0.3"/>
<path d="M23.6579 63.5728C23.6852 62.3813 24.7284 61.3857 25.926 61.4074C27.1511 61.4291 28.0976 62.4185 28.0775 63.6559C28.0573 64.896 27.0906 65.8249 25.8429 65.8027C24.624 65.781 23.6305 64.7668 23.6579 63.5728Z" fill="white" fill-opacity="0.3"/>
<path d="M7.99998 79.3581C7.9788 78.1325 8.90517 77.1452 10.1147 77.1049C11.3532 77.0636 12.4361 78.115 12.4191 79.341C12.402 80.5097 11.3723 81.5276 10.2005 81.5338C8.99766 81.54 8.02168 80.5748 7.99998 79.3581Z" fill="white" fill-opacity="0.3"/>
<path d="M143.804 53.5102C144.989 53.4911 146.023 54.511 146.021 55.6989C146.02 56.8794 144.972 57.9143 143.8 57.8901C142.657 57.8668 141.705 56.9151 141.672 55.7629C141.637 54.5472 142.601 53.5299 143.804 53.5102Z" fill="white" fill-opacity="0.3"/>
<path d="M173.057 87.2117C173.067 85.9893 174.032 85.0463 175.258 85.0587C176.467 85.0711 177.462 86.0688 177.448 87.2541C177.434 88.4491 176.435 89.4101 175.216 89.4013C173.983 89.3936 173.047 88.4439 173.057 87.2117Z" fill="white" fill-opacity="0.3"/>
<path d="M125.835 47.8684C125.86 46.6543 126.882 45.6829 128.082 45.733C129.22 45.7811 130.171 46.7602 130.184 47.8968C130.197 49.0754 129.16 50.1196 127.985 50.1103C126.789 50.1004 125.81 49.0795 125.835 47.8684Z" fill="white" fill-opacity="0.3"/>
<path d="M49.5662 45.7298C50.769 45.7649 51.7197 46.7951 51.6706 48.0109C51.6246 49.1599 50.6558 50.1039 49.5161 50.1101C48.3406 50.1168 47.3058 49.0706 47.3213 47.8926C47.3368 46.7032 48.383 45.6952 49.5662 45.7298Z" fill="white" fill-opacity="0.3"/>
<path d="M31.6552 55.7575C31.6226 54.549 32.6167 53.5213 33.8138 53.526C34.949 53.5301 35.9286 54.4922 35.9621 55.6366C35.9973 56.8311 34.982 57.8805 33.7968 57.8738C32.658 57.8665 31.6862 56.9066 31.6552 55.7575Z" fill="white" fill-opacity="0.3"/>
<path d="M86.6573 39.9655C86.6738 38.7436 87.6545 37.8141 88.8914 37.8487C90.058 37.8813 90.988 38.8102 91.0087 39.9629C91.0309 41.1688 90.0523 42.1479 88.8247 42.1495C87.5919 42.1505 86.6413 41.1926 86.6573 39.9655Z" fill="white" fill-opacity="0.3"/>
<path d="M78.7435 40.0048C78.7399 38.8392 79.6539 37.9025 80.8288 37.8679C82.0745 37.8312 83.0551 38.7664 83.0572 39.993C83.0592 41.2164 82.0791 42.1625 80.8412 42.1325C79.6688 42.1036 78.7471 41.1694 78.7435 40.0048Z" fill="white" fill-opacity="0.3"/>
<path d="M94.4488 40.0595C94.4157 38.8887 95.3003 37.9313 96.471 37.8704C97.7203 37.8053 98.7201 38.71 98.7558 39.9391C98.7893 41.1042 97.8955 42.0714 96.7304 42.1314C95.4883 42.1944 94.4834 41.2819 94.4488 40.0595Z" fill="white" fill-opacity="0.3"/>
<path d="M70.842 40.0193C70.8301 38.8558 71.7524 37.9097 72.9258 37.8818C74.1224 37.8534 75.0591 38.725 75.1045 39.9087C75.1521 41.1498 74.2061 42.1278 72.9666 42.1191C71.7932 42.1103 70.8534 41.1818 70.842 40.0193Z" fill="white" fill-opacity="0.3"/>
<path d="M104.505 37.8831C105.691 37.8754 106.632 38.7744 106.662 39.9431C106.694 41.1635 105.713 42.14 104.478 42.1178C103.299 42.0971 102.391 41.1661 102.397 39.9849C102.403 38.8007 103.315 37.8909 104.505 37.8831Z" fill="white" fill-opacity="0.3"/>
<path d="M183.047 97.1106C181.896 97.1266 180.922 96.1925 180.898 95.0512C180.874 93.9104 181.816 92.9447 182.973 92.924C184.153 92.9028 185.076 93.7962 185.093 94.9773C185.11 96.161 184.214 97.0941 183.047 97.1106Z" fill="white" fill-opacity="0.3"/>
<path d="M112.269 37.9098C113.432 37.8938 114.397 38.8151 114.418 39.961C114.438 41.0972 113.49 42.0737 112.344 42.0959C111.177 42.1192 110.242 41.2109 110.223 40.0354C110.204 38.8492 111.092 37.9259 112.269 37.9098Z" fill="white" fill-opacity="0.3"/>
<path d="M63.0878 39.9534C63.1136 38.8069 64.0808 37.8904 65.2439 37.91C66.4219 37.9296 67.3043 38.854 67.2816 40.0433C67.2589 41.2188 66.3216 42.1229 65.1534 42.0961C64.0075 42.0702 63.062 41.0896 63.0878 39.9534Z" fill="white" fill-opacity="0.3"/>
<path d="M161.639 63.6257C161.633 64.7592 160.637 65.7233 159.496 65.7011C158.331 65.6789 157.438 64.7226 157.477 63.5378C157.513 62.4136 158.395 61.5476 159.515 61.5383C160.671 61.5285 161.646 62.4874 161.639 63.6257Z" fill="white" fill-opacity="0.3"/>
<path d="M167.338 69.3173C168.494 69.3302 169.451 70.3109 169.417 71.4486C169.383 72.5894 168.376 73.5271 167.233 73.4806C166.126 73.4357 165.261 72.5331 165.253 71.4129C165.245 70.2298 166.166 69.3044 167.338 69.3173Z" fill="white" fill-opacity="0.3"/>
<path d="M17.9765 65.6917C16.8408 65.6953 15.8473 64.6811 15.885 63.5569C15.9217 62.4667 16.8615 61.5558 17.9568 61.5491C19.125 61.5418 20.0478 62.4946 20.0168 63.6757C19.9878 64.7922 19.0811 65.6881 17.9765 65.6917Z" fill="white" fill-opacity="0.3"/>
<path d="M10.1553 69.3288C11.2677 69.3107 12.1879 70.1813 12.2344 71.2968C12.284 72.4764 11.3756 73.4555 10.2167 73.4715C9.08162 73.487 8.07876 72.4841 8.10304 71.3578C8.12681 70.2717 9.06149 69.3469 10.1553 69.3288Z" fill="white" fill-opacity="0.3"/>
<path d="M120.181 37.943C121.285 37.9207 122.218 38.813 122.252 39.927C122.287 41.043 121.425 41.9952 120.324 42.0582C119.199 42.1223 118.155 41.1339 118.153 40.0009C118.151 38.92 119.092 37.9647 120.181 37.943Z" fill="white" fill-opacity="0.3"/>
<path d="M133.86 47.8569C133.889 46.6799 134.854 45.7721 136.014 45.8305C137.102 45.8853 138.012 46.8251 138.02 47.9023C138.029 49.0369 137.054 49.9933 135.9 49.9835C134.713 49.9737 133.83 49.054 133.86 47.8569Z" fill="white" fill-opacity="0.3"/>
<path d="M39.4872 47.9836C39.4458 46.8624 40.4151 45.8482 41.5497 45.8249C42.6544 45.8022 43.5787 46.6635 43.6438 47.7764C43.7141 48.9766 42.8709 49.9268 41.6877 49.981C40.5319 50.0337 39.529 49.1233 39.4872 47.9836Z" fill="white" fill-opacity="0.3"/>
<path d="M175.266 77.2576C176.446 77.2762 177.333 78.2269 177.281 79.4157C177.232 80.5431 176.339 81.376 175.198 81.3589C174.092 81.3424 173.171 80.4377 173.15 79.3486C173.128 78.2155 174.117 77.239 175.266 77.2576Z" fill="white" fill-opacity="0.3"/>
<path d="M149.555 55.6427C149.589 54.5469 150.524 53.6608 151.635 53.6706C152.823 53.6815 153.716 54.6347 153.65 55.821C153.587 56.9422 152.67 57.7621 151.526 57.7187C150.419 57.6764 149.522 56.7319 149.555 55.6427Z" fill="white" fill-opacity="0.3"/>
<path d="M57.2906 42.0446C56.1963 42.0472 55.2663 41.1115 55.2632 40.0037C55.2596 38.8903 56.1746 37.9619 57.2798 37.9577C58.3725 37.9536 59.3201 38.897 59.3232 39.9924C59.3263 41.081 58.3746 42.042 57.2906 42.0446Z" fill="white" fill-opacity="0.3"/>
<path d="M25.9147 57.702C24.7754 57.7144 23.8821 56.8521 23.8676 55.7242C23.8526 54.5916 24.7212 53.7071 25.861 53.6937C26.9925 53.6807 27.9049 54.556 27.9214 55.6699C27.9374 56.7839 27.0431 57.6896 25.9147 57.702Z" fill="white" fill-opacity="0.3"/>
<path d="M185.023 87.2198C185.03 88.3224 184.085 89.2725 182.995 89.2607C181.901 89.2483 180.984 88.2831 181.014 87.1764C181.042 86.1229 181.925 85.2348 182.969 85.2074C184.06 85.179 185.016 86.1157 185.023 87.2198Z" fill="white" fill-opacity="0.3"/>
<path d="M126.059 39.8732C126.117 38.8186 127.021 37.9801 128.059 38.0168C129.153 38.0555 130.051 39.0403 129.977 40.1201C129.906 41.1633 128.988 42.0024 127.949 41.9734C126.839 41.9424 125.996 41.0062 126.059 39.8732Z" fill="white" fill-opacity="0.3"/>
<path d="M143.834 45.9493C144.969 45.9477 145.869 46.8638 145.831 47.9808C145.795 49.0426 144.918 49.8858 143.846 49.8909C142.7 49.8961 141.835 49.0049 141.868 47.8542C141.9 46.7579 142.733 45.9508 143.834 45.9493Z" fill="white" fill-opacity="0.3"/>
<path d="M47.5236 39.9797C47.5334 38.8947 48.5109 37.9637 49.5861 38.0138C50.6298 38.0629 51.4621 38.9531 51.4544 40.0123C51.4472 41.0807 50.6086 41.9451 49.553 41.973C48.4618 42.002 47.5137 41.0709 47.5236 39.9797Z" fill="white" fill-opacity="0.3"/>
<path d="M86.8949 32.1719C86.9171 31.1024 87.7794 30.2535 88.836 30.2608C89.8704 30.268 90.7735 31.1619 90.7885 32.1926C90.8045 33.2812 89.8497 34.2004 88.7461 34.1585C87.6715 34.1172 86.8722 33.2595 86.8949 32.1719Z" fill="white" fill-opacity="0.3"/>
<path d="M33.8417 49.8786C32.766 49.8972 31.9109 49.0933 31.8623 48.0171C31.8101 46.87 32.6445 45.9757 33.7792 45.9617C34.8936 45.9483 35.8107 46.8582 35.7874 47.9545C35.7652 48.9961 34.891 49.8605 33.8417 49.8786Z" fill="white" fill-opacity="0.3"/>
<path d="M80.931 34.1581C79.8781 34.1736 78.977 33.3258 78.9372 32.2826C78.8959 31.2028 79.8491 30.2377 80.9357 30.2588C81.9876 30.2795 82.8318 31.1527 82.8318 32.2191C82.8318 33.3041 82.0098 34.1426 80.931 34.1581Z" fill="white" fill-opacity="0.3"/>
<path d="M94.6753 32.1704C94.6981 31.1009 95.5609 30.2525 96.6175 30.2608C97.6519 30.269 98.555 31.1629 98.569 32.1936C98.584 33.2823 97.6286 34.2009 96.525 34.158C95.4509 34.1167 94.6521 33.2585 94.6753 32.1704Z" fill="white" fill-opacity="0.3"/>
<path d="M167.251 61.6916C168.322 61.6539 169.195 62.4765 169.225 63.5511C169.256 64.646 168.46 65.4959 167.376 65.5259C166.313 65.5553 165.406 64.7199 165.366 63.6757C165.328 62.6501 166.203 61.7283 167.251 61.6916Z" fill="white" fill-opacity="0.3"/>
<path d="M175.218 69.4683C176.26 69.4595 177.174 70.3446 177.187 71.3743C177.2 72.4103 176.317 73.2932 175.258 73.3036C174.164 73.3144 173.333 72.5022 173.323 71.4136C173.313 70.3358 174.15 69.4771 175.218 69.4683Z" fill="white" fill-opacity="0.3"/>
<path d="M104.523 34.1263C103.458 34.1273 102.571 33.2624 102.568 32.2203C102.566 31.1927 103.471 30.2957 104.515 30.2916C105.586 30.2869 106.431 31.1322 106.433 32.2115C106.435 33.3038 105.616 34.1253 104.523 34.1263Z" fill="white" fill-opacity="0.3"/>
<path d="M157.612 55.6482C157.642 54.6019 158.574 53.7344 159.618 53.7799C160.677 53.8259 161.493 54.7414 161.432 55.8151C161.376 56.8128 160.509 57.6317 159.52 57.6219C158.483 57.6115 157.581 56.6795 157.612 55.6482Z" fill="white" fill-opacity="0.3"/>
<path d="M16.0865 55.6628C16.1036 54.6543 16.9329 53.8147 17.9342 53.794C18.9784 53.7723 19.8856 54.6817 19.8655 55.7305C19.8464 56.7261 18.9959 57.5822 18.0049 57.6034C16.9644 57.6262 16.0685 56.7204 16.0865 55.6628Z" fill="white" fill-opacity="0.3"/>
<path d="M189.009 95.08C188.967 94.042 189.838 93.141 190.9 93.1239C191.937 93.1074 192.76 93.8571 192.826 94.8775C192.897 95.9703 192.119 96.8471 191.034 96.8972C189.959 96.9468 189.053 96.134 189.009 95.08Z" fill="white" fill-opacity="0.3"/>
<path d="M10.1273 65.5027C9.04126 65.4717 8.24559 64.6094 8.29622 63.5176C8.34376 62.492 9.15028 61.7269 10.1852 61.7248C11.248 61.7227 12.1361 62.6052 12.1175 63.6442C12.0994 64.6879 11.1942 65.5332 10.1273 65.5027Z" fill="white" fill-opacity="0.3"/>
<path d="M73.149 30.3341C74.2066 30.4184 75.0199 31.3871 74.8964 32.4158C74.7688 33.4776 73.8351 34.2071 72.7527 34.0908C71.7333 33.9813 71.0275 33.1298 71.0916 32.0887C71.1583 31.0156 72.0593 30.2473 73.149 30.3341Z" fill="white" fill-opacity="0.3"/>
<path d="M151.611 46.0316C152.608 46.0279 153.456 46.867 153.478 47.8781C153.499 48.8872 152.69 49.7562 151.688 49.8012C150.65 49.8477 149.73 48.9399 149.748 47.8859C149.764 46.8851 150.619 46.0352 151.611 46.0316Z" fill="white" fill-opacity="0.3"/>
<path d="M183.015 77.4297C184.013 77.4297 184.858 78.2703 184.876 79.2814C184.895 80.2899 184.082 81.158 183.08 81.1993C182.042 81.2422 181.126 80.3323 181.146 79.2778C181.166 78.278 182.024 77.4297 183.015 77.4297Z" fill="white" fill-opacity="0.3"/>
<path d="M112.325 30.3511C113.363 30.3635 114.16 31.1447 114.184 32.1729C114.208 33.2579 113.374 34.0949 112.279 34.084C111.261 34.0742 110.43 33.2677 110.403 32.2643C110.374 31.2108 111.25 30.3387 112.325 30.3511Z" fill="white" fill-opacity="0.3"/>
<path d="M134.018 39.9854C134.025 38.9314 134.926 38.0892 136.001 38.1316C137.034 38.1724 137.81 38.982 137.803 40.0117C137.795 41.0957 136.937 41.9033 135.837 41.8624C134.827 41.8252 134.011 40.9831 134.018 39.9854Z" fill="white" fill-opacity="0.3"/>
<path d="M41.5641 38.1525C42.6015 38.1406 43.42 38.9198 43.4479 39.9448C43.4758 40.9725 42.6987 41.8043 41.6721 41.8451C40.5793 41.8885 39.7082 41.0598 39.716 39.9836C39.7237 38.9601 40.5261 38.1644 41.5641 38.1525Z" fill="white" fill-opacity="0.3"/>
<path d="M67.0679 32.2701C67.039 33.2936 66.218 34.0779 65.1862 34.0681C64.1002 34.0578 63.2715 33.1743 63.3402 32.0991C63.4053 31.074 64.2397 30.3362 65.2885 30.3755C66.3183 30.4142 67.0969 31.243 67.0679 32.2701Z" fill="white" fill-opacity="0.3"/>
<path d="M24.0605 47.9627C24.0372 46.935 24.8349 46.081 25.8445 46.0541C26.8319 46.0277 27.7143 46.872 27.7412 47.8686C27.7681 48.8627 26.9321 49.7493 25.9391 49.7798C24.9403 49.8103 24.0837 48.9821 24.0605 47.9627Z" fill="white" fill-opacity="0.3"/>
<path d="M120.164 34.0405C119.158 34.0115 118.332 33.127 118.381 32.1334C118.432 31.1228 119.308 30.3489 120.335 30.4083C121.315 30.4651 122.034 31.2422 122.025 32.2352C122.015 33.2753 121.196 34.0704 120.164 34.0405Z" fill="white" fill-opacity="0.3"/>
<path d="M55.5019 32.2006C55.5097 31.2086 56.2563 30.4429 57.2384 30.4191C58.2501 30.3943 59.1227 31.2417 59.1109 32.2363C59.0985 33.2293 58.2 34.0715 57.2028 34.0245C56.2258 33.978 55.4937 33.1931 55.5019 32.2006Z" fill="white" fill-opacity="0.3"/>
<path d="M190.891 89.0282C189.925 89.0034 189.16 88.2041 189.165 87.2235C189.169 86.2403 189.937 85.4601 190.912 85.4477C191.915 85.4348 192.789 86.3276 192.736 87.3134C192.686 88.2548 191.828 89.0525 190.891 89.0282Z" fill="white" fill-opacity="0.3"/>
<path d="M143.782 38.2106C144.756 38.1807 145.56 38.9319 145.603 39.9115C145.648 40.9485 144.835 41.8067 143.819 41.7953C142.886 41.7844 142.042 40.9459 142.03 40.0174C142.018 39.0854 142.839 38.2396 143.782 38.2106Z" fill="white" fill-opacity="0.3"/>
<path d="M175.276 61.8443C176.242 61.8686 177.01 62.6803 176.988 63.6563C176.967 64.6209 176.141 65.4217 175.194 65.3969C174.261 65.3726 173.435 64.5052 173.459 63.5752C173.483 62.6291 174.332 61.8205 175.276 61.8443Z" fill="white" fill-opacity="0.3"/>
<path d="M33.8685 38.2276C34.8373 38.2643 35.5916 39.0822 35.5591 40.0597C35.527 41.0239 34.6921 41.8154 33.7456 41.7787C32.8109 41.7425 31.9961 40.8663 32.0323 39.9378C32.0695 38.9887 32.9256 38.1915 33.8685 38.2276Z" fill="white" fill-opacity="0.3"/>
<path d="M129.737 32.2758C129.705 33.2353 128.848 34.0315 127.908 33.9746C127.015 33.9204 126.259 33.1247 126.252 32.2288C126.245 31.2802 127.081 30.4479 128.025 30.4634C128.981 30.4794 129.769 31.3138 129.737 32.2758Z" fill="white" fill-opacity="0.3"/>
<path d="M165.566 55.7036C165.562 54.7193 166.323 53.9573 167.313 53.9557C168.292 53.9542 169.088 54.7307 169.092 55.6917C169.096 56.6558 168.309 57.4334 167.324 57.437C166.33 57.4401 165.569 56.6904 165.566 55.7036Z" fill="white" fill-opacity="0.3"/>
<path d="M47.7694 32.1563C47.8019 31.1937 48.6528 30.4084 49.6004 30.4658C50.4984 30.5205 51.2481 31.3126 51.2517 32.2105C51.2553 33.1633 50.4199 33.9951 49.478 33.9765C48.5268 33.9579 47.7368 33.1163 47.7694 32.1563Z" fill="white" fill-opacity="0.3"/>
<path d="M181.314 71.3512C181.336 70.4346 182.092 69.6741 182.994 69.6602C183.936 69.6457 184.764 70.4899 184.739 71.4385C184.715 72.3355 183.938 73.111 183.044 73.1286C182.09 73.1472 181.291 72.3257 181.314 71.3512Z" fill="white" fill-opacity="0.3"/>
<path d="M10.3518 54.0058C11.2684 54.0828 11.9597 54.8733 11.9101 55.7873C11.8574 56.7576 11.0225 57.4737 10.0356 57.3936C9.11649 57.3192 8.44173 56.5416 8.48772 55.6091C8.5368 54.6222 9.35157 53.9216 10.3518 54.0058Z" fill="white" fill-opacity="0.3"/>
<path d="M159.47 46.2232C160.472 46.1896 161.241 46.93 161.237 47.9257C161.234 48.8608 160.523 49.5929 159.593 49.6203C158.608 49.6493 157.811 48.883 157.815 47.9107C157.819 46.9863 158.537 46.2542 159.47 46.2232Z" fill="white" fill-opacity="0.3"/>
<path d="M17.9789 46.2387C18.9084 46.2444 19.6576 46.9729 19.6746 47.888C19.6922 48.8495 18.8738 49.6421 17.9014 49.6054C16.9735 49.5702 16.2796 48.8237 16.2977 47.8792C16.3163 46.9342 17.035 46.2331 17.9789 46.2387Z" fill="white" fill-opacity="0.3"/>
<path d="M94.9306 24.2322C94.9637 23.2913 95.6968 22.601 96.6413 22.6217C97.5698 22.6418 98.307 23.3843 98.3076 24.2993C98.3081 25.2614 97.4778 26.0374 96.5054 25.9852C95.5806 25.9356 94.8975 25.1751 94.9306 24.2322Z" fill="white" fill-opacity="0.3"/>
<path d="M87.1498 24.3221C87.1379 23.3751 87.8328 22.6445 88.7701 22.6192C89.7559 22.5928 90.5557 23.3797 90.5262 24.3474C90.4988 25.2563 89.7331 25.9894 88.814 25.9863C87.8809 25.9832 87.1616 25.264 87.1498 24.3221Z" fill="white" fill-opacity="0.3"/>
<path d="M80.9471 22.6197C81.8859 22.6414 82.5829 23.3673 82.5741 24.3154C82.5658 25.2584 81.8502 25.9796 80.9166 25.9869C79.9437 25.9941 79.146 25.1726 79.1972 24.2167C79.2462 23.3022 80.0171 22.598 80.9471 22.6197Z" fill="white" fill-opacity="0.3"/>
<path d="M192.565 79.4346C192.505 80.3516 191.677 81.0621 190.778 80.9706C189.94 80.8854 189.237 80.0928 189.265 79.2666C189.296 78.3712 190.116 77.6205 191.014 77.6634C191.932 77.7073 192.627 78.5009 192.565 79.4346Z" fill="white" fill-opacity="0.3"/>
<path d="M198.897 96.6752C197.953 96.6995 197.222 96.0004 197.201 95.0539C197.181 94.1141 197.893 93.353 198.813 93.3298C199.702 93.307 200.515 94.0784 200.541 94.9697C200.567 95.8676 199.811 96.6514 198.897 96.6752Z" fill="white" fill-opacity="0.3"/>
<path d="M104.586 22.6341C105.518 22.6688 106.204 23.4215 106.169 24.3707C106.134 25.3043 105.372 26.0121 104.445 25.9713C103.546 25.932 102.791 25.1178 102.833 24.2306C102.874 23.3254 103.671 22.6 104.586 22.6341Z" fill="white" fill-opacity="0.3"/>
<path d="M71.3368 24.2507C71.361 23.3088 72.1009 22.6072 73.0397 22.6366C73.9553 22.6651 74.7034 23.4494 74.6729 24.3499C74.6424 25.2484 73.8416 25.9986 72.9405 25.9728C72.0141 25.9459 71.3125 25.1926 71.3368 24.2507Z" fill="white" fill-opacity="0.3"/>
<path d="M63.5908 24.3287C63.5748 23.3982 64.3276 22.6413 65.2452 22.6656C66.0951 22.6878 66.8262 23.422 66.8438 24.2698C66.8619 25.1518 66.0445 25.9666 65.1651 25.9423C64.308 25.9195 63.6058 25.1998 63.5908 24.3287Z" fill="white" fill-opacity="0.3"/>
<path d="M113.914 24.2575C113.936 25.1845 113.181 25.9584 112.273 25.9403C111.437 25.9238 110.686 25.1788 110.661 24.3412C110.635 23.4453 111.427 22.6476 112.327 22.6636C113.192 22.6791 113.894 23.3833 113.914 24.2575Z" fill="white" fill-opacity="0.3"/>
<path d="M149.986 39.9701C149.999 39.0302 150.744 38.3203 151.679 38.3565C152.534 38.3891 153.259 39.1088 153.286 39.9525C153.314 40.8453 152.549 41.6188 151.63 41.6244C150.681 41.6306 149.972 40.9171 149.986 39.9701Z" fill="white" fill-opacity="0.3"/>
<path d="M135.932 30.5729C136.868 30.5801 137.576 31.3215 137.55 32.266C137.526 33.1552 136.858 33.8227 135.968 33.847C135.051 33.8718 134.257 33.1273 134.245 32.234C134.234 31.3515 135.032 30.5656 135.932 30.5729Z" fill="white" fill-opacity="0.3"/>
<path d="M25.8269 38.3951C26.7734 38.3636 27.5112 39.073 27.505 40.0082C27.4993 40.887 26.8261 41.5753 25.9447 41.6026C25.0188 41.6316 24.2392 40.8912 24.2443 39.9891C24.25 39.1386 24.9594 38.4236 25.8269 38.3951Z" fill="white" fill-opacity="0.3"/>
<path d="M39.9719 32.1888C39.9858 31.31 40.6652 30.6306 41.5498 30.6104C42.4669 30.5903 43.2481 31.3513 43.2295 32.2472C43.2109 33.1586 42.4255 33.868 41.4914 33.8184C40.6079 33.7724 39.9574 33.0749 39.9719 32.1888Z" fill="white" fill-opacity="0.3"/>
<path d="M121.779 24.3117C121.773 25.1771 121.049 25.9041 120.202 25.8927C119.358 25.8818 118.631 25.1347 118.639 24.2858C118.647 23.4349 119.385 22.7012 120.227 22.7059C121.075 22.71 121.785 23.4442 121.779 24.3117Z" fill="white" fill-opacity="0.3"/>
<path d="M175.277 57.2871C174.432 57.3124 173.68 56.5958 173.655 55.7423C173.631 54.8923 174.337 54.1339 175.185 54.1018C176.028 54.0703 176.77 54.7838 176.796 55.6498C176.821 56.5193 176.132 57.2618 175.277 57.2871Z" fill="white" fill-opacity="0.3"/>
<path d="M183.022 62.0789C183.913 62.0831 184.57 62.7661 184.545 63.663C184.522 64.497 183.893 65.134 183.067 65.1604C182.204 65.1877 181.463 64.4913 181.449 63.6393C181.435 62.7863 182.152 62.0748 183.022 62.0789Z" fill="white" fill-opacity="0.3"/>
<path d="M198.845 85.6957C199.738 85.6916 200.402 86.369 200.385 87.2659C200.369 88.1008 199.746 88.7436 198.92 88.7777C198.059 88.8128 197.311 88.1231 197.288 87.2716C197.265 86.4196 197.976 85.6999 198.845 85.6957Z" fill="white" fill-opacity="0.3"/>
<path d="M165.788 47.9147C165.79 47.0389 166.508 46.3218 167.358 46.3471C168.201 46.3719 168.92 47.1448 168.881 47.9844C168.844 48.7734 168.148 49.4554 167.356 49.4771C166.49 49.5014 165.787 48.8008 165.788 47.9147Z" fill="white" fill-opacity="0.3"/>
<path d="M55.7561 24.2745C55.7691 23.3992 56.4981 22.6914 57.348 22.7301C58.1897 22.7684 58.9006 23.5547 58.8484 24.3892C58.7988 25.1797 58.0946 25.8482 57.301 25.8581C56.4325 25.8689 55.7432 25.1621 55.7561 24.2745Z" fill="white" fill-opacity="0.3"/>
<path d="M35.3127 32.1751C35.3349 33.0607 34.6457 33.7675 33.7771 33.7494C32.9825 33.7329 32.2881 33.0514 32.2618 32.263C32.2333 31.4166 32.9634 30.6866 33.8267 30.6969C34.6545 30.7067 35.292 31.3407 35.3127 32.1751Z" fill="white" fill-opacity="0.3"/>
<path d="M11.6935 47.9484C11.6765 48.803 11.0363 49.4318 10.1854 49.4287C9.35973 49.4261 8.66531 48.757 8.64671 47.9469C8.62708 47.0918 9.39485 46.3467 10.2561 46.386C11.0869 46.4242 11.7101 47.1016 11.6935 47.9484Z" fill="white" fill-opacity="0.3"/>
<path d="M145.345 32.2455C145.332 33.0748 144.692 33.7278 143.875 33.7475C143.024 33.7681 142.277 33.0345 142.292 32.1923C142.308 31.3444 143.069 30.6495 143.929 30.6981C144.752 30.7451 145.36 31.409 145.345 32.2455Z" fill="white" fill-opacity="0.3"/>
<path d="M189.445 71.4296C189.427 70.6081 190.058 69.9282 190.87 69.892C191.717 69.8543 192.481 70.5952 192.457 71.4322C192.435 72.2093 191.714 72.9104 190.936 72.912C190.138 72.913 189.462 72.2413 189.445 71.4296Z" fill="white" fill-opacity="0.3"/>
<path d="M158.048 40.0393C158.028 39.2173 158.653 38.5348 159.466 38.4945C160.312 38.4526 161.08 39.1899 161.061 40.0275C161.044 40.804 160.326 41.5093 159.547 41.5149C158.749 41.5206 158.07 40.851 158.048 40.0393Z" fill="white" fill-opacity="0.3"/>
<path d="M16.477 39.9828C16.4853 39.1789 17.2143 38.4814 18.0167 38.5108C18.8335 38.5408 19.4809 39.2584 19.4349 40.0825C19.3925 40.8451 18.7389 41.4817 17.9862 41.4925C17.2034 41.5039 16.4692 40.7697 16.477 39.9828Z" fill="white" fill-opacity="0.3"/>
<path d="M128.064 22.8476C128.912 22.8801 129.522 23.5549 129.466 24.3981C129.411 25.231 128.718 25.8153 127.866 25.7466C127.098 25.6851 126.496 25.0274 126.513 24.27C126.531 23.4547 127.228 22.8156 128.064 22.8476Z" fill="white" fill-opacity="0.3"/>
<path d="M49.512 22.8445C50.3433 22.8482 51.016 23.5296 50.9912 24.3419C50.9659 25.1572 50.2658 25.789 49.4293 25.7503C48.6378 25.7141 48.0524 25.1153 48.038 24.3269C48.0219 23.4847 48.6626 22.8409 49.512 22.8445Z" fill="white" fill-opacity="0.3"/>
<path d="M88.819 17.8136C88.0589 17.811 87.4291 17.1781 87.4167 16.403C87.4043 15.6322 88.014 14.9714 88.7683 14.9388C89.5583 14.9047 90.2801 15.6249 90.2548 16.4217C90.231 17.1729 89.5671 17.8161 88.819 17.8136Z" fill="white" fill-opacity="0.3"/>
<path d="M197.454 79.2682C197.477 78.4684 198.07 77.9006 198.87 77.9109C199.648 77.9207 200.271 78.5309 200.283 79.2935C200.296 80.1016 199.594 80.7691 198.776 80.7273C197.993 80.6875 197.431 80.066 197.454 79.2682Z" fill="white" fill-opacity="0.3"/>
<path d="M151.628 30.8135C152.369 30.8192 153.034 31.4851 153.032 32.2204C153.031 32.9649 152.378 33.6056 151.619 33.6066C150.84 33.6076 150.238 32.998 150.241 32.2116C150.245 31.4345 150.867 30.8078 151.628 30.8135Z" fill="white" fill-opacity="0.3"/>
<path d="M173.884 47.9183C173.883 47.1769 174.44 46.5802 175.167 46.5445C175.922 46.5073 176.622 47.1676 176.622 47.9168C176.622 48.6582 175.91 49.3356 175.169 49.2978C174.457 49.2617 173.885 48.6474 173.884 47.9183Z" fill="white" fill-opacity="0.3"/>
<path d="M206.629 96.4024C205.85 96.4003 205.252 95.7881 205.258 95.0017C205.264 94.2246 205.888 93.6005 206.65 93.6098C207.393 93.6186 208.054 94.2861 208.049 95.0218C208.044 95.7679 207.39 96.4039 206.629 96.4024Z" fill="white" fill-opacity="0.3"/>
<path d="M135.918 25.679C135.168 25.678 134.49 24.9706 134.531 24.2333C134.57 23.5358 135.209 22.9324 135.912 22.9288C136.696 22.9246 137.305 23.5705 137.269 24.3666C137.235 25.0972 136.635 25.68 135.918 25.679Z" fill="white" fill-opacity="0.3"/>
<path d="M183.075 57.0743C182.36 57.11 181.728 56.5504 181.665 55.8245C181.596 55.033 182.18 54.3561 182.96 54.3246C183.66 54.2962 184.323 54.8718 184.397 55.5708C184.474 56.2968 183.823 57.0371 183.075 57.0743Z" fill="white" fill-opacity="0.3"/>
<path d="M40.237 24.3329C40.2199 23.591 40.7624 22.9834 41.4883 22.9302C42.2422 22.8749 42.9546 23.5161 42.9748 24.2673C42.9944 25.0072 42.2985 25.6995 41.5545 25.6799C40.8368 25.6608 40.2535 25.0645 40.237 24.3329Z" fill="white" fill-opacity="0.3"/>
<path d="M96.595 17.7692C95.8169 17.7656 95.2191 17.1523 95.2268 16.3654C95.2346 15.5884 95.8597 14.9653 96.6213 14.9761C97.3643 14.9865 98.0246 15.6555 98.0179 16.3913C98.0106 17.1379 97.3545 17.7729 96.595 17.7692Z" fill="white" fill-opacity="0.3"/>
<path d="M80.9545 14.9719C81.713 15.0024 82.3045 15.6576 82.2761 16.4352C82.2477 17.22 81.6215 17.8002 80.8398 17.7651C80.0777 17.731 79.4572 17.0655 79.4928 16.3205C79.5274 15.5914 80.2306 14.943 80.9545 14.9719Z" fill="white" fill-opacity="0.3"/>
<path d="M25.8862 33.5628C25.0967 33.5617 24.4601 32.9113 24.5025 32.1502C24.5418 31.4455 25.1644 30.8601 25.8795 30.8554C26.6643 30.8508 27.2724 31.4889 27.2378 32.2809C27.2052 33.0265 26.639 33.5638 25.8862 33.5628Z" fill="white" fill-opacity="0.3"/>
<path d="M104.551 15.0162C105.281 15.0328 105.853 15.6088 105.87 16.3441C105.889 17.1521 105.291 17.7453 104.481 17.7236C103.749 17.7039 103.148 17.1211 103.129 16.4123C103.107 15.6662 103.787 14.9987 104.551 15.0162Z" fill="white" fill-opacity="0.3"/>
<path d="M72.9584 17.7263C72.2123 17.7134 71.6507 17.1585 71.6321 16.4155C71.6125 15.6235 72.2335 14.9988 73.0209 15.0195C73.737 15.0381 74.3487 15.6364 74.372 16.3406C74.3963 17.1011 73.7448 17.7403 72.9584 17.7263Z" fill="white" fill-opacity="0.3"/>
<path d="M110.952 16.3252C110.984 15.6075 111.586 15.0537 112.322 15.063C113.119 15.0733 113.698 15.7134 113.626 16.5055C113.558 17.2464 112.969 17.7409 112.211 17.6938C111.482 17.6479 110.919 17.0361 110.952 16.3252Z" fill="white" fill-opacity="0.3"/>
<path d="M167.283 38.7123C168.026 38.6948 168.607 39.2357 168.627 39.9627C168.646 40.686 168.087 41.2709 167.356 41.291C166.624 41.3117 166.032 40.7589 166.011 40.035C165.991 39.3039 166.543 38.7299 167.283 38.7123Z" fill="white" fill-opacity="0.3"/>
<path d="M189.626 63.6262C189.619 62.9003 190.188 62.3335 190.928 62.3294C191.664 62.3253 192.242 62.8853 192.246 63.6071C192.25 64.3289 191.678 64.9014 190.946 64.9081C190.217 64.9148 189.632 64.347 189.626 63.6262Z" fill="white" fill-opacity="0.3"/>
<path d="M63.8903 16.3758C63.8924 15.654 64.4685 15.0919 65.2047 15.0934C65.9436 15.0955 66.5166 15.6617 66.5124 16.3866C66.5088 17.1063 65.9234 17.6767 65.1939 17.6726C64.4612 17.668 63.8883 17.0981 63.8903 16.3758Z" fill="white" fill-opacity="0.3"/>
<path d="M8.89909 40.0345C8.87791 39.3664 9.39872 38.7945 10.0776 38.7397C10.8356 38.6782 11.4297 39.2089 11.4489 39.9637C11.4664 40.6597 10.9714 41.2151 10.2879 41.2657C9.55836 41.32 8.92183 40.7552 8.89909 40.0345Z" fill="white" fill-opacity="0.3"/>
<path d="M207.893 87.2712C207.874 87.9645 207.348 88.4905 206.659 88.5039C205.929 88.5179 205.322 87.916 205.342 87.1978C205.362 86.4739 205.99 85.9211 206.732 85.9743C207.421 86.0239 207.912 86.5726 207.893 87.2712Z" fill="white" fill-opacity="0.3"/>
<path d="M142.57 24.259C142.594 23.6184 143.193 23.0428 143.837 23.0417C144.563 23.0407 145.121 23.6597 145.064 24.4037C145.011 25.0914 144.456 25.5734 143.759 25.5347C143.102 25.4985 142.547 24.9028 142.57 24.259Z" fill="white" fill-opacity="0.3"/>
<path d="M197.581 71.3971C197.58 70.7482 198.148 70.1726 198.812 70.1504C199.5 70.1276 200.045 70.6334 200.079 71.3273C200.115 72.0719 199.539 72.6733 198.812 72.6495C198.162 72.6283 197.583 72.0393 197.581 71.3971Z" fill="white" fill-opacity="0.3"/>
<path d="M120.262 17.6317C119.606 17.6539 119.005 17.1166 118.957 16.463C118.904 15.7593 119.513 15.1295 120.237 15.1372C120.925 15.1444 121.446 15.6725 121.451 16.3684C121.456 17.0566 120.937 17.609 120.262 17.6317Z" fill="white" fill-opacity="0.3"/>
<path d="M56.0591 16.3122C56.0926 15.6183 56.6372 15.112 57.3254 15.1352C57.9888 15.1575 58.5572 15.733 58.5561 16.3815C58.5546 17.0826 57.8927 17.686 57.1875 17.6287C56.5137 17.5744 56.0255 17.0046 56.0591 16.3122Z" fill="white" fill-opacity="0.3"/>
<path d="M159.556 30.9922C160.203 31.0041 160.788 31.5998 160.778 32.2359C160.767 32.8672 160.155 33.4593 159.521 33.4511C158.861 33.4423 158.321 32.876 158.329 32.2017C158.336 31.5259 158.89 30.9803 159.556 30.9922Z" fill="white" fill-opacity="0.3"/>
<path d="M18.0007 33.4232C17.4117 33.4403 16.8376 32.9179 16.7844 32.316C16.7271 31.6655 17.2897 31.0331 17.9413 31.0145C18.5468 30.9974 19.0976 31.5012 19.1482 32.1191C19.203 32.7923 18.6651 33.4036 18.0007 33.4232Z" fill="white" fill-opacity="0.3"/>
<path d="M32.5723 24.2577C32.5986 23.5937 33.1984 23.0631 33.8784 23.1024C34.5779 23.1432 35.0698 23.7126 35.0089 24.4111C34.9526 25.0492 34.4483 25.4997 33.7937 25.4961C33.106 25.492 32.5459 24.9236 32.5723 24.2577Z" fill="white" fill-opacity="0.3"/>
<path d="M128.042 17.5451C127.443 17.5699 126.901 17.0652 126.865 16.4508C126.83 15.837 127.304 15.2718 127.901 15.2144C128.535 15.1535 129.162 15.7301 129.164 16.3775C129.165 16.9732 128.639 17.5203 128.042 17.5451Z" fill="white" fill-opacity="0.3"/>
<path d="M48.3454 16.3969C48.3361 15.7991 48.8497 15.2488 49.4496 15.2137C50.0949 15.1765 50.6715 15.7634 50.6441 16.4299C50.6188 17.0453 50.0861 17.5578 49.4852 17.5454C48.8895 17.5335 48.3547 16.9936 48.3454 16.3969Z" fill="white" fill-opacity="0.3"/>
<path d="M206.662 80.4316C206.02 80.4482 205.533 79.9594 205.539 79.3032C205.544 78.7023 205.962 78.2482 206.549 78.2043C207.171 78.1578 207.732 78.6445 207.766 79.2588C207.799 79.8638 207.279 80.4156 206.662 80.4316Z" fill="white" fill-opacity="0.3"/>
<path d="M183.066 49.0335C182.424 49.0624 181.926 48.5809 181.921 47.9268C181.916 47.3228 182.323 46.8634 182.911 46.8097C183.533 46.7524 184.102 47.2262 184.148 47.8405C184.193 48.4419 183.682 49.0056 183.066 49.0335Z" fill="white" fill-opacity="0.3"/>
<path d="M190.893 54.6096C191.462 54.5874 191.948 55.0188 192 55.5944C192.056 56.2118 191.568 56.777 190.963 56.7956C190.432 56.8122 189.889 56.3353 189.831 55.8016C189.767 55.2157 190.286 54.6334 190.893 54.6096Z" fill="white" fill-opacity="0.3"/>
<path d="M150.55 24.3318C150.533 23.748 150.954 23.2644 151.523 23.2127C152.122 23.1585 152.7 23.6689 152.72 24.2693C152.739 24.8537 152.172 25.4174 151.585 25.3982C151.033 25.3802 150.566 24.8986 150.55 24.3318Z" fill="white" fill-opacity="0.3"/>
<path d="M213.444 95.0534C213.421 94.5171 213.915 93.9828 214.473 93.942C215.072 93.8976 215.558 94.3047 215.614 94.8978C215.677 95.5638 215.221 96.0728 214.557 96.0748C213.976 96.0769 213.468 95.6098 213.444 95.0534Z" fill="white" fill-opacity="0.3"/>
<path d="M89.9286 8.6233C89.9146 9.17872 89.413 9.65458 88.8343 9.66078C88.1688 9.66801 87.7059 9.16839 87.7591 8.50188C87.8071 7.90513 88.2835 7.49231 88.8844 7.52796C89.4455 7.56103 89.942 8.08183 89.9286 8.6233Z" fill="white" fill-opacity="0.3"/>
<path d="M175.165 38.9192C175.724 38.8861 176.268 39.3398 176.33 39.8895C176.399 40.4961 175.876 41.0556 175.239 41.0582C174.629 41.0608 174.186 40.6366 174.166 40.03C174.147 39.4328 174.576 38.9543 175.165 38.9192Z" fill="white" fill-opacity="0.3"/>
<path d="M25.9105 23.237C26.471 23.2494 26.9438 23.7516 26.9319 24.3215C26.92 24.8867 26.4189 25.3786 25.8676 25.3651C25.324 25.3522 24.8213 24.8237 24.8337 24.2775C24.8466 23.7273 25.3659 23.2251 25.9105 23.237Z" fill="white" fill-opacity="0.3"/>
<path d="M95.5672 8.4697C95.639 7.89516 96.1412 7.51283 96.7339 7.58154C97.3068 7.64768 97.7176 8.16848 97.6416 8.73216C97.5636 9.3098 97.0599 9.69265 96.4714 9.62187C95.8886 9.5516 95.4944 9.0494 95.5672 8.4697Z" fill="white" fill-opacity="0.3"/>
<path d="M134.864 16.3427C134.887 15.7806 135.382 15.3332 135.958 15.3543C136.55 15.3755 136.984 15.8364 136.962 16.4208C136.939 17.0056 136.478 17.4246 135.878 17.4055C135.296 17.3874 134.841 16.91 134.864 16.3427Z" fill="white" fill-opacity="0.3"/>
<path d="M79.8491 8.56229C79.8718 8.00118 80.3678 7.55323 80.9439 7.57441C81.5365 7.59611 81.969 8.05595 81.9468 8.64134C81.924 9.22466 81.4611 9.64523 80.8628 9.62611C80.2815 9.607 79.8263 9.12959 79.8491 8.56229Z" fill="white" fill-opacity="0.3"/>
<path d="M41.5225 15.3919C42.08 15.3578 42.5026 15.7071 42.5667 16.2548C42.6375 16.8546 42.2309 17.347 41.6408 17.3759C41.0622 17.4044 40.5625 16.9373 40.5667 16.3726C40.5703 15.8549 40.9904 15.4245 41.5225 15.3919Z" fill="white" fill-opacity="0.3"/>
<path d="M198.854 62.6249C199.407 62.6238 199.81 63.0051 199.841 63.5569C199.874 64.1594 199.434 64.6239 198.839 64.6151C198.311 64.6073 197.872 64.1971 197.838 63.6778C197.799 63.1116 198.268 62.6259 198.854 62.6249Z" fill="white" fill-opacity="0.3"/>
<path d="M166.321 32.205C166.327 31.6573 166.72 31.2533 167.267 31.23C167.854 31.2052 168.346 31.6676 168.336 32.2344C168.325 32.8012 167.816 33.2549 167.237 33.212C166.702 33.1722 166.315 32.747 166.321 32.205Z" fill="white" fill-opacity="0.3"/>
<path d="M103.53 8.55243C103.554 8.00063 103.954 7.61519 104.507 7.61054C105.093 7.60537 105.568 8.08536 105.536 8.65163C105.505 9.22565 104.99 9.65449 104.407 9.59249C103.872 9.53565 103.506 9.10113 103.53 8.55243Z" fill="white" fill-opacity="0.3"/>
<path d="M71.9703 8.5307C72.0111 7.96082 72.5329 7.54594 73.1188 7.61724C73.6551 7.68285 74.009 8.12047 73.9718 8.67227C73.9346 9.21839 73.5203 9.60435 72.9767 9.59866C72.3934 9.5935 71.9294 9.10059 71.9703 8.5307Z" fill="white" fill-opacity="0.3"/>
<path d="M111.349 8.63531C111.33 8.07627 111.722 7.65105 112.272 7.63555C112.79 7.62109 113.27 8.0618 113.289 8.56814C113.308 9.07034 112.852 9.55395 112.34 9.57462C111.805 9.59683 111.367 9.18194 111.349 8.63531Z" fill="white" fill-opacity="0.3"/>
<path d="M9.20382 32.1629C9.23741 31.6457 9.71429 31.2282 10.2413 31.2551C10.7905 31.283 11.1713 31.7165 11.1387 32.2765C11.1067 32.8268 10.6645 33.2262 10.1271 33.19C9.61253 33.1559 9.17127 32.6646 9.20382 32.1629Z" fill="white" fill-opacity="0.3"/>
<path d="M65.2694 7.63848C65.8192 7.67413 66.1922 8.11072 66.1529 8.67182C66.1147 9.22156 65.6673 9.61474 65.1299 9.57134C64.6143 9.52949 64.1818 9.03555 64.2206 8.53283C64.2599 8.02185 64.7497 7.60438 65.2694 7.63848Z" fill="white" fill-opacity="0.3"/>
<path d="M213.628 87.224C213.633 86.6991 214.086 86.2532 214.599 86.2981C215.128 86.3446 215.423 86.6758 215.491 87.178C215.557 87.6565 215.067 88.168 214.58 88.184C214.082 88.2005 213.624 87.7381 213.628 87.224Z" fill="white" fill-opacity="0.3"/>
<path d="M205.434 71.4766C205.926 71.0406 206.191 70.6588 206.549 70.5249C207.006 70.3539 207.547 70.8918 207.524 71.4012C207.5 71.9385 207.154 72.3219 206.665 72.2656C206.304 72.2237 205.981 71.8445 205.434 71.4766Z" fill="white" fill-opacity="0.3"/>
<path d="M119.021 8.60656C119.532 8.20356 119.821 7.83465 120.188 7.72098C120.648 7.5789 121.157 8.15912 121.105 8.66081C121.05 9.19866 120.677 9.55826 120.199 9.47508C119.839 9.41256 119.538 9.00646 119.021 8.60656Z" fill="white" fill-opacity="0.3"/>
<path d="M142.638 16.3065C143.182 15.936 143.501 15.5578 143.863 15.5108C144.357 15.4462 144.697 15.8327 144.727 16.3664C144.757 16.8764 144.219 17.4209 143.761 17.2535C143.402 17.1218 143.134 16.7405 142.638 16.3065Z" fill="white" fill-opacity="0.3"/>
<path d="M158.651 24.2017C158.725 23.7083 159.033 23.4236 159.582 23.436C160.082 23.4474 160.466 23.8607 160.41 24.3516C160.35 24.8858 160.04 25.1875 159.481 25.1663C158.982 25.1483 158.621 24.7416 158.651 24.2017Z" fill="white" fill-opacity="0.3"/>
<path d="M32.984 16.3247C33.0124 15.8514 33.4831 15.3879 33.8886 15.5605C34.2059 15.6953 34.5329 16.0472 34.6399 16.3737C34.7747 16.7829 34.2565 17.2299 33.7936 17.2237C33.3182 17.2175 32.955 16.8139 32.984 16.3247Z" fill="white" fill-opacity="0.3"/>
<path d="M56.0752 8.58097C56.6544 8.1945 56.9675 7.8566 57.338 7.77238C57.7766 7.67318 58.1517 8.19347 58.1068 8.68121C58.0618 9.17101 57.7322 9.49444 57.3054 9.41023C56.9438 9.33893 56.6389 8.97829 56.0752 8.58097Z" fill="white" fill-opacity="0.3"/>
<path d="M17.1492 24.2332C17.1853 23.7387 17.6224 23.3218 18.0647 23.4995C18.3747 23.624 18.6976 23.9862 18.7932 24.3081C18.9177 24.7261 18.4047 25.1523 17.9418 25.1389C17.4633 25.1255 17.113 24.7256 17.1492 24.2332Z" fill="white" fill-opacity="0.3"/>
<path d="M189.832 47.9734C190.289 47.5905 190.54 47.2356 190.863 47.1457C191.313 47.0206 191.632 47.3394 191.711 47.8096C191.791 48.2854 191.388 48.8052 190.945 48.7019C190.609 48.6234 190.327 48.3113 189.832 47.9734Z" fill="white" fill-opacity="0.3"/>
<path d="M197.759 55.7108C198.287 55.343 198.564 55.0046 198.878 54.9658C199.339 54.909 199.666 55.3022 199.563 55.7475C199.5 56.0219 199.124 56.4156 198.893 56.4125C198.592 56.4084 198.296 56.0653 197.759 55.7108Z" fill="white" fill-opacity="0.3"/>
<path d="M182.213 39.7808C182.411 39.6382 182.684 39.3039 183.008 39.2429C183.474 39.1551 183.803 39.4966 183.815 39.9797C183.826 40.4643 183.529 40.7552 183.037 40.7635C182.551 40.7717 182.264 40.5181 182.213 39.7808Z" fill="white" fill-opacity="0.3"/>
<path d="M49.2991 7.8532C50.0065 7.91827 50.3411 8.1997 50.2162 8.6691C50.1454 8.934 49.7747 9.25055 49.4963 9.29909C49.0032 9.38533 48.7068 8.99545 48.7966 8.53328C48.8514 8.2503 49.1695 8.01845 49.2991 7.8532Z" fill="white" fill-opacity="0.3"/>
<path d="M126.855 8.56985C127.463 8.22937 127.784 7.90955 128.086 7.9266C128.319 7.94003 128.706 8.38178 128.697 8.62203C128.689 8.86435 128.278 9.28079 128.043 9.28079C127.742 9.28079 127.439 8.94237 126.855 8.56985Z" fill="white" fill-opacity="0.3"/>
<path d="M174.09 32.2049C174.692 31.8561 175.008 31.5307 175.31 31.5441C175.545 31.5544 175.941 31.9884 175.937 32.2287C175.933 32.471 175.527 32.8936 175.291 32.8983C174.99 32.904 174.682 32.5697 174.09 32.2049Z" fill="white" fill-opacity="0.3"/>
<path d="M214.492 80.3175C214.199 79.822 213.877 79.5197 213.92 79.2841C213.967 79.0284 214.353 78.8351 214.592 78.6145C214.815 78.8589 215.196 79.0914 215.215 79.3513C215.233 79.5885 214.859 79.8545 214.492 80.3175Z" fill="white" fill-opacity="0.3"/>
<path d="M26.0184 17.2963C25.6588 16.915 25.3685 16.7404 25.2936 16.4986C25.1696 16.0992 25.4129 15.7453 25.8304 15.7654C26.0676 15.7768 26.4586 16.0672 26.4788 16.2625C26.5057 16.5296 26.2458 16.8256 26.0184 17.2963Z" fill="white" fill-opacity="0.3"/>
<path d="M151.568 17.3058C151.3 16.8589 151.012 16.5856 151.015 16.3154C151.018 16.1175 151.403 15.9248 151.617 15.7295C151.826 15.9692 152.15 16.1862 152.204 16.4564C152.239 16.6378 151.892 16.8945 151.568 17.3058Z" fill="white" fill-opacity="0.3"/>
<path d="M206.667 62.6947C206.956 63.1365 207.281 63.4269 207.228 63.5989C207.146 63.8634 206.803 64.0469 206.571 64.2644C206.372 64.05 206.001 63.8221 206.017 63.6247C206.038 63.3566 206.355 63.1122 206.667 62.6947Z" fill="white" fill-opacity="0.3"/>
<path d="M221.493 95.0198C221.828 94.7367 222.087 94.373 222.251 94.4112C222.529 94.4763 222.747 94.7961 222.991 95.0085C222.751 95.2265 222.539 95.5515 222.262 95.6223C222.099 95.6641 221.834 95.3009 221.493 95.0198Z" fill="white" fill-opacity="0.3"/>
<path d="M135.062 8.62913C135.483 8.34047 135.71 8.07711 135.959 8.0549C136.114 8.04096 136.433 8.38591 136.439 8.57749C136.445 8.77424 136.155 9.14965 136.004 9.14501C135.75 9.13675 135.505 8.88939 135.062 8.62913Z" fill="white" fill-opacity="0.3"/>
<path d="M41.684 9.38925C41.3819 9.06238 41.0545 8.85324 41.0803 8.70452C41.1232 8.4551 41.3907 8.24442 41.5637 8.01772C41.7625 8.17832 42.1157 8.33117 42.124 8.50106C42.1358 8.74221 41.8947 8.99628 41.684 9.38925Z" fill="white" fill-opacity="0.3"/>
<path d="M167.322 25.0785C167.066 24.7248 166.803 24.5115 166.778 24.273C166.761 24.1186 167.15 23.7529 167.256 23.7881C167.491 23.866 167.753 24.1072 167.826 24.3385C167.87 24.4764 167.578 24.7212 167.322 25.0785Z" fill="white" fill-opacity="0.3"/>
<path d="M9.49114 24.2437C9.77825 24.0341 10.024 23.7387 10.1573 23.7831C10.3953 23.8621 10.5652 24.1456 10.7635 24.3434C10.5373 24.5148 10.3282 24.7746 10.0783 24.8226C9.94661 24.8479 9.74365 24.505 9.49114 24.2437Z" fill="white" fill-opacity="0.3"/>
<path d="M95.9059 0.602227C96.2002 0.403416 96.4548 0.117339 96.5886 0.165364C96.824 0.251085 96.9851 0.54026 97.1772 0.744751C96.9454 0.907931 96.727 1.16044 96.476 1.19866C96.3407 1.2188 96.1501 0.87075 95.9059 0.602227Z" fill="white" fill-opacity="0.3"/>
<path d="M88.1263 0.602105C88.4206 0.403294 88.6752 0.116701 88.809 0.165242C89.0444 0.250962 89.2055 0.540138 89.3982 0.744629C89.1663 0.907809 88.9479 1.16084 88.6969 1.19854C88.5611 1.21868 88.3706 0.870628 88.1263 0.602105Z" fill="white" fill-opacity="0.3"/>
<path d="M80.8879 1.45889C80.6416 1.09948 80.3839 0.879506 80.3653 0.640417C80.3529 0.486017 80.7516 0.131255 80.8585 0.169467C81.0914 0.25209 81.3464 0.50202 81.4141 0.735428C81.4539 0.873305 81.1538 1.11033 80.8879 1.45889Z" fill="white" fill-opacity="0.3"/>
<path d="M104.564 1.32322e-05C104.762 0.317594 105.004 0.53499 104.977 0.711595C104.949 0.893365 104.659 1.03538 104.484 1.19443C104.325 1.01266 104.045 0.832954 104.042 0.648086C104.039 0.468899 104.32 0.285061 104.564 1.32322e-05Z" fill="white" fill-opacity="0.3"/>
<path d="M72.9428 1.36874C72.7456 1.05116 72.5039 0.833769 72.5297 0.655097C72.5555 0.475393 72.8483 0.333902 73.0244 0.17537C73.1829 0.35559 73.4628 0.534776 73.4649 0.717062C73.4664 0.897799 73.1881 1.08111 72.9428 1.36874Z" fill="white" fill-opacity="0.3"/>
<path d="M221.759 87.1246C222.082 86.996 222.266 86.8581 222.436 86.8757C222.557 86.8881 222.773 87.1809 222.746 87.2227C222.642 87.389 222.467 87.5966 222.302 87.6115C222.173 87.6234 222.021 87.3724 221.759 87.1246Z" fill="white" fill-opacity="0.3"/>
<path d="M158.969 16.3239C159.266 16.1695 159.438 16.0145 159.61 16.0145C159.728 16.0145 159.965 16.2867 159.94 16.3409C159.859 16.5159 159.696 16.7426 159.538 16.7654C159.405 16.7834 159.237 16.5438 158.969 16.3239Z" fill="white" fill-opacity="0.3"/>
<path d="M190.888 39.4245C191.111 39.6976 191.353 39.8706 191.334 40.0049C191.311 40.1562 191.068 40.3157 190.888 40.3813C190.821 40.4056 190.562 40.1686 190.567 40.0575C190.574 39.8835 190.73 39.7157 190.888 39.4245Z" fill="white" fill-opacity="0.3"/>
<path d="M64.5956 0.618389C64.9142 0.45366 65.1269 0.254337 65.2684 0.296164C65.4125 0.339025 65.5426 0.611679 65.5664 0.798097C65.5772 0.882785 65.2886 1.10793 65.1843 1.08107C65.0046 1.03511 64.8626 0.841986 64.5956 0.618389Z" fill="white" fill-opacity="0.3"/>
<path d="M214.381 71.8414C214.311 71.6607 214.178 71.4742 214.194 71.3013C214.204 71.1877 214.484 70.9806 214.546 71.0116C214.717 71.0952 214.93 71.2713 214.95 71.4329C214.973 71.6204 214.809 71.8316 214.725 72.032C214.611 71.9684 214.496 71.9049 214.381 71.8414Z" fill="white" fill-opacity="0.3"/>
<path d="M143.238 8.66758C143.512 8.44657 143.652 8.26376 143.827 8.21936C143.926 8.19405 144.202 8.41197 144.19 8.48994C144.165 8.66965 144.038 8.93714 143.902 8.97174C143.756 9.00892 143.552 8.8225 143.238 8.66758Z" fill="white" fill-opacity="0.3"/>
<path d="M112.354 0.0828118C112.529 0.390581 112.738 0.595593 112.702 0.740183C112.667 0.884772 112.396 1.01748 112.208 1.05621C112.136 1.07119 111.907 0.791819 111.928 0.681827C111.962 0.505222 112.146 0.358048 112.354 0.0828118Z" fill="white" fill-opacity="0.3"/>
<path d="M183.08 32.7287C182.88 32.4762 182.685 32.3342 182.699 32.2211C182.717 32.0961 182.914 31.9707 183.059 31.903C183.101 31.8834 183.311 32.0646 183.311 32.153C183.31 32.2996 183.201 32.4457 183.08 32.7287Z" fill="white" fill-opacity="0.3"/>
<path d="M198.91 47.5854C199.006 47.6975 199.169 47.8354 199.149 47.8746C199.079 48.0053 198.943 48.1003 198.833 48.2087C198.741 48.0786 198.649 47.9479 198.557 47.8173C198.664 47.7471 198.771 47.6768 198.91 47.5854Z" fill="white" fill-opacity="0.3"/>
</g>
</svg>
